%TF.GenerationSoftware,KiCad,Pcbnew,9.0.1*%
%TF.CreationDate,2025-05-09T02:34:20+02:00*%
%TF.ProjectId,receiver_battery,72656365-6976-4657-925f-626174746572,rev?*%
%TF.SameCoordinates,Original*%
%TF.FileFunction,Drillmap*%
%TF.FilePolarity,Positive*%
%FSLAX45Y45*%
G04 Gerber Fmt 4.5, Leading zero omitted, Abs format (unit mm)*
G04 Created by KiCad (PCBNEW 9.0.1) date 2025-05-09 02:34:20*
%MOMM*%
%LPD*%
G01*
G04 APERTURE LIST*
%ADD10C,0.050000*%
%ADD11C,0.200000*%
G04 APERTURE END LIST*
D10*
X2000000Y-4100000D02*
X14200000Y-4100000D01*
X14200000Y-19500000D01*
X2000000Y-19500000D01*
X2000000Y-4100000D01*
D11*
X2258277Y-19813984D02*
X2258277Y-19613984D01*
X2258277Y-19613984D02*
X2305896Y-19613984D01*
X2305896Y-19613984D02*
X2334467Y-19623508D01*
X2334467Y-19623508D02*
X2353515Y-19642555D01*
X2353515Y-19642555D02*
X2363039Y-19661603D01*
X2363039Y-19661603D02*
X2372563Y-19699698D01*
X2372563Y-19699698D02*
X2372563Y-19728270D01*
X2372563Y-19728270D02*
X2363039Y-19766365D01*
X2363039Y-19766365D02*
X2353515Y-19785412D01*
X2353515Y-19785412D02*
X2334467Y-19804460D01*
X2334467Y-19804460D02*
X2305896Y-19813984D01*
X2305896Y-19813984D02*
X2258277Y-19813984D01*
X2458277Y-19813984D02*
X2458277Y-19680650D01*
X2458277Y-19718746D02*
X2467801Y-19699698D01*
X2467801Y-19699698D02*
X2477324Y-19690174D01*
X2477324Y-19690174D02*
X2496372Y-19680650D01*
X2496372Y-19680650D02*
X2515420Y-19680650D01*
X2582086Y-19813984D02*
X2582086Y-19680650D01*
X2582086Y-19613984D02*
X2572563Y-19623508D01*
X2572563Y-19623508D02*
X2582086Y-19633031D01*
X2582086Y-19633031D02*
X2591610Y-19623508D01*
X2591610Y-19623508D02*
X2582086Y-19613984D01*
X2582086Y-19613984D02*
X2582086Y-19633031D01*
X2705896Y-19813984D02*
X2686848Y-19804460D01*
X2686848Y-19804460D02*
X2677324Y-19785412D01*
X2677324Y-19785412D02*
X2677324Y-19613984D01*
X2810658Y-19813984D02*
X2791610Y-19804460D01*
X2791610Y-19804460D02*
X2782086Y-19785412D01*
X2782086Y-19785412D02*
X2782086Y-19613984D01*
X3039229Y-19813984D02*
X3039229Y-19613984D01*
X3039229Y-19613984D02*
X3105896Y-19756841D01*
X3105896Y-19756841D02*
X3172562Y-19613984D01*
X3172562Y-19613984D02*
X3172562Y-19813984D01*
X3353515Y-19813984D02*
X3353515Y-19709222D01*
X3353515Y-19709222D02*
X3343991Y-19690174D01*
X3343991Y-19690174D02*
X3324943Y-19680650D01*
X3324943Y-19680650D02*
X3286848Y-19680650D01*
X3286848Y-19680650D02*
X3267801Y-19690174D01*
X3353515Y-19804460D02*
X3334467Y-19813984D01*
X3334467Y-19813984D02*
X3286848Y-19813984D01*
X3286848Y-19813984D02*
X3267801Y-19804460D01*
X3267801Y-19804460D02*
X3258277Y-19785412D01*
X3258277Y-19785412D02*
X3258277Y-19766365D01*
X3258277Y-19766365D02*
X3267801Y-19747317D01*
X3267801Y-19747317D02*
X3286848Y-19737793D01*
X3286848Y-19737793D02*
X3334467Y-19737793D01*
X3334467Y-19737793D02*
X3353515Y-19728270D01*
X3448753Y-19680650D02*
X3448753Y-19880650D01*
X3448753Y-19690174D02*
X3467801Y-19680650D01*
X3467801Y-19680650D02*
X3505896Y-19680650D01*
X3505896Y-19680650D02*
X3524943Y-19690174D01*
X3524943Y-19690174D02*
X3534467Y-19699698D01*
X3534467Y-19699698D02*
X3543991Y-19718746D01*
X3543991Y-19718746D02*
X3543991Y-19775889D01*
X3543991Y-19775889D02*
X3534467Y-19794936D01*
X3534467Y-19794936D02*
X3524943Y-19804460D01*
X3524943Y-19804460D02*
X3505896Y-19813984D01*
X3505896Y-19813984D02*
X3467801Y-19813984D01*
X3467801Y-19813984D02*
X3448753Y-19804460D01*
X3629705Y-19794936D02*
X3639229Y-19804460D01*
X3639229Y-19804460D02*
X3629705Y-19813984D01*
X3629705Y-19813984D02*
X3620182Y-19804460D01*
X3620182Y-19804460D02*
X3629705Y-19794936D01*
X3629705Y-19794936D02*
X3629705Y-19813984D01*
X3629705Y-19690174D02*
X3639229Y-19699698D01*
X3639229Y-19699698D02*
X3629705Y-19709222D01*
X3629705Y-19709222D02*
X3620182Y-19699698D01*
X3620182Y-19699698D02*
X3629705Y-19690174D01*
X3629705Y-19690174D02*
X3629705Y-19709222D01*
M02*
