G04 #@! TF.GenerationSoftware,KiCad,Pcbnew,9.0.1*
G04 #@! TF.CreationDate,2025-05-09T02:34:20+02:00*
G04 #@! TF.ProjectId,receiver_battery,72656365-6976-4657-925f-626174746572,rev?*
G04 #@! TF.SameCoordinates,Original*
G04 #@! TF.FileFunction,Legend,Top*
G04 #@! TF.FilePolarity,Positive*
%FSLAX46Y46*%
G04 Gerber Fmt 4.6, Leading zero omitted, Abs format (unit mm)*
G04 Created by KiCad (PCBNEW 9.0.1) date 2025-05-09 02:34:20*
%MOMM*%
%LPD*%
G01*
G04 APERTURE LIST*
G04 Aperture macros list*
%AMRoundRect*
0 Rectangle with rounded corners*
0 $1 Rounding radius*
0 $2 $3 $4 $5 $6 $7 $8 $9 X,Y pos of 4 corners*
0 Add a 4 corners polygon primitive as box body*
4,1,4,$2,$3,$4,$5,$6,$7,$8,$9,$2,$3,0*
0 Add four circle primitives for the rounded corners*
1,1,$1+$1,$2,$3*
1,1,$1+$1,$4,$5*
1,1,$1+$1,$6,$7*
1,1,$1+$1,$8,$9*
0 Add four rect primitives between the rounded corners*
20,1,$1+$1,$2,$3,$4,$5,0*
20,1,$1+$1,$4,$5,$6,$7,0*
20,1,$1+$1,$6,$7,$8,$9,0*
20,1,$1+$1,$8,$9,$2,$3,0*%
G04 Aperture macros list end*
%ADD10C,0.150000*%
%ADD11C,0.120000*%
%ADD12R,2.000000X1.905000*%
%ADD13O,2.000000X1.905000*%
%ADD14RoundRect,0.250002X-1.699998X1.699998X-1.699998X-1.699998X1.699998X-1.699998X1.699998X1.699998X0*%
%ADD15C,1.600000*%
%ADD16O,1.600000X1.600000*%
%ADD17RoundRect,0.250002X-1.699998X-1.699998X1.699998X-1.699998X1.699998X1.699998X-1.699998X1.699998X0*%
%ADD18RoundRect,0.250002X1.699998X-1.699998X1.699998X1.699998X-1.699998X1.699998X-1.699998X-1.699998X0*%
%ADD19R,1.600000X1.600000*%
%ADD20R,1.700000X1.700000*%
%ADD21C,1.700000*%
G04 APERTURE END LIST*
D10*
X106724819Y-155182856D02*
X105724819Y-155182856D01*
X105724819Y-155182856D02*
X106724819Y-154611428D01*
X106724819Y-154611428D02*
X105724819Y-154611428D01*
X106724819Y-154135237D02*
X105724819Y-154135237D01*
X105724819Y-154135237D02*
X105724819Y-153754285D01*
X105724819Y-153754285D02*
X105772438Y-153659047D01*
X105772438Y-153659047D02*
X105820057Y-153611428D01*
X105820057Y-153611428D02*
X105915295Y-153563809D01*
X105915295Y-153563809D02*
X106058152Y-153563809D01*
X106058152Y-153563809D02*
X106153390Y-153611428D01*
X106153390Y-153611428D02*
X106201009Y-153659047D01*
X106201009Y-153659047D02*
X106248628Y-153754285D01*
X106248628Y-153754285D02*
X106248628Y-154135237D01*
X106724819Y-153135237D02*
X105724819Y-153135237D01*
X105724819Y-153135237D02*
X106724819Y-152563809D01*
X106724819Y-152563809D02*
X105724819Y-152563809D01*
X106724819Y-151563809D02*
X106724819Y-152135237D01*
X106724819Y-151849523D02*
X105724819Y-151849523D01*
X105724819Y-151849523D02*
X105867676Y-151944761D01*
X105867676Y-151944761D02*
X105962914Y-152039999D01*
X105962914Y-152039999D02*
X106010533Y-152135237D01*
X106820057Y-151373333D02*
X106820057Y-150611428D01*
X105724819Y-149897142D02*
X105724819Y-150373332D01*
X105724819Y-150373332D02*
X106201009Y-150420951D01*
X106201009Y-150420951D02*
X106153390Y-150373332D01*
X106153390Y-150373332D02*
X106105771Y-150278094D01*
X106105771Y-150278094D02*
X106105771Y-150039999D01*
X106105771Y-150039999D02*
X106153390Y-149944761D01*
X106153390Y-149944761D02*
X106201009Y-149897142D01*
X106201009Y-149897142D02*
X106296247Y-149849523D01*
X106296247Y-149849523D02*
X106534342Y-149849523D01*
X106534342Y-149849523D02*
X106629580Y-149897142D01*
X106629580Y-149897142D02*
X106677200Y-149944761D01*
X106677200Y-149944761D02*
X106724819Y-150039999D01*
X106724819Y-150039999D02*
X106724819Y-150278094D01*
X106724819Y-150278094D02*
X106677200Y-150373332D01*
X106677200Y-150373332D02*
X106629580Y-150420951D01*
X96454819Y-138428571D02*
X97454819Y-138095238D01*
X97454819Y-138095238D02*
X96454819Y-137761905D01*
X97073866Y-137428571D02*
X97073866Y-136666667D01*
X97454819Y-136047619D02*
X97407200Y-136142857D01*
X97407200Y-136142857D02*
X97311961Y-136190476D01*
X97311961Y-136190476D02*
X96454819Y-136190476D01*
X97407200Y-135285714D02*
X97454819Y-135380952D01*
X97454819Y-135380952D02*
X97454819Y-135571428D01*
X97454819Y-135571428D02*
X97407200Y-135666666D01*
X97407200Y-135666666D02*
X97311961Y-135714285D01*
X97311961Y-135714285D02*
X96931009Y-135714285D01*
X96931009Y-135714285D02*
X96835771Y-135666666D01*
X96835771Y-135666666D02*
X96788152Y-135571428D01*
X96788152Y-135571428D02*
X96788152Y-135380952D01*
X96788152Y-135380952D02*
X96835771Y-135285714D01*
X96835771Y-135285714D02*
X96931009Y-135238095D01*
X96931009Y-135238095D02*
X97026247Y-135238095D01*
X97026247Y-135238095D02*
X97121485Y-135714285D01*
X97454819Y-134380952D02*
X96454819Y-134380952D01*
X97407200Y-134380952D02*
X97454819Y-134476190D01*
X97454819Y-134476190D02*
X97454819Y-134666666D01*
X97454819Y-134666666D02*
X97407200Y-134761904D01*
X97407200Y-134761904D02*
X97359580Y-134809523D01*
X97359580Y-134809523D02*
X97264342Y-134857142D01*
X97264342Y-134857142D02*
X96978628Y-134857142D01*
X96978628Y-134857142D02*
X96883390Y-134809523D01*
X96883390Y-134809523D02*
X96835771Y-134761904D01*
X96835771Y-134761904D02*
X96788152Y-134666666D01*
X96788152Y-134666666D02*
X96788152Y-134476190D01*
X96788152Y-134476190D02*
X96835771Y-134380952D01*
X97454819Y-133380952D02*
X97454819Y-133952380D01*
X97454819Y-133666666D02*
X96454819Y-133666666D01*
X96454819Y-133666666D02*
X96597676Y-133761904D01*
X96597676Y-133761904D02*
X96692914Y-133857142D01*
X96692914Y-133857142D02*
X96740533Y-133952380D01*
X97550057Y-133190476D02*
X97550057Y-132428571D01*
X96788152Y-131761904D02*
X97454819Y-131761904D01*
X96407200Y-131999999D02*
X97121485Y-132238094D01*
X97121485Y-132238094D02*
X97121485Y-131619047D01*
X66129819Y-113642856D02*
X65129819Y-113642856D01*
X65129819Y-113642856D02*
X66129819Y-113071428D01*
X66129819Y-113071428D02*
X65129819Y-113071428D01*
X66129819Y-112595237D02*
X65129819Y-112595237D01*
X65129819Y-112595237D02*
X65129819Y-112214285D01*
X65129819Y-112214285D02*
X65177438Y-112119047D01*
X65177438Y-112119047D02*
X65225057Y-112071428D01*
X65225057Y-112071428D02*
X65320295Y-112023809D01*
X65320295Y-112023809D02*
X65463152Y-112023809D01*
X65463152Y-112023809D02*
X65558390Y-112071428D01*
X65558390Y-112071428D02*
X65606009Y-112119047D01*
X65606009Y-112119047D02*
X65653628Y-112214285D01*
X65653628Y-112214285D02*
X65653628Y-112595237D01*
X66129819Y-111595237D02*
X65129819Y-111595237D01*
X65129819Y-111595237D02*
X66129819Y-111023809D01*
X66129819Y-111023809D02*
X65129819Y-111023809D01*
X65225057Y-110595237D02*
X65177438Y-110547618D01*
X65177438Y-110547618D02*
X65129819Y-110452380D01*
X65129819Y-110452380D02*
X65129819Y-110214285D01*
X65129819Y-110214285D02*
X65177438Y-110119047D01*
X65177438Y-110119047D02*
X65225057Y-110071428D01*
X65225057Y-110071428D02*
X65320295Y-110023809D01*
X65320295Y-110023809D02*
X65415533Y-110023809D01*
X65415533Y-110023809D02*
X65558390Y-110071428D01*
X65558390Y-110071428D02*
X66129819Y-110642856D01*
X66129819Y-110642856D02*
X66129819Y-110023809D01*
X66225057Y-109833333D02*
X66225057Y-109071428D01*
X65129819Y-108928570D02*
X65129819Y-108309523D01*
X65129819Y-108309523D02*
X65510771Y-108642856D01*
X65510771Y-108642856D02*
X65510771Y-108499999D01*
X65510771Y-108499999D02*
X65558390Y-108404761D01*
X65558390Y-108404761D02*
X65606009Y-108357142D01*
X65606009Y-108357142D02*
X65701247Y-108309523D01*
X65701247Y-108309523D02*
X65939342Y-108309523D01*
X65939342Y-108309523D02*
X66034580Y-108357142D01*
X66034580Y-108357142D02*
X66082200Y-108404761D01*
X66082200Y-108404761D02*
X66129819Y-108499999D01*
X66129819Y-108499999D02*
X66129819Y-108785713D01*
X66129819Y-108785713D02*
X66082200Y-108880951D01*
X66082200Y-108880951D02*
X66034580Y-108928570D01*
X60084819Y-115310000D02*
X59084819Y-115310000D01*
X59084819Y-115310000D02*
X59084819Y-114929048D01*
X59084819Y-114929048D02*
X59132438Y-114833810D01*
X59132438Y-114833810D02*
X59180057Y-114786191D01*
X59180057Y-114786191D02*
X59275295Y-114738572D01*
X59275295Y-114738572D02*
X59418152Y-114738572D01*
X59418152Y-114738572D02*
X59513390Y-114786191D01*
X59513390Y-114786191D02*
X59561009Y-114833810D01*
X59561009Y-114833810D02*
X59608628Y-114929048D01*
X59608628Y-114929048D02*
X59608628Y-115310000D01*
X59418152Y-113881429D02*
X60084819Y-113881429D01*
X59418152Y-114310000D02*
X59941961Y-114310000D01*
X59941961Y-114310000D02*
X60037200Y-114262381D01*
X60037200Y-114262381D02*
X60084819Y-114167143D01*
X60084819Y-114167143D02*
X60084819Y-114024286D01*
X60084819Y-114024286D02*
X60037200Y-113929048D01*
X60037200Y-113929048D02*
X59989580Y-113881429D01*
X60084819Y-113262381D02*
X60037200Y-113357619D01*
X60037200Y-113357619D02*
X59941961Y-113405238D01*
X59941961Y-113405238D02*
X59084819Y-113405238D01*
X60084819Y-112738571D02*
X60037200Y-112833809D01*
X60037200Y-112833809D02*
X59941961Y-112881428D01*
X59941961Y-112881428D02*
X59084819Y-112881428D01*
X60084819Y-112357618D02*
X59084819Y-112357618D01*
X59084819Y-112357618D02*
X59084819Y-112119523D01*
X59084819Y-112119523D02*
X59132438Y-111976666D01*
X59132438Y-111976666D02*
X59227676Y-111881428D01*
X59227676Y-111881428D02*
X59322914Y-111833809D01*
X59322914Y-111833809D02*
X59513390Y-111786190D01*
X59513390Y-111786190D02*
X59656247Y-111786190D01*
X59656247Y-111786190D02*
X59846723Y-111833809D01*
X59846723Y-111833809D02*
X59941961Y-111881428D01*
X59941961Y-111881428D02*
X60037200Y-111976666D01*
X60037200Y-111976666D02*
X60084819Y-112119523D01*
X60084819Y-112119523D02*
X60084819Y-112357618D01*
X60084819Y-111214761D02*
X60037200Y-111309999D01*
X60037200Y-111309999D02*
X59989580Y-111357618D01*
X59989580Y-111357618D02*
X59894342Y-111405237D01*
X59894342Y-111405237D02*
X59608628Y-111405237D01*
X59608628Y-111405237D02*
X59513390Y-111357618D01*
X59513390Y-111357618D02*
X59465771Y-111309999D01*
X59465771Y-111309999D02*
X59418152Y-111214761D01*
X59418152Y-111214761D02*
X59418152Y-111071904D01*
X59418152Y-111071904D02*
X59465771Y-110976666D01*
X59465771Y-110976666D02*
X59513390Y-110929047D01*
X59513390Y-110929047D02*
X59608628Y-110881428D01*
X59608628Y-110881428D02*
X59894342Y-110881428D01*
X59894342Y-110881428D02*
X59989580Y-110929047D01*
X59989580Y-110929047D02*
X60037200Y-110976666D01*
X60037200Y-110976666D02*
X60084819Y-111071904D01*
X60084819Y-111071904D02*
X60084819Y-111214761D01*
X59418152Y-110548094D02*
X60084819Y-110357618D01*
X60084819Y-110357618D02*
X59608628Y-110167142D01*
X59608628Y-110167142D02*
X60084819Y-109976666D01*
X60084819Y-109976666D02*
X59418152Y-109786190D01*
X59418152Y-109405237D02*
X60084819Y-109405237D01*
X59513390Y-109405237D02*
X59465771Y-109357618D01*
X59465771Y-109357618D02*
X59418152Y-109262380D01*
X59418152Y-109262380D02*
X59418152Y-109119523D01*
X59418152Y-109119523D02*
X59465771Y-109024285D01*
X59465771Y-109024285D02*
X59561009Y-108976666D01*
X59561009Y-108976666D02*
X60084819Y-108976666D01*
X59180057Y-108548094D02*
X59132438Y-108500475D01*
X59132438Y-108500475D02*
X59084819Y-108405237D01*
X59084819Y-108405237D02*
X59084819Y-108167142D01*
X59084819Y-108167142D02*
X59132438Y-108071904D01*
X59132438Y-108071904D02*
X59180057Y-108024285D01*
X59180057Y-108024285D02*
X59275295Y-107976666D01*
X59275295Y-107976666D02*
X59370533Y-107976666D01*
X59370533Y-107976666D02*
X59513390Y-108024285D01*
X59513390Y-108024285D02*
X60084819Y-108595713D01*
X60084819Y-108595713D02*
X60084819Y-107976666D01*
X60180057Y-107786190D02*
X60180057Y-107024285D01*
X59084819Y-106881427D02*
X59084819Y-106262380D01*
X59084819Y-106262380D02*
X59465771Y-106595713D01*
X59465771Y-106595713D02*
X59465771Y-106452856D01*
X59465771Y-106452856D02*
X59513390Y-106357618D01*
X59513390Y-106357618D02*
X59561009Y-106309999D01*
X59561009Y-106309999D02*
X59656247Y-106262380D01*
X59656247Y-106262380D02*
X59894342Y-106262380D01*
X59894342Y-106262380D02*
X59989580Y-106309999D01*
X59989580Y-106309999D02*
X60037200Y-106357618D01*
X60037200Y-106357618D02*
X60084819Y-106452856D01*
X60084819Y-106452856D02*
X60084819Y-106738570D01*
X60084819Y-106738570D02*
X60037200Y-106833808D01*
X60037200Y-106833808D02*
X59989580Y-106881427D01*
X38833332Y-47494819D02*
X39166665Y-48494819D01*
X39166665Y-48494819D02*
X39499998Y-47494819D01*
X39833332Y-48113866D02*
X40595237Y-48113866D01*
X40214284Y-48494819D02*
X40214284Y-47732914D01*
X40833332Y-48590057D02*
X41595236Y-48590057D01*
X41690475Y-47828152D02*
X42071427Y-47828152D01*
X41833332Y-47494819D02*
X41833332Y-48351961D01*
X41833332Y-48351961D02*
X41880951Y-48447200D01*
X41880951Y-48447200D02*
X41976189Y-48494819D01*
X41976189Y-48494819D02*
X42071427Y-48494819D01*
X42404761Y-48494819D02*
X42404761Y-47828152D01*
X42404761Y-48018628D02*
X42452380Y-47923390D01*
X42452380Y-47923390D02*
X42499999Y-47875771D01*
X42499999Y-47875771D02*
X42595237Y-47828152D01*
X42595237Y-47828152D02*
X42690475Y-47828152D01*
X43452380Y-48494819D02*
X43452380Y-47971009D01*
X43452380Y-47971009D02*
X43404761Y-47875771D01*
X43404761Y-47875771D02*
X43309523Y-47828152D01*
X43309523Y-47828152D02*
X43119047Y-47828152D01*
X43119047Y-47828152D02*
X43023809Y-47875771D01*
X43452380Y-48447200D02*
X43357142Y-48494819D01*
X43357142Y-48494819D02*
X43119047Y-48494819D01*
X43119047Y-48494819D02*
X43023809Y-48447200D01*
X43023809Y-48447200D02*
X42976190Y-48351961D01*
X42976190Y-48351961D02*
X42976190Y-48256723D01*
X42976190Y-48256723D02*
X43023809Y-48161485D01*
X43023809Y-48161485D02*
X43119047Y-48113866D01*
X43119047Y-48113866D02*
X43357142Y-48113866D01*
X43357142Y-48113866D02*
X43452380Y-48066247D01*
X43928571Y-47828152D02*
X43928571Y-48494819D01*
X43928571Y-47923390D02*
X43976190Y-47875771D01*
X43976190Y-47875771D02*
X44071428Y-47828152D01*
X44071428Y-47828152D02*
X44214285Y-47828152D01*
X44214285Y-47828152D02*
X44309523Y-47875771D01*
X44309523Y-47875771D02*
X44357142Y-47971009D01*
X44357142Y-47971009D02*
X44357142Y-48494819D01*
X44785714Y-48447200D02*
X44880952Y-48494819D01*
X44880952Y-48494819D02*
X45071428Y-48494819D01*
X45071428Y-48494819D02*
X45166666Y-48447200D01*
X45166666Y-48447200D02*
X45214285Y-48351961D01*
X45214285Y-48351961D02*
X45214285Y-48304342D01*
X45214285Y-48304342D02*
X45166666Y-48209104D01*
X45166666Y-48209104D02*
X45071428Y-48161485D01*
X45071428Y-48161485D02*
X44928571Y-48161485D01*
X44928571Y-48161485D02*
X44833333Y-48113866D01*
X44833333Y-48113866D02*
X44785714Y-48018628D01*
X44785714Y-48018628D02*
X44785714Y-47971009D01*
X44785714Y-47971009D02*
X44833333Y-47875771D01*
X44833333Y-47875771D02*
X44928571Y-47828152D01*
X44928571Y-47828152D02*
X45071428Y-47828152D01*
X45071428Y-47828152D02*
X45166666Y-47875771D01*
X45500000Y-47828152D02*
X45880952Y-47828152D01*
X45642857Y-48494819D02*
X45642857Y-47637676D01*
X45642857Y-47637676D02*
X45690476Y-47542438D01*
X45690476Y-47542438D02*
X45785714Y-47494819D01*
X45785714Y-47494819D02*
X45880952Y-47494819D01*
X46357143Y-48494819D02*
X46261905Y-48447200D01*
X46261905Y-48447200D02*
X46214286Y-48399580D01*
X46214286Y-48399580D02*
X46166667Y-48304342D01*
X46166667Y-48304342D02*
X46166667Y-48018628D01*
X46166667Y-48018628D02*
X46214286Y-47923390D01*
X46214286Y-47923390D02*
X46261905Y-47875771D01*
X46261905Y-47875771D02*
X46357143Y-47828152D01*
X46357143Y-47828152D02*
X46500000Y-47828152D01*
X46500000Y-47828152D02*
X46595238Y-47875771D01*
X46595238Y-47875771D02*
X46642857Y-47923390D01*
X46642857Y-47923390D02*
X46690476Y-48018628D01*
X46690476Y-48018628D02*
X46690476Y-48304342D01*
X46690476Y-48304342D02*
X46642857Y-48399580D01*
X46642857Y-48399580D02*
X46595238Y-48447200D01*
X46595238Y-48447200D02*
X46500000Y-48494819D01*
X46500000Y-48494819D02*
X46357143Y-48494819D01*
X47119048Y-48494819D02*
X47119048Y-47828152D01*
X47119048Y-48018628D02*
X47166667Y-47923390D01*
X47166667Y-47923390D02*
X47214286Y-47875771D01*
X47214286Y-47875771D02*
X47309524Y-47828152D01*
X47309524Y-47828152D02*
X47404762Y-47828152D01*
X47738096Y-48494819D02*
X47738096Y-47828152D01*
X47738096Y-47923390D02*
X47785715Y-47875771D01*
X47785715Y-47875771D02*
X47880953Y-47828152D01*
X47880953Y-47828152D02*
X48023810Y-47828152D01*
X48023810Y-47828152D02*
X48119048Y-47875771D01*
X48119048Y-47875771D02*
X48166667Y-47971009D01*
X48166667Y-47971009D02*
X48166667Y-48494819D01*
X48166667Y-47971009D02*
X48214286Y-47875771D01*
X48214286Y-47875771D02*
X48309524Y-47828152D01*
X48309524Y-47828152D02*
X48452381Y-47828152D01*
X48452381Y-47828152D02*
X48547620Y-47875771D01*
X48547620Y-47875771D02*
X48595239Y-47971009D01*
X48595239Y-47971009D02*
X48595239Y-48494819D01*
X49452381Y-48447200D02*
X49357143Y-48494819D01*
X49357143Y-48494819D02*
X49166667Y-48494819D01*
X49166667Y-48494819D02*
X49071429Y-48447200D01*
X49071429Y-48447200D02*
X49023810Y-48351961D01*
X49023810Y-48351961D02*
X49023810Y-47971009D01*
X49023810Y-47971009D02*
X49071429Y-47875771D01*
X49071429Y-47875771D02*
X49166667Y-47828152D01*
X49166667Y-47828152D02*
X49357143Y-47828152D01*
X49357143Y-47828152D02*
X49452381Y-47875771D01*
X49452381Y-47875771D02*
X49500000Y-47971009D01*
X49500000Y-47971009D02*
X49500000Y-48066247D01*
X49500000Y-48066247D02*
X49023810Y-48161485D01*
X49928572Y-48494819D02*
X49928572Y-47828152D01*
X49928572Y-48018628D02*
X49976191Y-47923390D01*
X49976191Y-47923390D02*
X50023810Y-47875771D01*
X50023810Y-47875771D02*
X50119048Y-47828152D01*
X50119048Y-47828152D02*
X50214286Y-47828152D01*
X51071429Y-48494819D02*
X50500001Y-48494819D01*
X50785715Y-48494819D02*
X50785715Y-47494819D01*
X50785715Y-47494819D02*
X50690477Y-47637676D01*
X50690477Y-47637676D02*
X50595239Y-47732914D01*
X50595239Y-47732914D02*
X50500001Y-47780533D01*
X114824819Y-117310000D02*
X113824819Y-117310000D01*
X113824819Y-117310000D02*
X113824819Y-116929048D01*
X113824819Y-116929048D02*
X113872438Y-116833810D01*
X113872438Y-116833810D02*
X113920057Y-116786191D01*
X113920057Y-116786191D02*
X114015295Y-116738572D01*
X114015295Y-116738572D02*
X114158152Y-116738572D01*
X114158152Y-116738572D02*
X114253390Y-116786191D01*
X114253390Y-116786191D02*
X114301009Y-116833810D01*
X114301009Y-116833810D02*
X114348628Y-116929048D01*
X114348628Y-116929048D02*
X114348628Y-117310000D01*
X114158152Y-115881429D02*
X114824819Y-115881429D01*
X114158152Y-116310000D02*
X114681961Y-116310000D01*
X114681961Y-116310000D02*
X114777200Y-116262381D01*
X114777200Y-116262381D02*
X114824819Y-116167143D01*
X114824819Y-116167143D02*
X114824819Y-116024286D01*
X114824819Y-116024286D02*
X114777200Y-115929048D01*
X114777200Y-115929048D02*
X114729580Y-115881429D01*
X114824819Y-115262381D02*
X114777200Y-115357619D01*
X114777200Y-115357619D02*
X114681961Y-115405238D01*
X114681961Y-115405238D02*
X113824819Y-115405238D01*
X114824819Y-114738571D02*
X114777200Y-114833809D01*
X114777200Y-114833809D02*
X114681961Y-114881428D01*
X114681961Y-114881428D02*
X113824819Y-114881428D01*
X114824819Y-114357618D02*
X113824819Y-114357618D01*
X113824819Y-114357618D02*
X113824819Y-114119523D01*
X113824819Y-114119523D02*
X113872438Y-113976666D01*
X113872438Y-113976666D02*
X113967676Y-113881428D01*
X113967676Y-113881428D02*
X114062914Y-113833809D01*
X114062914Y-113833809D02*
X114253390Y-113786190D01*
X114253390Y-113786190D02*
X114396247Y-113786190D01*
X114396247Y-113786190D02*
X114586723Y-113833809D01*
X114586723Y-113833809D02*
X114681961Y-113881428D01*
X114681961Y-113881428D02*
X114777200Y-113976666D01*
X114777200Y-113976666D02*
X114824819Y-114119523D01*
X114824819Y-114119523D02*
X114824819Y-114357618D01*
X114824819Y-113214761D02*
X114777200Y-113309999D01*
X114777200Y-113309999D02*
X114729580Y-113357618D01*
X114729580Y-113357618D02*
X114634342Y-113405237D01*
X114634342Y-113405237D02*
X114348628Y-113405237D01*
X114348628Y-113405237D02*
X114253390Y-113357618D01*
X114253390Y-113357618D02*
X114205771Y-113309999D01*
X114205771Y-113309999D02*
X114158152Y-113214761D01*
X114158152Y-113214761D02*
X114158152Y-113071904D01*
X114158152Y-113071904D02*
X114205771Y-112976666D01*
X114205771Y-112976666D02*
X114253390Y-112929047D01*
X114253390Y-112929047D02*
X114348628Y-112881428D01*
X114348628Y-112881428D02*
X114634342Y-112881428D01*
X114634342Y-112881428D02*
X114729580Y-112929047D01*
X114729580Y-112929047D02*
X114777200Y-112976666D01*
X114777200Y-112976666D02*
X114824819Y-113071904D01*
X114824819Y-113071904D02*
X114824819Y-113214761D01*
X114158152Y-112548094D02*
X114824819Y-112357618D01*
X114824819Y-112357618D02*
X114348628Y-112167142D01*
X114348628Y-112167142D02*
X114824819Y-111976666D01*
X114824819Y-111976666D02*
X114158152Y-111786190D01*
X114158152Y-111405237D02*
X114824819Y-111405237D01*
X114253390Y-111405237D02*
X114205771Y-111357618D01*
X114205771Y-111357618D02*
X114158152Y-111262380D01*
X114158152Y-111262380D02*
X114158152Y-111119523D01*
X114158152Y-111119523D02*
X114205771Y-111024285D01*
X114205771Y-111024285D02*
X114301009Y-110976666D01*
X114301009Y-110976666D02*
X114824819Y-110976666D01*
X114824819Y-109976666D02*
X114824819Y-110548094D01*
X114824819Y-110262380D02*
X113824819Y-110262380D01*
X113824819Y-110262380D02*
X113967676Y-110357618D01*
X113967676Y-110357618D02*
X114062914Y-110452856D01*
X114062914Y-110452856D02*
X114110533Y-110548094D01*
X114920057Y-109786190D02*
X114920057Y-109024285D01*
X113824819Y-108881427D02*
X113824819Y-108262380D01*
X113824819Y-108262380D02*
X114205771Y-108595713D01*
X114205771Y-108595713D02*
X114205771Y-108452856D01*
X114205771Y-108452856D02*
X114253390Y-108357618D01*
X114253390Y-108357618D02*
X114301009Y-108309999D01*
X114301009Y-108309999D02*
X114396247Y-108262380D01*
X114396247Y-108262380D02*
X114634342Y-108262380D01*
X114634342Y-108262380D02*
X114729580Y-108309999D01*
X114729580Y-108309999D02*
X114777200Y-108357618D01*
X114777200Y-108357618D02*
X114824819Y-108452856D01*
X114824819Y-108452856D02*
X114824819Y-108738570D01*
X114824819Y-108738570D02*
X114777200Y-108833808D01*
X114777200Y-108833808D02*
X114729580Y-108881427D01*
X62824819Y-181976666D02*
X62348628Y-182309999D01*
X62824819Y-182548094D02*
X61824819Y-182548094D01*
X61824819Y-182548094D02*
X61824819Y-182167142D01*
X61824819Y-182167142D02*
X61872438Y-182071904D01*
X61872438Y-182071904D02*
X61920057Y-182024285D01*
X61920057Y-182024285D02*
X62015295Y-181976666D01*
X62015295Y-181976666D02*
X62158152Y-181976666D01*
X62158152Y-181976666D02*
X62253390Y-182024285D01*
X62253390Y-182024285D02*
X62301009Y-182071904D01*
X62301009Y-182071904D02*
X62348628Y-182167142D01*
X62348628Y-182167142D02*
X62348628Y-182548094D01*
X61920057Y-181595713D02*
X61872438Y-181548094D01*
X61872438Y-181548094D02*
X61824819Y-181452856D01*
X61824819Y-181452856D02*
X61824819Y-181214761D01*
X61824819Y-181214761D02*
X61872438Y-181119523D01*
X61872438Y-181119523D02*
X61920057Y-181071904D01*
X61920057Y-181071904D02*
X62015295Y-181024285D01*
X62015295Y-181024285D02*
X62110533Y-181024285D01*
X62110533Y-181024285D02*
X62253390Y-181071904D01*
X62253390Y-181071904D02*
X62824819Y-181643332D01*
X62824819Y-181643332D02*
X62824819Y-181024285D01*
X73304819Y-119428571D02*
X74304819Y-119095238D01*
X74304819Y-119095238D02*
X73304819Y-118761905D01*
X73923866Y-118428571D02*
X73923866Y-117666667D01*
X74304819Y-117047619D02*
X74257200Y-117142857D01*
X74257200Y-117142857D02*
X74161961Y-117190476D01*
X74161961Y-117190476D02*
X73304819Y-117190476D01*
X74257200Y-116285714D02*
X74304819Y-116380952D01*
X74304819Y-116380952D02*
X74304819Y-116571428D01*
X74304819Y-116571428D02*
X74257200Y-116666666D01*
X74257200Y-116666666D02*
X74161961Y-116714285D01*
X74161961Y-116714285D02*
X73781009Y-116714285D01*
X73781009Y-116714285D02*
X73685771Y-116666666D01*
X73685771Y-116666666D02*
X73638152Y-116571428D01*
X73638152Y-116571428D02*
X73638152Y-116380952D01*
X73638152Y-116380952D02*
X73685771Y-116285714D01*
X73685771Y-116285714D02*
X73781009Y-116238095D01*
X73781009Y-116238095D02*
X73876247Y-116238095D01*
X73876247Y-116238095D02*
X73971485Y-116714285D01*
X74304819Y-115380952D02*
X73304819Y-115380952D01*
X74257200Y-115380952D02*
X74304819Y-115476190D01*
X74304819Y-115476190D02*
X74304819Y-115666666D01*
X74304819Y-115666666D02*
X74257200Y-115761904D01*
X74257200Y-115761904D02*
X74209580Y-115809523D01*
X74209580Y-115809523D02*
X74114342Y-115857142D01*
X74114342Y-115857142D02*
X73828628Y-115857142D01*
X73828628Y-115857142D02*
X73733390Y-115809523D01*
X73733390Y-115809523D02*
X73685771Y-115761904D01*
X73685771Y-115761904D02*
X73638152Y-115666666D01*
X73638152Y-115666666D02*
X73638152Y-115476190D01*
X73638152Y-115476190D02*
X73685771Y-115380952D01*
X73400057Y-114952380D02*
X73352438Y-114904761D01*
X73352438Y-114904761D02*
X73304819Y-114809523D01*
X73304819Y-114809523D02*
X73304819Y-114571428D01*
X73304819Y-114571428D02*
X73352438Y-114476190D01*
X73352438Y-114476190D02*
X73400057Y-114428571D01*
X73400057Y-114428571D02*
X73495295Y-114380952D01*
X73495295Y-114380952D02*
X73590533Y-114380952D01*
X73590533Y-114380952D02*
X73733390Y-114428571D01*
X73733390Y-114428571D02*
X74304819Y-114999999D01*
X74304819Y-114999999D02*
X74304819Y-114380952D01*
X74400057Y-114190476D02*
X74400057Y-113428571D01*
X73304819Y-113285713D02*
X73304819Y-112666666D01*
X73304819Y-112666666D02*
X73685771Y-112999999D01*
X73685771Y-112999999D02*
X73685771Y-112857142D01*
X73685771Y-112857142D02*
X73733390Y-112761904D01*
X73733390Y-112761904D02*
X73781009Y-112714285D01*
X73781009Y-112714285D02*
X73876247Y-112666666D01*
X73876247Y-112666666D02*
X74114342Y-112666666D01*
X74114342Y-112666666D02*
X74209580Y-112714285D01*
X74209580Y-112714285D02*
X74257200Y-112761904D01*
X74257200Y-112761904D02*
X74304819Y-112857142D01*
X74304819Y-112857142D02*
X74304819Y-113142856D01*
X74304819Y-113142856D02*
X74257200Y-113238094D01*
X74257200Y-113238094D02*
X74209580Y-113285713D01*
X60084819Y-78310000D02*
X59084819Y-78310000D01*
X59084819Y-78310000D02*
X59084819Y-77929048D01*
X59084819Y-77929048D02*
X59132438Y-77833810D01*
X59132438Y-77833810D02*
X59180057Y-77786191D01*
X59180057Y-77786191D02*
X59275295Y-77738572D01*
X59275295Y-77738572D02*
X59418152Y-77738572D01*
X59418152Y-77738572D02*
X59513390Y-77786191D01*
X59513390Y-77786191D02*
X59561009Y-77833810D01*
X59561009Y-77833810D02*
X59608628Y-77929048D01*
X59608628Y-77929048D02*
X59608628Y-78310000D01*
X59418152Y-76881429D02*
X60084819Y-76881429D01*
X59418152Y-77310000D02*
X59941961Y-77310000D01*
X59941961Y-77310000D02*
X60037200Y-77262381D01*
X60037200Y-77262381D02*
X60084819Y-77167143D01*
X60084819Y-77167143D02*
X60084819Y-77024286D01*
X60084819Y-77024286D02*
X60037200Y-76929048D01*
X60037200Y-76929048D02*
X59989580Y-76881429D01*
X60084819Y-76262381D02*
X60037200Y-76357619D01*
X60037200Y-76357619D02*
X59941961Y-76405238D01*
X59941961Y-76405238D02*
X59084819Y-76405238D01*
X60084819Y-75738571D02*
X60037200Y-75833809D01*
X60037200Y-75833809D02*
X59941961Y-75881428D01*
X59941961Y-75881428D02*
X59084819Y-75881428D01*
X60084819Y-75357618D02*
X59084819Y-75357618D01*
X59084819Y-75357618D02*
X59084819Y-75119523D01*
X59084819Y-75119523D02*
X59132438Y-74976666D01*
X59132438Y-74976666D02*
X59227676Y-74881428D01*
X59227676Y-74881428D02*
X59322914Y-74833809D01*
X59322914Y-74833809D02*
X59513390Y-74786190D01*
X59513390Y-74786190D02*
X59656247Y-74786190D01*
X59656247Y-74786190D02*
X59846723Y-74833809D01*
X59846723Y-74833809D02*
X59941961Y-74881428D01*
X59941961Y-74881428D02*
X60037200Y-74976666D01*
X60037200Y-74976666D02*
X60084819Y-75119523D01*
X60084819Y-75119523D02*
X60084819Y-75357618D01*
X60084819Y-74214761D02*
X60037200Y-74309999D01*
X60037200Y-74309999D02*
X59989580Y-74357618D01*
X59989580Y-74357618D02*
X59894342Y-74405237D01*
X59894342Y-74405237D02*
X59608628Y-74405237D01*
X59608628Y-74405237D02*
X59513390Y-74357618D01*
X59513390Y-74357618D02*
X59465771Y-74309999D01*
X59465771Y-74309999D02*
X59418152Y-74214761D01*
X59418152Y-74214761D02*
X59418152Y-74071904D01*
X59418152Y-74071904D02*
X59465771Y-73976666D01*
X59465771Y-73976666D02*
X59513390Y-73929047D01*
X59513390Y-73929047D02*
X59608628Y-73881428D01*
X59608628Y-73881428D02*
X59894342Y-73881428D01*
X59894342Y-73881428D02*
X59989580Y-73929047D01*
X59989580Y-73929047D02*
X60037200Y-73976666D01*
X60037200Y-73976666D02*
X60084819Y-74071904D01*
X60084819Y-74071904D02*
X60084819Y-74214761D01*
X59418152Y-73548094D02*
X60084819Y-73357618D01*
X60084819Y-73357618D02*
X59608628Y-73167142D01*
X59608628Y-73167142D02*
X60084819Y-72976666D01*
X60084819Y-72976666D02*
X59418152Y-72786190D01*
X59418152Y-72405237D02*
X60084819Y-72405237D01*
X59513390Y-72405237D02*
X59465771Y-72357618D01*
X59465771Y-72357618D02*
X59418152Y-72262380D01*
X59418152Y-72262380D02*
X59418152Y-72119523D01*
X59418152Y-72119523D02*
X59465771Y-72024285D01*
X59465771Y-72024285D02*
X59561009Y-71976666D01*
X59561009Y-71976666D02*
X60084819Y-71976666D01*
X59180057Y-71548094D02*
X59132438Y-71500475D01*
X59132438Y-71500475D02*
X59084819Y-71405237D01*
X59084819Y-71405237D02*
X59084819Y-71167142D01*
X59084819Y-71167142D02*
X59132438Y-71071904D01*
X59132438Y-71071904D02*
X59180057Y-71024285D01*
X59180057Y-71024285D02*
X59275295Y-70976666D01*
X59275295Y-70976666D02*
X59370533Y-70976666D01*
X59370533Y-70976666D02*
X59513390Y-71024285D01*
X59513390Y-71024285D02*
X60084819Y-71595713D01*
X60084819Y-71595713D02*
X60084819Y-70976666D01*
X60180057Y-70786190D02*
X60180057Y-70024285D01*
X60084819Y-69262380D02*
X60084819Y-69833808D01*
X60084819Y-69548094D02*
X59084819Y-69548094D01*
X59084819Y-69548094D02*
X59227676Y-69643332D01*
X59227676Y-69643332D02*
X59322914Y-69738570D01*
X59322914Y-69738570D02*
X59370533Y-69833808D01*
X95604819Y-119428571D02*
X96604819Y-119095238D01*
X96604819Y-119095238D02*
X95604819Y-118761905D01*
X96223866Y-118428571D02*
X96223866Y-117666667D01*
X96604819Y-117047619D02*
X96557200Y-117142857D01*
X96557200Y-117142857D02*
X96461961Y-117190476D01*
X96461961Y-117190476D02*
X95604819Y-117190476D01*
X96557200Y-116285714D02*
X96604819Y-116380952D01*
X96604819Y-116380952D02*
X96604819Y-116571428D01*
X96604819Y-116571428D02*
X96557200Y-116666666D01*
X96557200Y-116666666D02*
X96461961Y-116714285D01*
X96461961Y-116714285D02*
X96081009Y-116714285D01*
X96081009Y-116714285D02*
X95985771Y-116666666D01*
X95985771Y-116666666D02*
X95938152Y-116571428D01*
X95938152Y-116571428D02*
X95938152Y-116380952D01*
X95938152Y-116380952D02*
X95985771Y-116285714D01*
X95985771Y-116285714D02*
X96081009Y-116238095D01*
X96081009Y-116238095D02*
X96176247Y-116238095D01*
X96176247Y-116238095D02*
X96271485Y-116714285D01*
X96604819Y-115380952D02*
X95604819Y-115380952D01*
X96557200Y-115380952D02*
X96604819Y-115476190D01*
X96604819Y-115476190D02*
X96604819Y-115666666D01*
X96604819Y-115666666D02*
X96557200Y-115761904D01*
X96557200Y-115761904D02*
X96509580Y-115809523D01*
X96509580Y-115809523D02*
X96414342Y-115857142D01*
X96414342Y-115857142D02*
X96128628Y-115857142D01*
X96128628Y-115857142D02*
X96033390Y-115809523D01*
X96033390Y-115809523D02*
X95985771Y-115761904D01*
X95985771Y-115761904D02*
X95938152Y-115666666D01*
X95938152Y-115666666D02*
X95938152Y-115476190D01*
X95938152Y-115476190D02*
X95985771Y-115380952D01*
X96604819Y-114380952D02*
X96604819Y-114952380D01*
X96604819Y-114666666D02*
X95604819Y-114666666D01*
X95604819Y-114666666D02*
X95747676Y-114761904D01*
X95747676Y-114761904D02*
X95842914Y-114857142D01*
X95842914Y-114857142D02*
X95890533Y-114952380D01*
X96700057Y-114190476D02*
X96700057Y-113428571D01*
X95604819Y-113285713D02*
X95604819Y-112666666D01*
X95604819Y-112666666D02*
X95985771Y-112999999D01*
X95985771Y-112999999D02*
X95985771Y-112857142D01*
X95985771Y-112857142D02*
X96033390Y-112761904D01*
X96033390Y-112761904D02*
X96081009Y-112714285D01*
X96081009Y-112714285D02*
X96176247Y-112666666D01*
X96176247Y-112666666D02*
X96414342Y-112666666D01*
X96414342Y-112666666D02*
X96509580Y-112714285D01*
X96509580Y-112714285D02*
X96557200Y-112761904D01*
X96557200Y-112761904D02*
X96604819Y-112857142D01*
X96604819Y-112857142D02*
X96604819Y-113142856D01*
X96604819Y-113142856D02*
X96557200Y-113238094D01*
X96557200Y-113238094D02*
X96509580Y-113285713D01*
X73304819Y-110428571D02*
X74304819Y-110095238D01*
X74304819Y-110095238D02*
X73304819Y-109761905D01*
X73923866Y-109428571D02*
X73923866Y-108666667D01*
X74304819Y-109047619D02*
X73542914Y-109047619D01*
X74304819Y-108047619D02*
X74257200Y-108142857D01*
X74257200Y-108142857D02*
X74161961Y-108190476D01*
X74161961Y-108190476D02*
X73304819Y-108190476D01*
X74257200Y-107285714D02*
X74304819Y-107380952D01*
X74304819Y-107380952D02*
X74304819Y-107571428D01*
X74304819Y-107571428D02*
X74257200Y-107666666D01*
X74257200Y-107666666D02*
X74161961Y-107714285D01*
X74161961Y-107714285D02*
X73781009Y-107714285D01*
X73781009Y-107714285D02*
X73685771Y-107666666D01*
X73685771Y-107666666D02*
X73638152Y-107571428D01*
X73638152Y-107571428D02*
X73638152Y-107380952D01*
X73638152Y-107380952D02*
X73685771Y-107285714D01*
X73685771Y-107285714D02*
X73781009Y-107238095D01*
X73781009Y-107238095D02*
X73876247Y-107238095D01*
X73876247Y-107238095D02*
X73971485Y-107714285D01*
X74304819Y-106380952D02*
X73304819Y-106380952D01*
X74257200Y-106380952D02*
X74304819Y-106476190D01*
X74304819Y-106476190D02*
X74304819Y-106666666D01*
X74304819Y-106666666D02*
X74257200Y-106761904D01*
X74257200Y-106761904D02*
X74209580Y-106809523D01*
X74209580Y-106809523D02*
X74114342Y-106857142D01*
X74114342Y-106857142D02*
X73828628Y-106857142D01*
X73828628Y-106857142D02*
X73733390Y-106809523D01*
X73733390Y-106809523D02*
X73685771Y-106761904D01*
X73685771Y-106761904D02*
X73638152Y-106666666D01*
X73638152Y-106666666D02*
X73638152Y-106476190D01*
X73638152Y-106476190D02*
X73685771Y-106380952D01*
X73400057Y-105952380D02*
X73352438Y-105904761D01*
X73352438Y-105904761D02*
X73304819Y-105809523D01*
X73304819Y-105809523D02*
X73304819Y-105571428D01*
X73304819Y-105571428D02*
X73352438Y-105476190D01*
X73352438Y-105476190D02*
X73400057Y-105428571D01*
X73400057Y-105428571D02*
X73495295Y-105380952D01*
X73495295Y-105380952D02*
X73590533Y-105380952D01*
X73590533Y-105380952D02*
X73733390Y-105428571D01*
X73733390Y-105428571D02*
X74304819Y-105999999D01*
X74304819Y-105999999D02*
X74304819Y-105380952D01*
X74400057Y-105190476D02*
X74400057Y-104428571D01*
X73304819Y-104285713D02*
X73304819Y-103666666D01*
X73304819Y-103666666D02*
X73685771Y-103999999D01*
X73685771Y-103999999D02*
X73685771Y-103857142D01*
X73685771Y-103857142D02*
X73733390Y-103761904D01*
X73733390Y-103761904D02*
X73781009Y-103714285D01*
X73781009Y-103714285D02*
X73876247Y-103666666D01*
X73876247Y-103666666D02*
X74114342Y-103666666D01*
X74114342Y-103666666D02*
X74209580Y-103714285D01*
X74209580Y-103714285D02*
X74257200Y-103761904D01*
X74257200Y-103761904D02*
X74304819Y-103857142D01*
X74304819Y-103857142D02*
X74304819Y-104142856D01*
X74304819Y-104142856D02*
X74257200Y-104238094D01*
X74257200Y-104238094D02*
X74209580Y-104285713D01*
X73304819Y-73428571D02*
X74304819Y-73095238D01*
X74304819Y-73095238D02*
X73304819Y-72761905D01*
X73923866Y-72428571D02*
X73923866Y-71666667D01*
X74304819Y-72047619D02*
X73542914Y-72047619D01*
X74304819Y-71047619D02*
X74257200Y-71142857D01*
X74257200Y-71142857D02*
X74161961Y-71190476D01*
X74161961Y-71190476D02*
X73304819Y-71190476D01*
X74257200Y-70285714D02*
X74304819Y-70380952D01*
X74304819Y-70380952D02*
X74304819Y-70571428D01*
X74304819Y-70571428D02*
X74257200Y-70666666D01*
X74257200Y-70666666D02*
X74161961Y-70714285D01*
X74161961Y-70714285D02*
X73781009Y-70714285D01*
X73781009Y-70714285D02*
X73685771Y-70666666D01*
X73685771Y-70666666D02*
X73638152Y-70571428D01*
X73638152Y-70571428D02*
X73638152Y-70380952D01*
X73638152Y-70380952D02*
X73685771Y-70285714D01*
X73685771Y-70285714D02*
X73781009Y-70238095D01*
X73781009Y-70238095D02*
X73876247Y-70238095D01*
X73876247Y-70238095D02*
X73971485Y-70714285D01*
X74304819Y-69380952D02*
X73304819Y-69380952D01*
X74257200Y-69380952D02*
X74304819Y-69476190D01*
X74304819Y-69476190D02*
X74304819Y-69666666D01*
X74304819Y-69666666D02*
X74257200Y-69761904D01*
X74257200Y-69761904D02*
X74209580Y-69809523D01*
X74209580Y-69809523D02*
X74114342Y-69857142D01*
X74114342Y-69857142D02*
X73828628Y-69857142D01*
X73828628Y-69857142D02*
X73733390Y-69809523D01*
X73733390Y-69809523D02*
X73685771Y-69761904D01*
X73685771Y-69761904D02*
X73638152Y-69666666D01*
X73638152Y-69666666D02*
X73638152Y-69476190D01*
X73638152Y-69476190D02*
X73685771Y-69380952D01*
X73400057Y-68952380D02*
X73352438Y-68904761D01*
X73352438Y-68904761D02*
X73304819Y-68809523D01*
X73304819Y-68809523D02*
X73304819Y-68571428D01*
X73304819Y-68571428D02*
X73352438Y-68476190D01*
X73352438Y-68476190D02*
X73400057Y-68428571D01*
X73400057Y-68428571D02*
X73495295Y-68380952D01*
X73495295Y-68380952D02*
X73590533Y-68380952D01*
X73590533Y-68380952D02*
X73733390Y-68428571D01*
X73733390Y-68428571D02*
X74304819Y-68999999D01*
X74304819Y-68999999D02*
X74304819Y-68380952D01*
X74400057Y-68190476D02*
X74400057Y-67428571D01*
X74304819Y-66666666D02*
X74304819Y-67238094D01*
X74304819Y-66952380D02*
X73304819Y-66952380D01*
X73304819Y-66952380D02*
X73447676Y-67047618D01*
X73447676Y-67047618D02*
X73542914Y-67142856D01*
X73542914Y-67142856D02*
X73590533Y-67238094D01*
X106724819Y-93182856D02*
X105724819Y-93182856D01*
X105724819Y-93182856D02*
X106724819Y-92611428D01*
X106724819Y-92611428D02*
X105724819Y-92611428D01*
X106724819Y-92135237D02*
X105724819Y-92135237D01*
X105724819Y-92135237D02*
X105724819Y-91754285D01*
X105724819Y-91754285D02*
X105772438Y-91659047D01*
X105772438Y-91659047D02*
X105820057Y-91611428D01*
X105820057Y-91611428D02*
X105915295Y-91563809D01*
X105915295Y-91563809D02*
X106058152Y-91563809D01*
X106058152Y-91563809D02*
X106153390Y-91611428D01*
X106153390Y-91611428D02*
X106201009Y-91659047D01*
X106201009Y-91659047D02*
X106248628Y-91754285D01*
X106248628Y-91754285D02*
X106248628Y-92135237D01*
X106724819Y-91135237D02*
X105724819Y-91135237D01*
X105724819Y-91135237D02*
X106724819Y-90563809D01*
X106724819Y-90563809D02*
X105724819Y-90563809D01*
X106724819Y-89563809D02*
X106724819Y-90135237D01*
X106724819Y-89849523D02*
X105724819Y-89849523D01*
X105724819Y-89849523D02*
X105867676Y-89944761D01*
X105867676Y-89944761D02*
X105962914Y-90039999D01*
X105962914Y-90039999D02*
X106010533Y-90135237D01*
X106820057Y-89373333D02*
X106820057Y-88611428D01*
X105820057Y-88420951D02*
X105772438Y-88373332D01*
X105772438Y-88373332D02*
X105724819Y-88278094D01*
X105724819Y-88278094D02*
X105724819Y-88039999D01*
X105724819Y-88039999D02*
X105772438Y-87944761D01*
X105772438Y-87944761D02*
X105820057Y-87897142D01*
X105820057Y-87897142D02*
X105915295Y-87849523D01*
X105915295Y-87849523D02*
X106010533Y-87849523D01*
X106010533Y-87849523D02*
X106153390Y-87897142D01*
X106153390Y-87897142D02*
X106724819Y-88468570D01*
X106724819Y-88468570D02*
X106724819Y-87849523D01*
X60084819Y-157500000D02*
X59084819Y-157500000D01*
X59084819Y-157500000D02*
X59084819Y-157119048D01*
X59084819Y-157119048D02*
X59132438Y-157023810D01*
X59132438Y-157023810D02*
X59180057Y-156976191D01*
X59180057Y-156976191D02*
X59275295Y-156928572D01*
X59275295Y-156928572D02*
X59418152Y-156928572D01*
X59418152Y-156928572D02*
X59513390Y-156976191D01*
X59513390Y-156976191D02*
X59561009Y-157023810D01*
X59561009Y-157023810D02*
X59608628Y-157119048D01*
X59608628Y-157119048D02*
X59608628Y-157500000D01*
X59418152Y-156071429D02*
X60084819Y-156071429D01*
X59418152Y-156500000D02*
X59941961Y-156500000D01*
X59941961Y-156500000D02*
X60037200Y-156452381D01*
X60037200Y-156452381D02*
X60084819Y-156357143D01*
X60084819Y-156357143D02*
X60084819Y-156214286D01*
X60084819Y-156214286D02*
X60037200Y-156119048D01*
X60037200Y-156119048D02*
X59989580Y-156071429D01*
X60084819Y-155452381D02*
X60037200Y-155547619D01*
X60037200Y-155547619D02*
X59941961Y-155595238D01*
X59941961Y-155595238D02*
X59084819Y-155595238D01*
X60084819Y-154928571D02*
X60037200Y-155023809D01*
X60037200Y-155023809D02*
X59941961Y-155071428D01*
X59941961Y-155071428D02*
X59084819Y-155071428D01*
X60084819Y-154547618D02*
X59084819Y-154547618D01*
X59084819Y-154547618D02*
X59084819Y-154309523D01*
X59084819Y-154309523D02*
X59132438Y-154166666D01*
X59132438Y-154166666D02*
X59227676Y-154071428D01*
X59227676Y-154071428D02*
X59322914Y-154023809D01*
X59322914Y-154023809D02*
X59513390Y-153976190D01*
X59513390Y-153976190D02*
X59656247Y-153976190D01*
X59656247Y-153976190D02*
X59846723Y-154023809D01*
X59846723Y-154023809D02*
X59941961Y-154071428D01*
X59941961Y-154071428D02*
X60037200Y-154166666D01*
X60037200Y-154166666D02*
X60084819Y-154309523D01*
X60084819Y-154309523D02*
X60084819Y-154547618D01*
X60084819Y-153404761D02*
X60037200Y-153499999D01*
X60037200Y-153499999D02*
X59989580Y-153547618D01*
X59989580Y-153547618D02*
X59894342Y-153595237D01*
X59894342Y-153595237D02*
X59608628Y-153595237D01*
X59608628Y-153595237D02*
X59513390Y-153547618D01*
X59513390Y-153547618D02*
X59465771Y-153499999D01*
X59465771Y-153499999D02*
X59418152Y-153404761D01*
X59418152Y-153404761D02*
X59418152Y-153261904D01*
X59418152Y-153261904D02*
X59465771Y-153166666D01*
X59465771Y-153166666D02*
X59513390Y-153119047D01*
X59513390Y-153119047D02*
X59608628Y-153071428D01*
X59608628Y-153071428D02*
X59894342Y-153071428D01*
X59894342Y-153071428D02*
X59989580Y-153119047D01*
X59989580Y-153119047D02*
X60037200Y-153166666D01*
X60037200Y-153166666D02*
X60084819Y-153261904D01*
X60084819Y-153261904D02*
X60084819Y-153404761D01*
X59418152Y-152738094D02*
X60084819Y-152547618D01*
X60084819Y-152547618D02*
X59608628Y-152357142D01*
X59608628Y-152357142D02*
X60084819Y-152166666D01*
X60084819Y-152166666D02*
X59418152Y-151976190D01*
X59418152Y-151595237D02*
X60084819Y-151595237D01*
X59513390Y-151595237D02*
X59465771Y-151547618D01*
X59465771Y-151547618D02*
X59418152Y-151452380D01*
X59418152Y-151452380D02*
X59418152Y-151309523D01*
X59418152Y-151309523D02*
X59465771Y-151214285D01*
X59465771Y-151214285D02*
X59561009Y-151166666D01*
X59561009Y-151166666D02*
X60084819Y-151166666D01*
X59180057Y-150738094D02*
X59132438Y-150690475D01*
X59132438Y-150690475D02*
X59084819Y-150595237D01*
X59084819Y-150595237D02*
X59084819Y-150357142D01*
X59084819Y-150357142D02*
X59132438Y-150261904D01*
X59132438Y-150261904D02*
X59180057Y-150214285D01*
X59180057Y-150214285D02*
X59275295Y-150166666D01*
X59275295Y-150166666D02*
X59370533Y-150166666D01*
X59370533Y-150166666D02*
X59513390Y-150214285D01*
X59513390Y-150214285D02*
X60084819Y-150785713D01*
X60084819Y-150785713D02*
X60084819Y-150166666D01*
X60180057Y-149976190D02*
X60180057Y-149214285D01*
X59084819Y-148499999D02*
X59084819Y-148976189D01*
X59084819Y-148976189D02*
X59561009Y-149023808D01*
X59561009Y-149023808D02*
X59513390Y-148976189D01*
X59513390Y-148976189D02*
X59465771Y-148880951D01*
X59465771Y-148880951D02*
X59465771Y-148642856D01*
X59465771Y-148642856D02*
X59513390Y-148547618D01*
X59513390Y-148547618D02*
X59561009Y-148499999D01*
X59561009Y-148499999D02*
X59656247Y-148452380D01*
X59656247Y-148452380D02*
X59894342Y-148452380D01*
X59894342Y-148452380D02*
X59989580Y-148499999D01*
X59989580Y-148499999D02*
X60037200Y-148547618D01*
X60037200Y-148547618D02*
X60084819Y-148642856D01*
X60084819Y-148642856D02*
X60084819Y-148880951D01*
X60084819Y-148880951D02*
X60037200Y-148976189D01*
X60037200Y-148976189D02*
X59989580Y-149023808D01*
X114824819Y-79500000D02*
X113824819Y-79500000D01*
X113824819Y-79500000D02*
X113824819Y-79119048D01*
X113824819Y-79119048D02*
X113872438Y-79023810D01*
X113872438Y-79023810D02*
X113920057Y-78976191D01*
X113920057Y-78976191D02*
X114015295Y-78928572D01*
X114015295Y-78928572D02*
X114158152Y-78928572D01*
X114158152Y-78928572D02*
X114253390Y-78976191D01*
X114253390Y-78976191D02*
X114301009Y-79023810D01*
X114301009Y-79023810D02*
X114348628Y-79119048D01*
X114348628Y-79119048D02*
X114348628Y-79500000D01*
X114158152Y-78071429D02*
X114824819Y-78071429D01*
X114158152Y-78500000D02*
X114681961Y-78500000D01*
X114681961Y-78500000D02*
X114777200Y-78452381D01*
X114777200Y-78452381D02*
X114824819Y-78357143D01*
X114824819Y-78357143D02*
X114824819Y-78214286D01*
X114824819Y-78214286D02*
X114777200Y-78119048D01*
X114777200Y-78119048D02*
X114729580Y-78071429D01*
X114824819Y-77452381D02*
X114777200Y-77547619D01*
X114777200Y-77547619D02*
X114681961Y-77595238D01*
X114681961Y-77595238D02*
X113824819Y-77595238D01*
X114824819Y-76928571D02*
X114777200Y-77023809D01*
X114777200Y-77023809D02*
X114681961Y-77071428D01*
X114681961Y-77071428D02*
X113824819Y-77071428D01*
X114824819Y-76547618D02*
X113824819Y-76547618D01*
X113824819Y-76547618D02*
X113824819Y-76309523D01*
X113824819Y-76309523D02*
X113872438Y-76166666D01*
X113872438Y-76166666D02*
X113967676Y-76071428D01*
X113967676Y-76071428D02*
X114062914Y-76023809D01*
X114062914Y-76023809D02*
X114253390Y-75976190D01*
X114253390Y-75976190D02*
X114396247Y-75976190D01*
X114396247Y-75976190D02*
X114586723Y-76023809D01*
X114586723Y-76023809D02*
X114681961Y-76071428D01*
X114681961Y-76071428D02*
X114777200Y-76166666D01*
X114777200Y-76166666D02*
X114824819Y-76309523D01*
X114824819Y-76309523D02*
X114824819Y-76547618D01*
X114824819Y-75404761D02*
X114777200Y-75499999D01*
X114777200Y-75499999D02*
X114729580Y-75547618D01*
X114729580Y-75547618D02*
X114634342Y-75595237D01*
X114634342Y-75595237D02*
X114348628Y-75595237D01*
X114348628Y-75595237D02*
X114253390Y-75547618D01*
X114253390Y-75547618D02*
X114205771Y-75499999D01*
X114205771Y-75499999D02*
X114158152Y-75404761D01*
X114158152Y-75404761D02*
X114158152Y-75261904D01*
X114158152Y-75261904D02*
X114205771Y-75166666D01*
X114205771Y-75166666D02*
X114253390Y-75119047D01*
X114253390Y-75119047D02*
X114348628Y-75071428D01*
X114348628Y-75071428D02*
X114634342Y-75071428D01*
X114634342Y-75071428D02*
X114729580Y-75119047D01*
X114729580Y-75119047D02*
X114777200Y-75166666D01*
X114777200Y-75166666D02*
X114824819Y-75261904D01*
X114824819Y-75261904D02*
X114824819Y-75404761D01*
X114158152Y-74738094D02*
X114824819Y-74547618D01*
X114824819Y-74547618D02*
X114348628Y-74357142D01*
X114348628Y-74357142D02*
X114824819Y-74166666D01*
X114824819Y-74166666D02*
X114158152Y-73976190D01*
X114158152Y-73595237D02*
X114824819Y-73595237D01*
X114253390Y-73595237D02*
X114205771Y-73547618D01*
X114205771Y-73547618D02*
X114158152Y-73452380D01*
X114158152Y-73452380D02*
X114158152Y-73309523D01*
X114158152Y-73309523D02*
X114205771Y-73214285D01*
X114205771Y-73214285D02*
X114301009Y-73166666D01*
X114301009Y-73166666D02*
X114824819Y-73166666D01*
X114824819Y-72166666D02*
X114824819Y-72738094D01*
X114824819Y-72452380D02*
X113824819Y-72452380D01*
X113824819Y-72452380D02*
X113967676Y-72547618D01*
X113967676Y-72547618D02*
X114062914Y-72642856D01*
X114062914Y-72642856D02*
X114110533Y-72738094D01*
X114920057Y-71976190D02*
X114920057Y-71214285D01*
X114824819Y-70452380D02*
X114824819Y-71023808D01*
X114824819Y-70738094D02*
X113824819Y-70738094D01*
X113824819Y-70738094D02*
X113967676Y-70833332D01*
X113967676Y-70833332D02*
X114062914Y-70928570D01*
X114062914Y-70928570D02*
X114110533Y-71023808D01*
X55833332Y-47494819D02*
X56166665Y-48494819D01*
X56166665Y-48494819D02*
X56499998Y-47494819D01*
X56833332Y-48113866D02*
X57595237Y-48113866D01*
X57833332Y-48590057D02*
X58595236Y-48590057D01*
X58690475Y-47828152D02*
X59071427Y-47828152D01*
X58833332Y-47494819D02*
X58833332Y-48351961D01*
X58833332Y-48351961D02*
X58880951Y-48447200D01*
X58880951Y-48447200D02*
X58976189Y-48494819D01*
X58976189Y-48494819D02*
X59071427Y-48494819D01*
X59404761Y-48494819D02*
X59404761Y-47828152D01*
X59404761Y-48018628D02*
X59452380Y-47923390D01*
X59452380Y-47923390D02*
X59499999Y-47875771D01*
X59499999Y-47875771D02*
X59595237Y-47828152D01*
X59595237Y-47828152D02*
X59690475Y-47828152D01*
X60452380Y-48494819D02*
X60452380Y-47971009D01*
X60452380Y-47971009D02*
X60404761Y-47875771D01*
X60404761Y-47875771D02*
X60309523Y-47828152D01*
X60309523Y-47828152D02*
X60119047Y-47828152D01*
X60119047Y-47828152D02*
X60023809Y-47875771D01*
X60452380Y-48447200D02*
X60357142Y-48494819D01*
X60357142Y-48494819D02*
X60119047Y-48494819D01*
X60119047Y-48494819D02*
X60023809Y-48447200D01*
X60023809Y-48447200D02*
X59976190Y-48351961D01*
X59976190Y-48351961D02*
X59976190Y-48256723D01*
X59976190Y-48256723D02*
X60023809Y-48161485D01*
X60023809Y-48161485D02*
X60119047Y-48113866D01*
X60119047Y-48113866D02*
X60357142Y-48113866D01*
X60357142Y-48113866D02*
X60452380Y-48066247D01*
X60928571Y-47828152D02*
X60928571Y-48494819D01*
X60928571Y-47923390D02*
X60976190Y-47875771D01*
X60976190Y-47875771D02*
X61071428Y-47828152D01*
X61071428Y-47828152D02*
X61214285Y-47828152D01*
X61214285Y-47828152D02*
X61309523Y-47875771D01*
X61309523Y-47875771D02*
X61357142Y-47971009D01*
X61357142Y-47971009D02*
X61357142Y-48494819D01*
X61785714Y-48447200D02*
X61880952Y-48494819D01*
X61880952Y-48494819D02*
X62071428Y-48494819D01*
X62071428Y-48494819D02*
X62166666Y-48447200D01*
X62166666Y-48447200D02*
X62214285Y-48351961D01*
X62214285Y-48351961D02*
X62214285Y-48304342D01*
X62214285Y-48304342D02*
X62166666Y-48209104D01*
X62166666Y-48209104D02*
X62071428Y-48161485D01*
X62071428Y-48161485D02*
X61928571Y-48161485D01*
X61928571Y-48161485D02*
X61833333Y-48113866D01*
X61833333Y-48113866D02*
X61785714Y-48018628D01*
X61785714Y-48018628D02*
X61785714Y-47971009D01*
X61785714Y-47971009D02*
X61833333Y-47875771D01*
X61833333Y-47875771D02*
X61928571Y-47828152D01*
X61928571Y-47828152D02*
X62071428Y-47828152D01*
X62071428Y-47828152D02*
X62166666Y-47875771D01*
X62500000Y-47828152D02*
X62880952Y-47828152D01*
X62642857Y-48494819D02*
X62642857Y-47637676D01*
X62642857Y-47637676D02*
X62690476Y-47542438D01*
X62690476Y-47542438D02*
X62785714Y-47494819D01*
X62785714Y-47494819D02*
X62880952Y-47494819D01*
X63357143Y-48494819D02*
X63261905Y-48447200D01*
X63261905Y-48447200D02*
X63214286Y-48399580D01*
X63214286Y-48399580D02*
X63166667Y-48304342D01*
X63166667Y-48304342D02*
X63166667Y-48018628D01*
X63166667Y-48018628D02*
X63214286Y-47923390D01*
X63214286Y-47923390D02*
X63261905Y-47875771D01*
X63261905Y-47875771D02*
X63357143Y-47828152D01*
X63357143Y-47828152D02*
X63500000Y-47828152D01*
X63500000Y-47828152D02*
X63595238Y-47875771D01*
X63595238Y-47875771D02*
X63642857Y-47923390D01*
X63642857Y-47923390D02*
X63690476Y-48018628D01*
X63690476Y-48018628D02*
X63690476Y-48304342D01*
X63690476Y-48304342D02*
X63642857Y-48399580D01*
X63642857Y-48399580D02*
X63595238Y-48447200D01*
X63595238Y-48447200D02*
X63500000Y-48494819D01*
X63500000Y-48494819D02*
X63357143Y-48494819D01*
X64119048Y-48494819D02*
X64119048Y-47828152D01*
X64119048Y-48018628D02*
X64166667Y-47923390D01*
X64166667Y-47923390D02*
X64214286Y-47875771D01*
X64214286Y-47875771D02*
X64309524Y-47828152D01*
X64309524Y-47828152D02*
X64404762Y-47828152D01*
X64738096Y-48494819D02*
X64738096Y-47828152D01*
X64738096Y-47923390D02*
X64785715Y-47875771D01*
X64785715Y-47875771D02*
X64880953Y-47828152D01*
X64880953Y-47828152D02*
X65023810Y-47828152D01*
X65023810Y-47828152D02*
X65119048Y-47875771D01*
X65119048Y-47875771D02*
X65166667Y-47971009D01*
X65166667Y-47971009D02*
X65166667Y-48494819D01*
X65166667Y-47971009D02*
X65214286Y-47875771D01*
X65214286Y-47875771D02*
X65309524Y-47828152D01*
X65309524Y-47828152D02*
X65452381Y-47828152D01*
X65452381Y-47828152D02*
X65547620Y-47875771D01*
X65547620Y-47875771D02*
X65595239Y-47971009D01*
X65595239Y-47971009D02*
X65595239Y-48494819D01*
X66452381Y-48447200D02*
X66357143Y-48494819D01*
X66357143Y-48494819D02*
X66166667Y-48494819D01*
X66166667Y-48494819D02*
X66071429Y-48447200D01*
X66071429Y-48447200D02*
X66023810Y-48351961D01*
X66023810Y-48351961D02*
X66023810Y-47971009D01*
X66023810Y-47971009D02*
X66071429Y-47875771D01*
X66071429Y-47875771D02*
X66166667Y-47828152D01*
X66166667Y-47828152D02*
X66357143Y-47828152D01*
X66357143Y-47828152D02*
X66452381Y-47875771D01*
X66452381Y-47875771D02*
X66500000Y-47971009D01*
X66500000Y-47971009D02*
X66500000Y-48066247D01*
X66500000Y-48066247D02*
X66023810Y-48161485D01*
X66928572Y-48494819D02*
X66928572Y-47828152D01*
X66928572Y-48018628D02*
X66976191Y-47923390D01*
X66976191Y-47923390D02*
X67023810Y-47875771D01*
X67023810Y-47875771D02*
X67119048Y-47828152D01*
X67119048Y-47828152D02*
X67214286Y-47828152D01*
X68071429Y-48494819D02*
X67500001Y-48494819D01*
X67785715Y-48494819D02*
X67785715Y-47494819D01*
X67785715Y-47494819D02*
X67690477Y-47637676D01*
X67690477Y-47637676D02*
X67595239Y-47732914D01*
X67595239Y-47732914D02*
X67500001Y-47780533D01*
X106724819Y-76642856D02*
X105724819Y-76642856D01*
X105724819Y-76642856D02*
X106724819Y-76071428D01*
X106724819Y-76071428D02*
X105724819Y-76071428D01*
X106724819Y-75595237D02*
X105724819Y-75595237D01*
X105724819Y-75595237D02*
X105724819Y-75214285D01*
X105724819Y-75214285D02*
X105772438Y-75119047D01*
X105772438Y-75119047D02*
X105820057Y-75071428D01*
X105820057Y-75071428D02*
X105915295Y-75023809D01*
X105915295Y-75023809D02*
X106058152Y-75023809D01*
X106058152Y-75023809D02*
X106153390Y-75071428D01*
X106153390Y-75071428D02*
X106201009Y-75119047D01*
X106201009Y-75119047D02*
X106248628Y-75214285D01*
X106248628Y-75214285D02*
X106248628Y-75595237D01*
X106724819Y-74595237D02*
X105724819Y-74595237D01*
X105724819Y-74595237D02*
X106724819Y-74023809D01*
X106724819Y-74023809D02*
X105724819Y-74023809D01*
X106724819Y-73023809D02*
X106724819Y-73595237D01*
X106724819Y-73309523D02*
X105724819Y-73309523D01*
X105724819Y-73309523D02*
X105867676Y-73404761D01*
X105867676Y-73404761D02*
X105962914Y-73499999D01*
X105962914Y-73499999D02*
X106010533Y-73595237D01*
X106820057Y-72833333D02*
X106820057Y-72071428D01*
X106724819Y-71309523D02*
X106724819Y-71880951D01*
X106724819Y-71595237D02*
X105724819Y-71595237D01*
X105724819Y-71595237D02*
X105867676Y-71690475D01*
X105867676Y-71690475D02*
X105962914Y-71785713D01*
X105962914Y-71785713D02*
X106010533Y-71880951D01*
X95604819Y-90428571D02*
X96604819Y-90095238D01*
X96604819Y-90095238D02*
X95604819Y-89761905D01*
X96223866Y-89428571D02*
X96223866Y-88666667D01*
X96604819Y-89047619D02*
X95842914Y-89047619D01*
X96604819Y-88047619D02*
X96557200Y-88142857D01*
X96557200Y-88142857D02*
X96461961Y-88190476D01*
X96461961Y-88190476D02*
X95604819Y-88190476D01*
X96557200Y-87285714D02*
X96604819Y-87380952D01*
X96604819Y-87380952D02*
X96604819Y-87571428D01*
X96604819Y-87571428D02*
X96557200Y-87666666D01*
X96557200Y-87666666D02*
X96461961Y-87714285D01*
X96461961Y-87714285D02*
X96081009Y-87714285D01*
X96081009Y-87714285D02*
X95985771Y-87666666D01*
X95985771Y-87666666D02*
X95938152Y-87571428D01*
X95938152Y-87571428D02*
X95938152Y-87380952D01*
X95938152Y-87380952D02*
X95985771Y-87285714D01*
X95985771Y-87285714D02*
X96081009Y-87238095D01*
X96081009Y-87238095D02*
X96176247Y-87238095D01*
X96176247Y-87238095D02*
X96271485Y-87714285D01*
X96604819Y-86380952D02*
X95604819Y-86380952D01*
X96557200Y-86380952D02*
X96604819Y-86476190D01*
X96604819Y-86476190D02*
X96604819Y-86666666D01*
X96604819Y-86666666D02*
X96557200Y-86761904D01*
X96557200Y-86761904D02*
X96509580Y-86809523D01*
X96509580Y-86809523D02*
X96414342Y-86857142D01*
X96414342Y-86857142D02*
X96128628Y-86857142D01*
X96128628Y-86857142D02*
X96033390Y-86809523D01*
X96033390Y-86809523D02*
X95985771Y-86761904D01*
X95985771Y-86761904D02*
X95938152Y-86666666D01*
X95938152Y-86666666D02*
X95938152Y-86476190D01*
X95938152Y-86476190D02*
X95985771Y-86380952D01*
X96604819Y-85380952D02*
X96604819Y-85952380D01*
X96604819Y-85666666D02*
X95604819Y-85666666D01*
X95604819Y-85666666D02*
X95747676Y-85761904D01*
X95747676Y-85761904D02*
X95842914Y-85857142D01*
X95842914Y-85857142D02*
X95890533Y-85952380D01*
X96700057Y-85190476D02*
X96700057Y-84428571D01*
X95700057Y-84238094D02*
X95652438Y-84190475D01*
X95652438Y-84190475D02*
X95604819Y-84095237D01*
X95604819Y-84095237D02*
X95604819Y-83857142D01*
X95604819Y-83857142D02*
X95652438Y-83761904D01*
X95652438Y-83761904D02*
X95700057Y-83714285D01*
X95700057Y-83714285D02*
X95795295Y-83666666D01*
X95795295Y-83666666D02*
X95890533Y-83666666D01*
X95890533Y-83666666D02*
X96033390Y-83714285D01*
X96033390Y-83714285D02*
X96604819Y-84285713D01*
X96604819Y-84285713D02*
X96604819Y-83666666D01*
X106724819Y-114912856D02*
X105724819Y-114912856D01*
X105724819Y-114912856D02*
X106724819Y-114341428D01*
X106724819Y-114341428D02*
X105724819Y-114341428D01*
X106724819Y-113865237D02*
X105724819Y-113865237D01*
X105724819Y-113865237D02*
X105724819Y-113484285D01*
X105724819Y-113484285D02*
X105772438Y-113389047D01*
X105772438Y-113389047D02*
X105820057Y-113341428D01*
X105820057Y-113341428D02*
X105915295Y-113293809D01*
X105915295Y-113293809D02*
X106058152Y-113293809D01*
X106058152Y-113293809D02*
X106153390Y-113341428D01*
X106153390Y-113341428D02*
X106201009Y-113389047D01*
X106201009Y-113389047D02*
X106248628Y-113484285D01*
X106248628Y-113484285D02*
X106248628Y-113865237D01*
X106724819Y-112865237D02*
X105724819Y-112865237D01*
X105724819Y-112865237D02*
X106724819Y-112293809D01*
X106724819Y-112293809D02*
X105724819Y-112293809D01*
X106724819Y-111293809D02*
X106724819Y-111865237D01*
X106724819Y-111579523D02*
X105724819Y-111579523D01*
X105724819Y-111579523D02*
X105867676Y-111674761D01*
X105867676Y-111674761D02*
X105962914Y-111769999D01*
X105962914Y-111769999D02*
X106010533Y-111865237D01*
X106820057Y-111103333D02*
X106820057Y-110341428D01*
X105724819Y-110198570D02*
X105724819Y-109579523D01*
X105724819Y-109579523D02*
X106105771Y-109912856D01*
X106105771Y-109912856D02*
X106105771Y-109769999D01*
X106105771Y-109769999D02*
X106153390Y-109674761D01*
X106153390Y-109674761D02*
X106201009Y-109627142D01*
X106201009Y-109627142D02*
X106296247Y-109579523D01*
X106296247Y-109579523D02*
X106534342Y-109579523D01*
X106534342Y-109579523D02*
X106629580Y-109627142D01*
X106629580Y-109627142D02*
X106677200Y-109674761D01*
X106677200Y-109674761D02*
X106724819Y-109769999D01*
X106724819Y-109769999D02*
X106724819Y-110055713D01*
X106724819Y-110055713D02*
X106677200Y-110150951D01*
X106677200Y-110150951D02*
X106629580Y-110198570D01*
X57824819Y-181976666D02*
X57348628Y-182309999D01*
X57824819Y-182548094D02*
X56824819Y-182548094D01*
X56824819Y-182548094D02*
X56824819Y-182167142D01*
X56824819Y-182167142D02*
X56872438Y-182071904D01*
X56872438Y-182071904D02*
X56920057Y-182024285D01*
X56920057Y-182024285D02*
X57015295Y-181976666D01*
X57015295Y-181976666D02*
X57158152Y-181976666D01*
X57158152Y-181976666D02*
X57253390Y-182024285D01*
X57253390Y-182024285D02*
X57301009Y-182071904D01*
X57301009Y-182071904D02*
X57348628Y-182167142D01*
X57348628Y-182167142D02*
X57348628Y-182548094D01*
X56824819Y-181643332D02*
X56824819Y-181024285D01*
X56824819Y-181024285D02*
X57205771Y-181357618D01*
X57205771Y-181357618D02*
X57205771Y-181214761D01*
X57205771Y-181214761D02*
X57253390Y-181119523D01*
X57253390Y-181119523D02*
X57301009Y-181071904D01*
X57301009Y-181071904D02*
X57396247Y-181024285D01*
X57396247Y-181024285D02*
X57634342Y-181024285D01*
X57634342Y-181024285D02*
X57729580Y-181071904D01*
X57729580Y-181071904D02*
X57777200Y-181119523D01*
X57777200Y-181119523D02*
X57824819Y-181214761D01*
X57824819Y-181214761D02*
X57824819Y-181500475D01*
X57824819Y-181500475D02*
X57777200Y-181595713D01*
X57777200Y-181595713D02*
X57729580Y-181643332D01*
X73304819Y-81428571D02*
X74304819Y-81095238D01*
X74304819Y-81095238D02*
X73304819Y-80761905D01*
X73923866Y-80428571D02*
X73923866Y-79666667D01*
X74304819Y-79047619D02*
X74257200Y-79142857D01*
X74257200Y-79142857D02*
X74161961Y-79190476D01*
X74161961Y-79190476D02*
X73304819Y-79190476D01*
X74257200Y-78285714D02*
X74304819Y-78380952D01*
X74304819Y-78380952D02*
X74304819Y-78571428D01*
X74304819Y-78571428D02*
X74257200Y-78666666D01*
X74257200Y-78666666D02*
X74161961Y-78714285D01*
X74161961Y-78714285D02*
X73781009Y-78714285D01*
X73781009Y-78714285D02*
X73685771Y-78666666D01*
X73685771Y-78666666D02*
X73638152Y-78571428D01*
X73638152Y-78571428D02*
X73638152Y-78380952D01*
X73638152Y-78380952D02*
X73685771Y-78285714D01*
X73685771Y-78285714D02*
X73781009Y-78238095D01*
X73781009Y-78238095D02*
X73876247Y-78238095D01*
X73876247Y-78238095D02*
X73971485Y-78714285D01*
X74304819Y-77380952D02*
X73304819Y-77380952D01*
X74257200Y-77380952D02*
X74304819Y-77476190D01*
X74304819Y-77476190D02*
X74304819Y-77666666D01*
X74304819Y-77666666D02*
X74257200Y-77761904D01*
X74257200Y-77761904D02*
X74209580Y-77809523D01*
X74209580Y-77809523D02*
X74114342Y-77857142D01*
X74114342Y-77857142D02*
X73828628Y-77857142D01*
X73828628Y-77857142D02*
X73733390Y-77809523D01*
X73733390Y-77809523D02*
X73685771Y-77761904D01*
X73685771Y-77761904D02*
X73638152Y-77666666D01*
X73638152Y-77666666D02*
X73638152Y-77476190D01*
X73638152Y-77476190D02*
X73685771Y-77380952D01*
X73400057Y-76952380D02*
X73352438Y-76904761D01*
X73352438Y-76904761D02*
X73304819Y-76809523D01*
X73304819Y-76809523D02*
X73304819Y-76571428D01*
X73304819Y-76571428D02*
X73352438Y-76476190D01*
X73352438Y-76476190D02*
X73400057Y-76428571D01*
X73400057Y-76428571D02*
X73495295Y-76380952D01*
X73495295Y-76380952D02*
X73590533Y-76380952D01*
X73590533Y-76380952D02*
X73733390Y-76428571D01*
X73733390Y-76428571D02*
X74304819Y-76999999D01*
X74304819Y-76999999D02*
X74304819Y-76380952D01*
X74400057Y-76190476D02*
X74400057Y-75428571D01*
X74304819Y-74666666D02*
X74304819Y-75238094D01*
X74304819Y-74952380D02*
X73304819Y-74952380D01*
X73304819Y-74952380D02*
X73447676Y-75047618D01*
X73447676Y-75047618D02*
X73542914Y-75142856D01*
X73542914Y-75142856D02*
X73590533Y-75238094D01*
X114824819Y-156580000D02*
X113824819Y-156580000D01*
X113824819Y-156580000D02*
X113824819Y-156199048D01*
X113824819Y-156199048D02*
X113872438Y-156103810D01*
X113872438Y-156103810D02*
X113920057Y-156056191D01*
X113920057Y-156056191D02*
X114015295Y-156008572D01*
X114015295Y-156008572D02*
X114158152Y-156008572D01*
X114158152Y-156008572D02*
X114253390Y-156056191D01*
X114253390Y-156056191D02*
X114301009Y-156103810D01*
X114301009Y-156103810D02*
X114348628Y-156199048D01*
X114348628Y-156199048D02*
X114348628Y-156580000D01*
X114158152Y-155151429D02*
X114824819Y-155151429D01*
X114158152Y-155580000D02*
X114681961Y-155580000D01*
X114681961Y-155580000D02*
X114777200Y-155532381D01*
X114777200Y-155532381D02*
X114824819Y-155437143D01*
X114824819Y-155437143D02*
X114824819Y-155294286D01*
X114824819Y-155294286D02*
X114777200Y-155199048D01*
X114777200Y-155199048D02*
X114729580Y-155151429D01*
X114824819Y-154532381D02*
X114777200Y-154627619D01*
X114777200Y-154627619D02*
X114681961Y-154675238D01*
X114681961Y-154675238D02*
X113824819Y-154675238D01*
X114824819Y-154008571D02*
X114777200Y-154103809D01*
X114777200Y-154103809D02*
X114681961Y-154151428D01*
X114681961Y-154151428D02*
X113824819Y-154151428D01*
X114824819Y-153627618D02*
X113824819Y-153627618D01*
X113824819Y-153627618D02*
X113824819Y-153389523D01*
X113824819Y-153389523D02*
X113872438Y-153246666D01*
X113872438Y-153246666D02*
X113967676Y-153151428D01*
X113967676Y-153151428D02*
X114062914Y-153103809D01*
X114062914Y-153103809D02*
X114253390Y-153056190D01*
X114253390Y-153056190D02*
X114396247Y-153056190D01*
X114396247Y-153056190D02*
X114586723Y-153103809D01*
X114586723Y-153103809D02*
X114681961Y-153151428D01*
X114681961Y-153151428D02*
X114777200Y-153246666D01*
X114777200Y-153246666D02*
X114824819Y-153389523D01*
X114824819Y-153389523D02*
X114824819Y-153627618D01*
X114824819Y-152484761D02*
X114777200Y-152579999D01*
X114777200Y-152579999D02*
X114729580Y-152627618D01*
X114729580Y-152627618D02*
X114634342Y-152675237D01*
X114634342Y-152675237D02*
X114348628Y-152675237D01*
X114348628Y-152675237D02*
X114253390Y-152627618D01*
X114253390Y-152627618D02*
X114205771Y-152579999D01*
X114205771Y-152579999D02*
X114158152Y-152484761D01*
X114158152Y-152484761D02*
X114158152Y-152341904D01*
X114158152Y-152341904D02*
X114205771Y-152246666D01*
X114205771Y-152246666D02*
X114253390Y-152199047D01*
X114253390Y-152199047D02*
X114348628Y-152151428D01*
X114348628Y-152151428D02*
X114634342Y-152151428D01*
X114634342Y-152151428D02*
X114729580Y-152199047D01*
X114729580Y-152199047D02*
X114777200Y-152246666D01*
X114777200Y-152246666D02*
X114824819Y-152341904D01*
X114824819Y-152341904D02*
X114824819Y-152484761D01*
X114158152Y-151818094D02*
X114824819Y-151627618D01*
X114824819Y-151627618D02*
X114348628Y-151437142D01*
X114348628Y-151437142D02*
X114824819Y-151246666D01*
X114824819Y-151246666D02*
X114158152Y-151056190D01*
X114158152Y-150675237D02*
X114824819Y-150675237D01*
X114253390Y-150675237D02*
X114205771Y-150627618D01*
X114205771Y-150627618D02*
X114158152Y-150532380D01*
X114158152Y-150532380D02*
X114158152Y-150389523D01*
X114158152Y-150389523D02*
X114205771Y-150294285D01*
X114205771Y-150294285D02*
X114301009Y-150246666D01*
X114301009Y-150246666D02*
X114824819Y-150246666D01*
X114824819Y-149246666D02*
X114824819Y-149818094D01*
X114824819Y-149532380D02*
X113824819Y-149532380D01*
X113824819Y-149532380D02*
X113967676Y-149627618D01*
X113967676Y-149627618D02*
X114062914Y-149722856D01*
X114062914Y-149722856D02*
X114110533Y-149818094D01*
X114920057Y-149056190D02*
X114920057Y-148294285D01*
X113824819Y-147579999D02*
X113824819Y-148056189D01*
X113824819Y-148056189D02*
X114301009Y-148103808D01*
X114301009Y-148103808D02*
X114253390Y-148056189D01*
X114253390Y-148056189D02*
X114205771Y-147960951D01*
X114205771Y-147960951D02*
X114205771Y-147722856D01*
X114205771Y-147722856D02*
X114253390Y-147627618D01*
X114253390Y-147627618D02*
X114301009Y-147579999D01*
X114301009Y-147579999D02*
X114396247Y-147532380D01*
X114396247Y-147532380D02*
X114634342Y-147532380D01*
X114634342Y-147532380D02*
X114729580Y-147579999D01*
X114729580Y-147579999D02*
X114777200Y-147627618D01*
X114777200Y-147627618D02*
X114824819Y-147722856D01*
X114824819Y-147722856D02*
X114824819Y-147960951D01*
X114824819Y-147960951D02*
X114777200Y-148056189D01*
X114777200Y-148056189D02*
X114729580Y-148103808D01*
X95604819Y-110428571D02*
X96604819Y-110095238D01*
X96604819Y-110095238D02*
X95604819Y-109761905D01*
X96223866Y-109428571D02*
X96223866Y-108666667D01*
X96604819Y-109047619D02*
X95842914Y-109047619D01*
X96604819Y-108047619D02*
X96557200Y-108142857D01*
X96557200Y-108142857D02*
X96461961Y-108190476D01*
X96461961Y-108190476D02*
X95604819Y-108190476D01*
X96557200Y-107285714D02*
X96604819Y-107380952D01*
X96604819Y-107380952D02*
X96604819Y-107571428D01*
X96604819Y-107571428D02*
X96557200Y-107666666D01*
X96557200Y-107666666D02*
X96461961Y-107714285D01*
X96461961Y-107714285D02*
X96081009Y-107714285D01*
X96081009Y-107714285D02*
X95985771Y-107666666D01*
X95985771Y-107666666D02*
X95938152Y-107571428D01*
X95938152Y-107571428D02*
X95938152Y-107380952D01*
X95938152Y-107380952D02*
X95985771Y-107285714D01*
X95985771Y-107285714D02*
X96081009Y-107238095D01*
X96081009Y-107238095D02*
X96176247Y-107238095D01*
X96176247Y-107238095D02*
X96271485Y-107714285D01*
X96604819Y-106380952D02*
X95604819Y-106380952D01*
X96557200Y-106380952D02*
X96604819Y-106476190D01*
X96604819Y-106476190D02*
X96604819Y-106666666D01*
X96604819Y-106666666D02*
X96557200Y-106761904D01*
X96557200Y-106761904D02*
X96509580Y-106809523D01*
X96509580Y-106809523D02*
X96414342Y-106857142D01*
X96414342Y-106857142D02*
X96128628Y-106857142D01*
X96128628Y-106857142D02*
X96033390Y-106809523D01*
X96033390Y-106809523D02*
X95985771Y-106761904D01*
X95985771Y-106761904D02*
X95938152Y-106666666D01*
X95938152Y-106666666D02*
X95938152Y-106476190D01*
X95938152Y-106476190D02*
X95985771Y-106380952D01*
X96604819Y-105380952D02*
X96604819Y-105952380D01*
X96604819Y-105666666D02*
X95604819Y-105666666D01*
X95604819Y-105666666D02*
X95747676Y-105761904D01*
X95747676Y-105761904D02*
X95842914Y-105857142D01*
X95842914Y-105857142D02*
X95890533Y-105952380D01*
X96700057Y-105190476D02*
X96700057Y-104428571D01*
X95604819Y-104285713D02*
X95604819Y-103666666D01*
X95604819Y-103666666D02*
X95985771Y-103999999D01*
X95985771Y-103999999D02*
X95985771Y-103857142D01*
X95985771Y-103857142D02*
X96033390Y-103761904D01*
X96033390Y-103761904D02*
X96081009Y-103714285D01*
X96081009Y-103714285D02*
X96176247Y-103666666D01*
X96176247Y-103666666D02*
X96414342Y-103666666D01*
X96414342Y-103666666D02*
X96509580Y-103714285D01*
X96509580Y-103714285D02*
X96557200Y-103761904D01*
X96557200Y-103761904D02*
X96604819Y-103857142D01*
X96604819Y-103857142D02*
X96604819Y-104142856D01*
X96604819Y-104142856D02*
X96557200Y-104238094D01*
X96557200Y-104238094D02*
X96509580Y-104285713D01*
X114824819Y-135500000D02*
X113824819Y-135500000D01*
X113824819Y-135500000D02*
X113824819Y-135119048D01*
X113824819Y-135119048D02*
X113872438Y-135023810D01*
X113872438Y-135023810D02*
X113920057Y-134976191D01*
X113920057Y-134976191D02*
X114015295Y-134928572D01*
X114015295Y-134928572D02*
X114158152Y-134928572D01*
X114158152Y-134928572D02*
X114253390Y-134976191D01*
X114253390Y-134976191D02*
X114301009Y-135023810D01*
X114301009Y-135023810D02*
X114348628Y-135119048D01*
X114348628Y-135119048D02*
X114348628Y-135500000D01*
X114158152Y-134071429D02*
X114824819Y-134071429D01*
X114158152Y-134500000D02*
X114681961Y-134500000D01*
X114681961Y-134500000D02*
X114777200Y-134452381D01*
X114777200Y-134452381D02*
X114824819Y-134357143D01*
X114824819Y-134357143D02*
X114824819Y-134214286D01*
X114824819Y-134214286D02*
X114777200Y-134119048D01*
X114777200Y-134119048D02*
X114729580Y-134071429D01*
X114824819Y-133452381D02*
X114777200Y-133547619D01*
X114777200Y-133547619D02*
X114681961Y-133595238D01*
X114681961Y-133595238D02*
X113824819Y-133595238D01*
X114824819Y-132928571D02*
X114777200Y-133023809D01*
X114777200Y-133023809D02*
X114681961Y-133071428D01*
X114681961Y-133071428D02*
X113824819Y-133071428D01*
X114824819Y-132547618D02*
X113824819Y-132547618D01*
X113824819Y-132547618D02*
X113824819Y-132309523D01*
X113824819Y-132309523D02*
X113872438Y-132166666D01*
X113872438Y-132166666D02*
X113967676Y-132071428D01*
X113967676Y-132071428D02*
X114062914Y-132023809D01*
X114062914Y-132023809D02*
X114253390Y-131976190D01*
X114253390Y-131976190D02*
X114396247Y-131976190D01*
X114396247Y-131976190D02*
X114586723Y-132023809D01*
X114586723Y-132023809D02*
X114681961Y-132071428D01*
X114681961Y-132071428D02*
X114777200Y-132166666D01*
X114777200Y-132166666D02*
X114824819Y-132309523D01*
X114824819Y-132309523D02*
X114824819Y-132547618D01*
X114824819Y-131404761D02*
X114777200Y-131499999D01*
X114777200Y-131499999D02*
X114729580Y-131547618D01*
X114729580Y-131547618D02*
X114634342Y-131595237D01*
X114634342Y-131595237D02*
X114348628Y-131595237D01*
X114348628Y-131595237D02*
X114253390Y-131547618D01*
X114253390Y-131547618D02*
X114205771Y-131499999D01*
X114205771Y-131499999D02*
X114158152Y-131404761D01*
X114158152Y-131404761D02*
X114158152Y-131261904D01*
X114158152Y-131261904D02*
X114205771Y-131166666D01*
X114205771Y-131166666D02*
X114253390Y-131119047D01*
X114253390Y-131119047D02*
X114348628Y-131071428D01*
X114348628Y-131071428D02*
X114634342Y-131071428D01*
X114634342Y-131071428D02*
X114729580Y-131119047D01*
X114729580Y-131119047D02*
X114777200Y-131166666D01*
X114777200Y-131166666D02*
X114824819Y-131261904D01*
X114824819Y-131261904D02*
X114824819Y-131404761D01*
X114158152Y-130738094D02*
X114824819Y-130547618D01*
X114824819Y-130547618D02*
X114348628Y-130357142D01*
X114348628Y-130357142D02*
X114824819Y-130166666D01*
X114824819Y-130166666D02*
X114158152Y-129976190D01*
X114158152Y-129595237D02*
X114824819Y-129595237D01*
X114253390Y-129595237D02*
X114205771Y-129547618D01*
X114205771Y-129547618D02*
X114158152Y-129452380D01*
X114158152Y-129452380D02*
X114158152Y-129309523D01*
X114158152Y-129309523D02*
X114205771Y-129214285D01*
X114205771Y-129214285D02*
X114301009Y-129166666D01*
X114301009Y-129166666D02*
X114824819Y-129166666D01*
X114824819Y-128166666D02*
X114824819Y-128738094D01*
X114824819Y-128452380D02*
X113824819Y-128452380D01*
X113824819Y-128452380D02*
X113967676Y-128547618D01*
X113967676Y-128547618D02*
X114062914Y-128642856D01*
X114062914Y-128642856D02*
X114110533Y-128738094D01*
X114920057Y-127976190D02*
X114920057Y-127214285D01*
X114158152Y-126547618D02*
X114824819Y-126547618D01*
X113777200Y-126785713D02*
X114491485Y-127023808D01*
X114491485Y-127023808D02*
X114491485Y-126404761D01*
X65359819Y-133102856D02*
X64359819Y-133102856D01*
X64359819Y-133102856D02*
X65359819Y-132531428D01*
X65359819Y-132531428D02*
X64359819Y-132531428D01*
X65359819Y-132055237D02*
X64359819Y-132055237D01*
X64359819Y-132055237D02*
X64359819Y-131674285D01*
X64359819Y-131674285D02*
X64407438Y-131579047D01*
X64407438Y-131579047D02*
X64455057Y-131531428D01*
X64455057Y-131531428D02*
X64550295Y-131483809D01*
X64550295Y-131483809D02*
X64693152Y-131483809D01*
X64693152Y-131483809D02*
X64788390Y-131531428D01*
X64788390Y-131531428D02*
X64836009Y-131579047D01*
X64836009Y-131579047D02*
X64883628Y-131674285D01*
X64883628Y-131674285D02*
X64883628Y-132055237D01*
X65359819Y-131055237D02*
X64359819Y-131055237D01*
X64359819Y-131055237D02*
X65359819Y-130483809D01*
X65359819Y-130483809D02*
X64359819Y-130483809D01*
X64455057Y-130055237D02*
X64407438Y-130007618D01*
X64407438Y-130007618D02*
X64359819Y-129912380D01*
X64359819Y-129912380D02*
X64359819Y-129674285D01*
X64359819Y-129674285D02*
X64407438Y-129579047D01*
X64407438Y-129579047D02*
X64455057Y-129531428D01*
X64455057Y-129531428D02*
X64550295Y-129483809D01*
X64550295Y-129483809D02*
X64645533Y-129483809D01*
X64645533Y-129483809D02*
X64788390Y-129531428D01*
X64788390Y-129531428D02*
X65359819Y-130102856D01*
X65359819Y-130102856D02*
X65359819Y-129483809D01*
X65455057Y-129293333D02*
X65455057Y-128531428D01*
X64693152Y-127864761D02*
X65359819Y-127864761D01*
X64312200Y-128102856D02*
X65026485Y-128340951D01*
X65026485Y-128340951D02*
X65026485Y-127721904D01*
X95604819Y-151428571D02*
X96604819Y-151095238D01*
X96604819Y-151095238D02*
X95604819Y-150761905D01*
X96223866Y-150428571D02*
X96223866Y-149666667D01*
X96604819Y-150047619D02*
X95842914Y-150047619D01*
X96604819Y-149047619D02*
X96557200Y-149142857D01*
X96557200Y-149142857D02*
X96461961Y-149190476D01*
X96461961Y-149190476D02*
X95604819Y-149190476D01*
X96557200Y-148285714D02*
X96604819Y-148380952D01*
X96604819Y-148380952D02*
X96604819Y-148571428D01*
X96604819Y-148571428D02*
X96557200Y-148666666D01*
X96557200Y-148666666D02*
X96461961Y-148714285D01*
X96461961Y-148714285D02*
X96081009Y-148714285D01*
X96081009Y-148714285D02*
X95985771Y-148666666D01*
X95985771Y-148666666D02*
X95938152Y-148571428D01*
X95938152Y-148571428D02*
X95938152Y-148380952D01*
X95938152Y-148380952D02*
X95985771Y-148285714D01*
X95985771Y-148285714D02*
X96081009Y-148238095D01*
X96081009Y-148238095D02*
X96176247Y-148238095D01*
X96176247Y-148238095D02*
X96271485Y-148714285D01*
X96604819Y-147380952D02*
X95604819Y-147380952D01*
X96557200Y-147380952D02*
X96604819Y-147476190D01*
X96604819Y-147476190D02*
X96604819Y-147666666D01*
X96604819Y-147666666D02*
X96557200Y-147761904D01*
X96557200Y-147761904D02*
X96509580Y-147809523D01*
X96509580Y-147809523D02*
X96414342Y-147857142D01*
X96414342Y-147857142D02*
X96128628Y-147857142D01*
X96128628Y-147857142D02*
X96033390Y-147809523D01*
X96033390Y-147809523D02*
X95985771Y-147761904D01*
X95985771Y-147761904D02*
X95938152Y-147666666D01*
X95938152Y-147666666D02*
X95938152Y-147476190D01*
X95938152Y-147476190D02*
X95985771Y-147380952D01*
X96604819Y-146380952D02*
X96604819Y-146952380D01*
X96604819Y-146666666D02*
X95604819Y-146666666D01*
X95604819Y-146666666D02*
X95747676Y-146761904D01*
X95747676Y-146761904D02*
X95842914Y-146857142D01*
X95842914Y-146857142D02*
X95890533Y-146952380D01*
X96700057Y-146190476D02*
X96700057Y-145428571D01*
X95604819Y-144714285D02*
X95604819Y-145190475D01*
X95604819Y-145190475D02*
X96081009Y-145238094D01*
X96081009Y-145238094D02*
X96033390Y-145190475D01*
X96033390Y-145190475D02*
X95985771Y-145095237D01*
X95985771Y-145095237D02*
X95985771Y-144857142D01*
X95985771Y-144857142D02*
X96033390Y-144761904D01*
X96033390Y-144761904D02*
X96081009Y-144714285D01*
X96081009Y-144714285D02*
X96176247Y-144666666D01*
X96176247Y-144666666D02*
X96414342Y-144666666D01*
X96414342Y-144666666D02*
X96509580Y-144714285D01*
X96509580Y-144714285D02*
X96557200Y-144761904D01*
X96557200Y-144761904D02*
X96604819Y-144857142D01*
X96604819Y-144857142D02*
X96604819Y-145095237D01*
X96604819Y-145095237D02*
X96557200Y-145190475D01*
X96557200Y-145190475D02*
X96509580Y-145238094D01*
X106724819Y-133642856D02*
X105724819Y-133642856D01*
X105724819Y-133642856D02*
X106724819Y-133071428D01*
X106724819Y-133071428D02*
X105724819Y-133071428D01*
X106724819Y-132595237D02*
X105724819Y-132595237D01*
X105724819Y-132595237D02*
X105724819Y-132214285D01*
X105724819Y-132214285D02*
X105772438Y-132119047D01*
X105772438Y-132119047D02*
X105820057Y-132071428D01*
X105820057Y-132071428D02*
X105915295Y-132023809D01*
X105915295Y-132023809D02*
X106058152Y-132023809D01*
X106058152Y-132023809D02*
X106153390Y-132071428D01*
X106153390Y-132071428D02*
X106201009Y-132119047D01*
X106201009Y-132119047D02*
X106248628Y-132214285D01*
X106248628Y-132214285D02*
X106248628Y-132595237D01*
X106724819Y-131595237D02*
X105724819Y-131595237D01*
X105724819Y-131595237D02*
X106724819Y-131023809D01*
X106724819Y-131023809D02*
X105724819Y-131023809D01*
X106724819Y-130023809D02*
X106724819Y-130595237D01*
X106724819Y-130309523D02*
X105724819Y-130309523D01*
X105724819Y-130309523D02*
X105867676Y-130404761D01*
X105867676Y-130404761D02*
X105962914Y-130499999D01*
X105962914Y-130499999D02*
X106010533Y-130595237D01*
X106820057Y-129833333D02*
X106820057Y-129071428D01*
X106058152Y-128404761D02*
X106724819Y-128404761D01*
X105677200Y-128642856D02*
X106391485Y-128880951D01*
X106391485Y-128880951D02*
X106391485Y-128261904D01*
X25380952Y-179304819D02*
X25714285Y-180304819D01*
X25714285Y-180304819D02*
X26047618Y-179304819D01*
X26380952Y-179923866D02*
X27142857Y-179923866D01*
X26761904Y-180304819D02*
X26761904Y-179542914D01*
X27380952Y-180400057D02*
X28142856Y-180400057D01*
X28809523Y-180304819D02*
X28809523Y-179781009D01*
X28809523Y-179781009D02*
X28761904Y-179685771D01*
X28761904Y-179685771D02*
X28666666Y-179638152D01*
X28666666Y-179638152D02*
X28476190Y-179638152D01*
X28476190Y-179638152D02*
X28380952Y-179685771D01*
X28809523Y-180257200D02*
X28714285Y-180304819D01*
X28714285Y-180304819D02*
X28476190Y-180304819D01*
X28476190Y-180304819D02*
X28380952Y-180257200D01*
X28380952Y-180257200D02*
X28333333Y-180161961D01*
X28333333Y-180161961D02*
X28333333Y-180066723D01*
X28333333Y-180066723D02*
X28380952Y-179971485D01*
X28380952Y-179971485D02*
X28476190Y-179923866D01*
X28476190Y-179923866D02*
X28714285Y-179923866D01*
X28714285Y-179923866D02*
X28809523Y-179876247D01*
X29285714Y-180304819D02*
X29285714Y-179638152D01*
X29285714Y-179828628D02*
X29333333Y-179733390D01*
X29333333Y-179733390D02*
X29380952Y-179685771D01*
X29380952Y-179685771D02*
X29476190Y-179638152D01*
X29476190Y-179638152D02*
X29571428Y-179638152D01*
X30333333Y-180304819D02*
X30333333Y-179304819D01*
X30333333Y-180257200D02*
X30238095Y-180304819D01*
X30238095Y-180304819D02*
X30047619Y-180304819D01*
X30047619Y-180304819D02*
X29952381Y-180257200D01*
X29952381Y-180257200D02*
X29904762Y-180209580D01*
X29904762Y-180209580D02*
X29857143Y-180114342D01*
X29857143Y-180114342D02*
X29857143Y-179828628D01*
X29857143Y-179828628D02*
X29904762Y-179733390D01*
X29904762Y-179733390D02*
X29952381Y-179685771D01*
X29952381Y-179685771D02*
X30047619Y-179638152D01*
X30047619Y-179638152D02*
X30238095Y-179638152D01*
X30238095Y-179638152D02*
X30333333Y-179685771D01*
X31238095Y-179638152D02*
X31238095Y-180304819D01*
X30809524Y-179638152D02*
X30809524Y-180161961D01*
X30809524Y-180161961D02*
X30857143Y-180257200D01*
X30857143Y-180257200D02*
X30952381Y-180304819D01*
X30952381Y-180304819D02*
X31095238Y-180304819D01*
X31095238Y-180304819D02*
X31190476Y-180257200D01*
X31190476Y-180257200D02*
X31238095Y-180209580D01*
X31714286Y-180304819D02*
X31714286Y-179638152D01*
X31714286Y-179304819D02*
X31666667Y-179352438D01*
X31666667Y-179352438D02*
X31714286Y-179400057D01*
X31714286Y-179400057D02*
X31761905Y-179352438D01*
X31761905Y-179352438D02*
X31714286Y-179304819D01*
X31714286Y-179304819D02*
X31714286Y-179400057D01*
X32190476Y-179638152D02*
X32190476Y-180304819D01*
X32190476Y-179733390D02*
X32238095Y-179685771D01*
X32238095Y-179685771D02*
X32333333Y-179638152D01*
X32333333Y-179638152D02*
X32476190Y-179638152D01*
X32476190Y-179638152D02*
X32571428Y-179685771D01*
X32571428Y-179685771D02*
X32619047Y-179781009D01*
X32619047Y-179781009D02*
X32619047Y-180304819D01*
X33238095Y-180304819D02*
X33142857Y-180257200D01*
X33142857Y-180257200D02*
X33095238Y-180209580D01*
X33095238Y-180209580D02*
X33047619Y-180114342D01*
X33047619Y-180114342D02*
X33047619Y-179828628D01*
X33047619Y-179828628D02*
X33095238Y-179733390D01*
X33095238Y-179733390D02*
X33142857Y-179685771D01*
X33142857Y-179685771D02*
X33238095Y-179638152D01*
X33238095Y-179638152D02*
X33380952Y-179638152D01*
X33380952Y-179638152D02*
X33476190Y-179685771D01*
X33476190Y-179685771D02*
X33523809Y-179733390D01*
X33523809Y-179733390D02*
X33571428Y-179828628D01*
X33571428Y-179828628D02*
X33571428Y-180114342D01*
X33571428Y-180114342D02*
X33523809Y-180209580D01*
X33523809Y-180209580D02*
X33476190Y-180257200D01*
X33476190Y-180257200D02*
X33380952Y-180304819D01*
X33380952Y-180304819D02*
X33238095Y-180304819D01*
X34523809Y-180304819D02*
X33952381Y-180304819D01*
X34238095Y-180304819D02*
X34238095Y-179304819D01*
X34238095Y-179304819D02*
X34142857Y-179447676D01*
X34142857Y-179447676D02*
X34047619Y-179542914D01*
X34047619Y-179542914D02*
X33952381Y-179590533D01*
X73304819Y-151428571D02*
X74304819Y-151095238D01*
X74304819Y-151095238D02*
X73304819Y-150761905D01*
X73923866Y-150428571D02*
X73923866Y-149666667D01*
X74304819Y-150047619D02*
X73542914Y-150047619D01*
X74304819Y-149047619D02*
X74257200Y-149142857D01*
X74257200Y-149142857D02*
X74161961Y-149190476D01*
X74161961Y-149190476D02*
X73304819Y-149190476D01*
X74257200Y-148285714D02*
X74304819Y-148380952D01*
X74304819Y-148380952D02*
X74304819Y-148571428D01*
X74304819Y-148571428D02*
X74257200Y-148666666D01*
X74257200Y-148666666D02*
X74161961Y-148714285D01*
X74161961Y-148714285D02*
X73781009Y-148714285D01*
X73781009Y-148714285D02*
X73685771Y-148666666D01*
X73685771Y-148666666D02*
X73638152Y-148571428D01*
X73638152Y-148571428D02*
X73638152Y-148380952D01*
X73638152Y-148380952D02*
X73685771Y-148285714D01*
X73685771Y-148285714D02*
X73781009Y-148238095D01*
X73781009Y-148238095D02*
X73876247Y-148238095D01*
X73876247Y-148238095D02*
X73971485Y-148714285D01*
X74304819Y-147380952D02*
X73304819Y-147380952D01*
X74257200Y-147380952D02*
X74304819Y-147476190D01*
X74304819Y-147476190D02*
X74304819Y-147666666D01*
X74304819Y-147666666D02*
X74257200Y-147761904D01*
X74257200Y-147761904D02*
X74209580Y-147809523D01*
X74209580Y-147809523D02*
X74114342Y-147857142D01*
X74114342Y-147857142D02*
X73828628Y-147857142D01*
X73828628Y-147857142D02*
X73733390Y-147809523D01*
X73733390Y-147809523D02*
X73685771Y-147761904D01*
X73685771Y-147761904D02*
X73638152Y-147666666D01*
X73638152Y-147666666D02*
X73638152Y-147476190D01*
X73638152Y-147476190D02*
X73685771Y-147380952D01*
X73400057Y-146952380D02*
X73352438Y-146904761D01*
X73352438Y-146904761D02*
X73304819Y-146809523D01*
X73304819Y-146809523D02*
X73304819Y-146571428D01*
X73304819Y-146571428D02*
X73352438Y-146476190D01*
X73352438Y-146476190D02*
X73400057Y-146428571D01*
X73400057Y-146428571D02*
X73495295Y-146380952D01*
X73495295Y-146380952D02*
X73590533Y-146380952D01*
X73590533Y-146380952D02*
X73733390Y-146428571D01*
X73733390Y-146428571D02*
X74304819Y-146999999D01*
X74304819Y-146999999D02*
X74304819Y-146380952D01*
X74400057Y-146190476D02*
X74400057Y-145428571D01*
X73304819Y-144714285D02*
X73304819Y-145190475D01*
X73304819Y-145190475D02*
X73781009Y-145238094D01*
X73781009Y-145238094D02*
X73733390Y-145190475D01*
X73733390Y-145190475D02*
X73685771Y-145095237D01*
X73685771Y-145095237D02*
X73685771Y-144857142D01*
X73685771Y-144857142D02*
X73733390Y-144761904D01*
X73733390Y-144761904D02*
X73781009Y-144714285D01*
X73781009Y-144714285D02*
X73876247Y-144666666D01*
X73876247Y-144666666D02*
X74114342Y-144666666D01*
X74114342Y-144666666D02*
X74209580Y-144714285D01*
X74209580Y-144714285D02*
X74257200Y-144761904D01*
X74257200Y-144761904D02*
X74304819Y-144857142D01*
X74304819Y-144857142D02*
X74304819Y-145095237D01*
X74304819Y-145095237D02*
X74257200Y-145190475D01*
X74257200Y-145190475D02*
X74209580Y-145238094D01*
X73304819Y-160428571D02*
X74304819Y-160095238D01*
X74304819Y-160095238D02*
X73304819Y-159761905D01*
X73923866Y-159428571D02*
X73923866Y-158666667D01*
X74304819Y-158047619D02*
X74257200Y-158142857D01*
X74257200Y-158142857D02*
X74161961Y-158190476D01*
X74161961Y-158190476D02*
X73304819Y-158190476D01*
X74257200Y-157285714D02*
X74304819Y-157380952D01*
X74304819Y-157380952D02*
X74304819Y-157571428D01*
X74304819Y-157571428D02*
X74257200Y-157666666D01*
X74257200Y-157666666D02*
X74161961Y-157714285D01*
X74161961Y-157714285D02*
X73781009Y-157714285D01*
X73781009Y-157714285D02*
X73685771Y-157666666D01*
X73685771Y-157666666D02*
X73638152Y-157571428D01*
X73638152Y-157571428D02*
X73638152Y-157380952D01*
X73638152Y-157380952D02*
X73685771Y-157285714D01*
X73685771Y-157285714D02*
X73781009Y-157238095D01*
X73781009Y-157238095D02*
X73876247Y-157238095D01*
X73876247Y-157238095D02*
X73971485Y-157714285D01*
X74304819Y-156380952D02*
X73304819Y-156380952D01*
X74257200Y-156380952D02*
X74304819Y-156476190D01*
X74304819Y-156476190D02*
X74304819Y-156666666D01*
X74304819Y-156666666D02*
X74257200Y-156761904D01*
X74257200Y-156761904D02*
X74209580Y-156809523D01*
X74209580Y-156809523D02*
X74114342Y-156857142D01*
X74114342Y-156857142D02*
X73828628Y-156857142D01*
X73828628Y-156857142D02*
X73733390Y-156809523D01*
X73733390Y-156809523D02*
X73685771Y-156761904D01*
X73685771Y-156761904D02*
X73638152Y-156666666D01*
X73638152Y-156666666D02*
X73638152Y-156476190D01*
X73638152Y-156476190D02*
X73685771Y-156380952D01*
X73400057Y-155952380D02*
X73352438Y-155904761D01*
X73352438Y-155904761D02*
X73304819Y-155809523D01*
X73304819Y-155809523D02*
X73304819Y-155571428D01*
X73304819Y-155571428D02*
X73352438Y-155476190D01*
X73352438Y-155476190D02*
X73400057Y-155428571D01*
X73400057Y-155428571D02*
X73495295Y-155380952D01*
X73495295Y-155380952D02*
X73590533Y-155380952D01*
X73590533Y-155380952D02*
X73733390Y-155428571D01*
X73733390Y-155428571D02*
X74304819Y-155999999D01*
X74304819Y-155999999D02*
X74304819Y-155380952D01*
X74400057Y-155190476D02*
X74400057Y-154428571D01*
X73304819Y-153714285D02*
X73304819Y-154190475D01*
X73304819Y-154190475D02*
X73781009Y-154238094D01*
X73781009Y-154238094D02*
X73733390Y-154190475D01*
X73733390Y-154190475D02*
X73685771Y-154095237D01*
X73685771Y-154095237D02*
X73685771Y-153857142D01*
X73685771Y-153857142D02*
X73733390Y-153761904D01*
X73733390Y-153761904D02*
X73781009Y-153714285D01*
X73781009Y-153714285D02*
X73876247Y-153666666D01*
X73876247Y-153666666D02*
X74114342Y-153666666D01*
X74114342Y-153666666D02*
X74209580Y-153714285D01*
X74209580Y-153714285D02*
X74257200Y-153761904D01*
X74257200Y-153761904D02*
X74304819Y-153857142D01*
X74304819Y-153857142D02*
X74304819Y-154095237D01*
X74304819Y-154095237D02*
X74257200Y-154190475D01*
X74257200Y-154190475D02*
X74209580Y-154238094D01*
X73304819Y-131428571D02*
X74304819Y-131095238D01*
X74304819Y-131095238D02*
X73304819Y-130761905D01*
X73923866Y-130428571D02*
X73923866Y-129666667D01*
X74304819Y-130047619D02*
X73542914Y-130047619D01*
X74304819Y-129047619D02*
X74257200Y-129142857D01*
X74257200Y-129142857D02*
X74161961Y-129190476D01*
X74161961Y-129190476D02*
X73304819Y-129190476D01*
X74257200Y-128285714D02*
X74304819Y-128380952D01*
X74304819Y-128380952D02*
X74304819Y-128571428D01*
X74304819Y-128571428D02*
X74257200Y-128666666D01*
X74257200Y-128666666D02*
X74161961Y-128714285D01*
X74161961Y-128714285D02*
X73781009Y-128714285D01*
X73781009Y-128714285D02*
X73685771Y-128666666D01*
X73685771Y-128666666D02*
X73638152Y-128571428D01*
X73638152Y-128571428D02*
X73638152Y-128380952D01*
X73638152Y-128380952D02*
X73685771Y-128285714D01*
X73685771Y-128285714D02*
X73781009Y-128238095D01*
X73781009Y-128238095D02*
X73876247Y-128238095D01*
X73876247Y-128238095D02*
X73971485Y-128714285D01*
X74304819Y-127380952D02*
X73304819Y-127380952D01*
X74257200Y-127380952D02*
X74304819Y-127476190D01*
X74304819Y-127476190D02*
X74304819Y-127666666D01*
X74304819Y-127666666D02*
X74257200Y-127761904D01*
X74257200Y-127761904D02*
X74209580Y-127809523D01*
X74209580Y-127809523D02*
X74114342Y-127857142D01*
X74114342Y-127857142D02*
X73828628Y-127857142D01*
X73828628Y-127857142D02*
X73733390Y-127809523D01*
X73733390Y-127809523D02*
X73685771Y-127761904D01*
X73685771Y-127761904D02*
X73638152Y-127666666D01*
X73638152Y-127666666D02*
X73638152Y-127476190D01*
X73638152Y-127476190D02*
X73685771Y-127380952D01*
X73400057Y-126952380D02*
X73352438Y-126904761D01*
X73352438Y-126904761D02*
X73304819Y-126809523D01*
X73304819Y-126809523D02*
X73304819Y-126571428D01*
X73304819Y-126571428D02*
X73352438Y-126476190D01*
X73352438Y-126476190D02*
X73400057Y-126428571D01*
X73400057Y-126428571D02*
X73495295Y-126380952D01*
X73495295Y-126380952D02*
X73590533Y-126380952D01*
X73590533Y-126380952D02*
X73733390Y-126428571D01*
X73733390Y-126428571D02*
X74304819Y-126999999D01*
X74304819Y-126999999D02*
X74304819Y-126380952D01*
X74400057Y-126190476D02*
X74400057Y-125428571D01*
X73638152Y-124761904D02*
X74304819Y-124761904D01*
X73257200Y-124999999D02*
X73971485Y-125238094D01*
X73971485Y-125238094D02*
X73971485Y-124619047D01*
X35571428Y-179352438D02*
X35476190Y-179304819D01*
X35476190Y-179304819D02*
X35333333Y-179304819D01*
X35333333Y-179304819D02*
X35190476Y-179352438D01*
X35190476Y-179352438D02*
X35095238Y-179447676D01*
X35095238Y-179447676D02*
X35047619Y-179542914D01*
X35047619Y-179542914D02*
X35000000Y-179733390D01*
X35000000Y-179733390D02*
X35000000Y-179876247D01*
X35000000Y-179876247D02*
X35047619Y-180066723D01*
X35047619Y-180066723D02*
X35095238Y-180161961D01*
X35095238Y-180161961D02*
X35190476Y-180257200D01*
X35190476Y-180257200D02*
X35333333Y-180304819D01*
X35333333Y-180304819D02*
X35428571Y-180304819D01*
X35428571Y-180304819D02*
X35571428Y-180257200D01*
X35571428Y-180257200D02*
X35619047Y-180209580D01*
X35619047Y-180209580D02*
X35619047Y-179876247D01*
X35619047Y-179876247D02*
X35428571Y-179876247D01*
X36047619Y-180304819D02*
X36047619Y-179304819D01*
X36047619Y-179304819D02*
X36619047Y-180304819D01*
X36619047Y-180304819D02*
X36619047Y-179304819D01*
X37095238Y-180304819D02*
X37095238Y-179304819D01*
X37095238Y-179304819D02*
X37333333Y-179304819D01*
X37333333Y-179304819D02*
X37476190Y-179352438D01*
X37476190Y-179352438D02*
X37571428Y-179447676D01*
X37571428Y-179447676D02*
X37619047Y-179542914D01*
X37619047Y-179542914D02*
X37666666Y-179733390D01*
X37666666Y-179733390D02*
X37666666Y-179876247D01*
X37666666Y-179876247D02*
X37619047Y-180066723D01*
X37619047Y-180066723D02*
X37571428Y-180161961D01*
X37571428Y-180161961D02*
X37476190Y-180257200D01*
X37476190Y-180257200D02*
X37333333Y-180304819D01*
X37333333Y-180304819D02*
X37095238Y-180304819D01*
X37857143Y-180400057D02*
X38619047Y-180400057D01*
X39285714Y-180304819D02*
X39285714Y-179781009D01*
X39285714Y-179781009D02*
X39238095Y-179685771D01*
X39238095Y-179685771D02*
X39142857Y-179638152D01*
X39142857Y-179638152D02*
X38952381Y-179638152D01*
X38952381Y-179638152D02*
X38857143Y-179685771D01*
X39285714Y-180257200D02*
X39190476Y-180304819D01*
X39190476Y-180304819D02*
X38952381Y-180304819D01*
X38952381Y-180304819D02*
X38857143Y-180257200D01*
X38857143Y-180257200D02*
X38809524Y-180161961D01*
X38809524Y-180161961D02*
X38809524Y-180066723D01*
X38809524Y-180066723D02*
X38857143Y-179971485D01*
X38857143Y-179971485D02*
X38952381Y-179923866D01*
X38952381Y-179923866D02*
X39190476Y-179923866D01*
X39190476Y-179923866D02*
X39285714Y-179876247D01*
X39761905Y-180304819D02*
X39761905Y-179638152D01*
X39761905Y-179828628D02*
X39809524Y-179733390D01*
X39809524Y-179733390D02*
X39857143Y-179685771D01*
X39857143Y-179685771D02*
X39952381Y-179638152D01*
X39952381Y-179638152D02*
X40047619Y-179638152D01*
X40809524Y-180304819D02*
X40809524Y-179304819D01*
X40809524Y-180257200D02*
X40714286Y-180304819D01*
X40714286Y-180304819D02*
X40523810Y-180304819D01*
X40523810Y-180304819D02*
X40428572Y-180257200D01*
X40428572Y-180257200D02*
X40380953Y-180209580D01*
X40380953Y-180209580D02*
X40333334Y-180114342D01*
X40333334Y-180114342D02*
X40333334Y-179828628D01*
X40333334Y-179828628D02*
X40380953Y-179733390D01*
X40380953Y-179733390D02*
X40428572Y-179685771D01*
X40428572Y-179685771D02*
X40523810Y-179638152D01*
X40523810Y-179638152D02*
X40714286Y-179638152D01*
X40714286Y-179638152D02*
X40809524Y-179685771D01*
X41714286Y-179638152D02*
X41714286Y-180304819D01*
X41285715Y-179638152D02*
X41285715Y-180161961D01*
X41285715Y-180161961D02*
X41333334Y-180257200D01*
X41333334Y-180257200D02*
X41428572Y-180304819D01*
X41428572Y-180304819D02*
X41571429Y-180304819D01*
X41571429Y-180304819D02*
X41666667Y-180257200D01*
X41666667Y-180257200D02*
X41714286Y-180209580D01*
X42190477Y-180304819D02*
X42190477Y-179638152D01*
X42190477Y-179304819D02*
X42142858Y-179352438D01*
X42142858Y-179352438D02*
X42190477Y-179400057D01*
X42190477Y-179400057D02*
X42238096Y-179352438D01*
X42238096Y-179352438D02*
X42190477Y-179304819D01*
X42190477Y-179304819D02*
X42190477Y-179400057D01*
X42666667Y-179638152D02*
X42666667Y-180304819D01*
X42666667Y-179733390D02*
X42714286Y-179685771D01*
X42714286Y-179685771D02*
X42809524Y-179638152D01*
X42809524Y-179638152D02*
X42952381Y-179638152D01*
X42952381Y-179638152D02*
X43047619Y-179685771D01*
X43047619Y-179685771D02*
X43095238Y-179781009D01*
X43095238Y-179781009D02*
X43095238Y-180304819D01*
X43714286Y-180304819D02*
X43619048Y-180257200D01*
X43619048Y-180257200D02*
X43571429Y-180209580D01*
X43571429Y-180209580D02*
X43523810Y-180114342D01*
X43523810Y-180114342D02*
X43523810Y-179828628D01*
X43523810Y-179828628D02*
X43571429Y-179733390D01*
X43571429Y-179733390D02*
X43619048Y-179685771D01*
X43619048Y-179685771D02*
X43714286Y-179638152D01*
X43714286Y-179638152D02*
X43857143Y-179638152D01*
X43857143Y-179638152D02*
X43952381Y-179685771D01*
X43952381Y-179685771D02*
X44000000Y-179733390D01*
X44000000Y-179733390D02*
X44047619Y-179828628D01*
X44047619Y-179828628D02*
X44047619Y-180114342D01*
X44047619Y-180114342D02*
X44000000Y-180209580D01*
X44000000Y-180209580D02*
X43952381Y-180257200D01*
X43952381Y-180257200D02*
X43857143Y-180304819D01*
X43857143Y-180304819D02*
X43714286Y-180304819D01*
X45000000Y-180304819D02*
X44428572Y-180304819D01*
X44714286Y-180304819D02*
X44714286Y-179304819D01*
X44714286Y-179304819D02*
X44619048Y-179447676D01*
X44619048Y-179447676D02*
X44523810Y-179542914D01*
X44523810Y-179542914D02*
X44428572Y-179590533D01*
X95604819Y-160428571D02*
X96604819Y-160095238D01*
X96604819Y-160095238D02*
X95604819Y-159761905D01*
X96223866Y-159428571D02*
X96223866Y-158666667D01*
X96604819Y-158047619D02*
X96557200Y-158142857D01*
X96557200Y-158142857D02*
X96461961Y-158190476D01*
X96461961Y-158190476D02*
X95604819Y-158190476D01*
X96557200Y-157285714D02*
X96604819Y-157380952D01*
X96604819Y-157380952D02*
X96604819Y-157571428D01*
X96604819Y-157571428D02*
X96557200Y-157666666D01*
X96557200Y-157666666D02*
X96461961Y-157714285D01*
X96461961Y-157714285D02*
X96081009Y-157714285D01*
X96081009Y-157714285D02*
X95985771Y-157666666D01*
X95985771Y-157666666D02*
X95938152Y-157571428D01*
X95938152Y-157571428D02*
X95938152Y-157380952D01*
X95938152Y-157380952D02*
X95985771Y-157285714D01*
X95985771Y-157285714D02*
X96081009Y-157238095D01*
X96081009Y-157238095D02*
X96176247Y-157238095D01*
X96176247Y-157238095D02*
X96271485Y-157714285D01*
X96604819Y-156380952D02*
X95604819Y-156380952D01*
X96557200Y-156380952D02*
X96604819Y-156476190D01*
X96604819Y-156476190D02*
X96604819Y-156666666D01*
X96604819Y-156666666D02*
X96557200Y-156761904D01*
X96557200Y-156761904D02*
X96509580Y-156809523D01*
X96509580Y-156809523D02*
X96414342Y-156857142D01*
X96414342Y-156857142D02*
X96128628Y-156857142D01*
X96128628Y-156857142D02*
X96033390Y-156809523D01*
X96033390Y-156809523D02*
X95985771Y-156761904D01*
X95985771Y-156761904D02*
X95938152Y-156666666D01*
X95938152Y-156666666D02*
X95938152Y-156476190D01*
X95938152Y-156476190D02*
X95985771Y-156380952D01*
X96604819Y-155380952D02*
X96604819Y-155952380D01*
X96604819Y-155666666D02*
X95604819Y-155666666D01*
X95604819Y-155666666D02*
X95747676Y-155761904D01*
X95747676Y-155761904D02*
X95842914Y-155857142D01*
X95842914Y-155857142D02*
X95890533Y-155952380D01*
X96700057Y-155190476D02*
X96700057Y-154428571D01*
X95604819Y-153714285D02*
X95604819Y-154190475D01*
X95604819Y-154190475D02*
X96081009Y-154238094D01*
X96081009Y-154238094D02*
X96033390Y-154190475D01*
X96033390Y-154190475D02*
X95985771Y-154095237D01*
X95985771Y-154095237D02*
X95985771Y-153857142D01*
X95985771Y-153857142D02*
X96033390Y-153761904D01*
X96033390Y-153761904D02*
X96081009Y-153714285D01*
X96081009Y-153714285D02*
X96176247Y-153666666D01*
X96176247Y-153666666D02*
X96414342Y-153666666D01*
X96414342Y-153666666D02*
X96509580Y-153714285D01*
X96509580Y-153714285D02*
X96557200Y-153761904D01*
X96557200Y-153761904D02*
X96604819Y-153857142D01*
X96604819Y-153857142D02*
X96604819Y-154095237D01*
X96604819Y-154095237D02*
X96557200Y-154190475D01*
X96557200Y-154190475D02*
X96509580Y-154238094D01*
X95604819Y-72968571D02*
X96604819Y-72635238D01*
X96604819Y-72635238D02*
X95604819Y-72301905D01*
X96223866Y-71968571D02*
X96223866Y-71206667D01*
X96604819Y-71587619D02*
X95842914Y-71587619D01*
X96604819Y-70587619D02*
X96557200Y-70682857D01*
X96557200Y-70682857D02*
X96461961Y-70730476D01*
X96461961Y-70730476D02*
X95604819Y-70730476D01*
X96557200Y-69825714D02*
X96604819Y-69920952D01*
X96604819Y-69920952D02*
X96604819Y-70111428D01*
X96604819Y-70111428D02*
X96557200Y-70206666D01*
X96557200Y-70206666D02*
X96461961Y-70254285D01*
X96461961Y-70254285D02*
X96081009Y-70254285D01*
X96081009Y-70254285D02*
X95985771Y-70206666D01*
X95985771Y-70206666D02*
X95938152Y-70111428D01*
X95938152Y-70111428D02*
X95938152Y-69920952D01*
X95938152Y-69920952D02*
X95985771Y-69825714D01*
X95985771Y-69825714D02*
X96081009Y-69778095D01*
X96081009Y-69778095D02*
X96176247Y-69778095D01*
X96176247Y-69778095D02*
X96271485Y-70254285D01*
X96604819Y-68920952D02*
X95604819Y-68920952D01*
X96557200Y-68920952D02*
X96604819Y-69016190D01*
X96604819Y-69016190D02*
X96604819Y-69206666D01*
X96604819Y-69206666D02*
X96557200Y-69301904D01*
X96557200Y-69301904D02*
X96509580Y-69349523D01*
X96509580Y-69349523D02*
X96414342Y-69397142D01*
X96414342Y-69397142D02*
X96128628Y-69397142D01*
X96128628Y-69397142D02*
X96033390Y-69349523D01*
X96033390Y-69349523D02*
X95985771Y-69301904D01*
X95985771Y-69301904D02*
X95938152Y-69206666D01*
X95938152Y-69206666D02*
X95938152Y-69016190D01*
X95938152Y-69016190D02*
X95985771Y-68920952D01*
X96604819Y-67920952D02*
X96604819Y-68492380D01*
X96604819Y-68206666D02*
X95604819Y-68206666D01*
X95604819Y-68206666D02*
X95747676Y-68301904D01*
X95747676Y-68301904D02*
X95842914Y-68397142D01*
X95842914Y-68397142D02*
X95890533Y-68492380D01*
X96700057Y-67730476D02*
X96700057Y-66968571D01*
X96604819Y-66206666D02*
X96604819Y-66778094D01*
X96604819Y-66492380D02*
X95604819Y-66492380D01*
X95604819Y-66492380D02*
X95747676Y-66587618D01*
X95747676Y-66587618D02*
X95842914Y-66682856D01*
X95842914Y-66682856D02*
X95890533Y-66778094D01*
X96454819Y-131428571D02*
X97454819Y-131095238D01*
X97454819Y-131095238D02*
X96454819Y-130761905D01*
X97073866Y-130428571D02*
X97073866Y-129666667D01*
X97454819Y-130047619D02*
X96692914Y-130047619D01*
X97454819Y-129047619D02*
X97407200Y-129142857D01*
X97407200Y-129142857D02*
X97311961Y-129190476D01*
X97311961Y-129190476D02*
X96454819Y-129190476D01*
X97407200Y-128285714D02*
X97454819Y-128380952D01*
X97454819Y-128380952D02*
X97454819Y-128571428D01*
X97454819Y-128571428D02*
X97407200Y-128666666D01*
X97407200Y-128666666D02*
X97311961Y-128714285D01*
X97311961Y-128714285D02*
X96931009Y-128714285D01*
X96931009Y-128714285D02*
X96835771Y-128666666D01*
X96835771Y-128666666D02*
X96788152Y-128571428D01*
X96788152Y-128571428D02*
X96788152Y-128380952D01*
X96788152Y-128380952D02*
X96835771Y-128285714D01*
X96835771Y-128285714D02*
X96931009Y-128238095D01*
X96931009Y-128238095D02*
X97026247Y-128238095D01*
X97026247Y-128238095D02*
X97121485Y-128714285D01*
X97454819Y-127380952D02*
X96454819Y-127380952D01*
X97407200Y-127380952D02*
X97454819Y-127476190D01*
X97454819Y-127476190D02*
X97454819Y-127666666D01*
X97454819Y-127666666D02*
X97407200Y-127761904D01*
X97407200Y-127761904D02*
X97359580Y-127809523D01*
X97359580Y-127809523D02*
X97264342Y-127857142D01*
X97264342Y-127857142D02*
X96978628Y-127857142D01*
X96978628Y-127857142D02*
X96883390Y-127809523D01*
X96883390Y-127809523D02*
X96835771Y-127761904D01*
X96835771Y-127761904D02*
X96788152Y-127666666D01*
X96788152Y-127666666D02*
X96788152Y-127476190D01*
X96788152Y-127476190D02*
X96835771Y-127380952D01*
X97454819Y-126380952D02*
X97454819Y-126952380D01*
X97454819Y-126666666D02*
X96454819Y-126666666D01*
X96454819Y-126666666D02*
X96597676Y-126761904D01*
X96597676Y-126761904D02*
X96692914Y-126857142D01*
X96692914Y-126857142D02*
X96740533Y-126952380D01*
X97550057Y-126190476D02*
X97550057Y-125428571D01*
X96788152Y-124761904D02*
X97454819Y-124761904D01*
X96407200Y-124999999D02*
X97121485Y-125238094D01*
X97121485Y-125238094D02*
X97121485Y-124619047D01*
X35275714Y-154329104D02*
X35751904Y-154329104D01*
X35180476Y-154614819D02*
X35513809Y-153614819D01*
X35513809Y-153614819D02*
X35847142Y-154614819D01*
X36704285Y-154614819D02*
X36132857Y-154614819D01*
X36418571Y-154614819D02*
X36418571Y-153614819D01*
X36418571Y-153614819D02*
X36323333Y-153757676D01*
X36323333Y-153757676D02*
X36228095Y-153852914D01*
X36228095Y-153852914D02*
X36132857Y-153900533D01*
X37251904Y-114065180D02*
X37251904Y-113255657D01*
X37251904Y-113255657D02*
X37204285Y-113160419D01*
X37204285Y-113160419D02*
X37156666Y-113112800D01*
X37156666Y-113112800D02*
X37061428Y-113065180D01*
X37061428Y-113065180D02*
X36870952Y-113065180D01*
X36870952Y-113065180D02*
X36775714Y-113112800D01*
X36775714Y-113112800D02*
X36728095Y-113160419D01*
X36728095Y-113160419D02*
X36680476Y-113255657D01*
X36680476Y-113255657D02*
X36680476Y-114065180D01*
X36251904Y-113112800D02*
X36109047Y-113065180D01*
X36109047Y-113065180D02*
X35870952Y-113065180D01*
X35870952Y-113065180D02*
X35775714Y-113112800D01*
X35775714Y-113112800D02*
X35728095Y-113160419D01*
X35728095Y-113160419D02*
X35680476Y-113255657D01*
X35680476Y-113255657D02*
X35680476Y-113350895D01*
X35680476Y-113350895D02*
X35728095Y-113446133D01*
X35728095Y-113446133D02*
X35775714Y-113493752D01*
X35775714Y-113493752D02*
X35870952Y-113541371D01*
X35870952Y-113541371D02*
X36061428Y-113588990D01*
X36061428Y-113588990D02*
X36156666Y-113636609D01*
X36156666Y-113636609D02*
X36204285Y-113684228D01*
X36204285Y-113684228D02*
X36251904Y-113779466D01*
X36251904Y-113779466D02*
X36251904Y-113874704D01*
X36251904Y-113874704D02*
X36204285Y-113969942D01*
X36204285Y-113969942D02*
X36156666Y-114017561D01*
X36156666Y-114017561D02*
X36061428Y-114065180D01*
X36061428Y-114065180D02*
X35823333Y-114065180D01*
X35823333Y-114065180D02*
X35680476Y-114017561D01*
X34918571Y-113588990D02*
X34775714Y-113541371D01*
X34775714Y-113541371D02*
X34728095Y-113493752D01*
X34728095Y-113493752D02*
X34680476Y-113398514D01*
X34680476Y-113398514D02*
X34680476Y-113255657D01*
X34680476Y-113255657D02*
X34728095Y-113160419D01*
X34728095Y-113160419D02*
X34775714Y-113112800D01*
X34775714Y-113112800D02*
X34870952Y-113065180D01*
X34870952Y-113065180D02*
X35251904Y-113065180D01*
X35251904Y-113065180D02*
X35251904Y-114065180D01*
X35251904Y-114065180D02*
X34918571Y-114065180D01*
X34918571Y-114065180D02*
X34823333Y-114017561D01*
X34823333Y-114017561D02*
X34775714Y-113969942D01*
X34775714Y-113969942D02*
X34728095Y-113874704D01*
X34728095Y-113874704D02*
X34728095Y-113779466D01*
X34728095Y-113779466D02*
X34775714Y-113684228D01*
X34775714Y-113684228D02*
X34823333Y-113636609D01*
X34823333Y-113636609D02*
X34918571Y-113588990D01*
X34918571Y-113588990D02*
X35251904Y-113588990D01*
X73304819Y-90428571D02*
X74304819Y-90095238D01*
X74304819Y-90095238D02*
X73304819Y-89761905D01*
X73923866Y-89428571D02*
X73923866Y-88666667D01*
X74304819Y-89047619D02*
X73542914Y-89047619D01*
X74304819Y-88047619D02*
X74257200Y-88142857D01*
X74257200Y-88142857D02*
X74161961Y-88190476D01*
X74161961Y-88190476D02*
X73304819Y-88190476D01*
X74257200Y-87285714D02*
X74304819Y-87380952D01*
X74304819Y-87380952D02*
X74304819Y-87571428D01*
X74304819Y-87571428D02*
X74257200Y-87666666D01*
X74257200Y-87666666D02*
X74161961Y-87714285D01*
X74161961Y-87714285D02*
X73781009Y-87714285D01*
X73781009Y-87714285D02*
X73685771Y-87666666D01*
X73685771Y-87666666D02*
X73638152Y-87571428D01*
X73638152Y-87571428D02*
X73638152Y-87380952D01*
X73638152Y-87380952D02*
X73685771Y-87285714D01*
X73685771Y-87285714D02*
X73781009Y-87238095D01*
X73781009Y-87238095D02*
X73876247Y-87238095D01*
X73876247Y-87238095D02*
X73971485Y-87714285D01*
X74304819Y-86380952D02*
X73304819Y-86380952D01*
X74257200Y-86380952D02*
X74304819Y-86476190D01*
X74304819Y-86476190D02*
X74304819Y-86666666D01*
X74304819Y-86666666D02*
X74257200Y-86761904D01*
X74257200Y-86761904D02*
X74209580Y-86809523D01*
X74209580Y-86809523D02*
X74114342Y-86857142D01*
X74114342Y-86857142D02*
X73828628Y-86857142D01*
X73828628Y-86857142D02*
X73733390Y-86809523D01*
X73733390Y-86809523D02*
X73685771Y-86761904D01*
X73685771Y-86761904D02*
X73638152Y-86666666D01*
X73638152Y-86666666D02*
X73638152Y-86476190D01*
X73638152Y-86476190D02*
X73685771Y-86380952D01*
X73400057Y-85952380D02*
X73352438Y-85904761D01*
X73352438Y-85904761D02*
X73304819Y-85809523D01*
X73304819Y-85809523D02*
X73304819Y-85571428D01*
X73304819Y-85571428D02*
X73352438Y-85476190D01*
X73352438Y-85476190D02*
X73400057Y-85428571D01*
X73400057Y-85428571D02*
X73495295Y-85380952D01*
X73495295Y-85380952D02*
X73590533Y-85380952D01*
X73590533Y-85380952D02*
X73733390Y-85428571D01*
X73733390Y-85428571D02*
X74304819Y-85999999D01*
X74304819Y-85999999D02*
X74304819Y-85380952D01*
X74400057Y-85190476D02*
X74400057Y-84428571D01*
X73400057Y-84238094D02*
X73352438Y-84190475D01*
X73352438Y-84190475D02*
X73304819Y-84095237D01*
X73304819Y-84095237D02*
X73304819Y-83857142D01*
X73304819Y-83857142D02*
X73352438Y-83761904D01*
X73352438Y-83761904D02*
X73400057Y-83714285D01*
X73400057Y-83714285D02*
X73495295Y-83666666D01*
X73495295Y-83666666D02*
X73590533Y-83666666D01*
X73590533Y-83666666D02*
X73733390Y-83714285D01*
X73733390Y-83714285D02*
X74304819Y-84285713D01*
X74304819Y-84285713D02*
X74304819Y-83666666D01*
X73304819Y-138428571D02*
X74304819Y-138095238D01*
X74304819Y-138095238D02*
X73304819Y-137761905D01*
X73923866Y-137428571D02*
X73923866Y-136666667D01*
X74304819Y-136047619D02*
X74257200Y-136142857D01*
X74257200Y-136142857D02*
X74161961Y-136190476D01*
X74161961Y-136190476D02*
X73304819Y-136190476D01*
X74257200Y-135285714D02*
X74304819Y-135380952D01*
X74304819Y-135380952D02*
X74304819Y-135571428D01*
X74304819Y-135571428D02*
X74257200Y-135666666D01*
X74257200Y-135666666D02*
X74161961Y-135714285D01*
X74161961Y-135714285D02*
X73781009Y-135714285D01*
X73781009Y-135714285D02*
X73685771Y-135666666D01*
X73685771Y-135666666D02*
X73638152Y-135571428D01*
X73638152Y-135571428D02*
X73638152Y-135380952D01*
X73638152Y-135380952D02*
X73685771Y-135285714D01*
X73685771Y-135285714D02*
X73781009Y-135238095D01*
X73781009Y-135238095D02*
X73876247Y-135238095D01*
X73876247Y-135238095D02*
X73971485Y-135714285D01*
X74304819Y-134380952D02*
X73304819Y-134380952D01*
X74257200Y-134380952D02*
X74304819Y-134476190D01*
X74304819Y-134476190D02*
X74304819Y-134666666D01*
X74304819Y-134666666D02*
X74257200Y-134761904D01*
X74257200Y-134761904D02*
X74209580Y-134809523D01*
X74209580Y-134809523D02*
X74114342Y-134857142D01*
X74114342Y-134857142D02*
X73828628Y-134857142D01*
X73828628Y-134857142D02*
X73733390Y-134809523D01*
X73733390Y-134809523D02*
X73685771Y-134761904D01*
X73685771Y-134761904D02*
X73638152Y-134666666D01*
X73638152Y-134666666D02*
X73638152Y-134476190D01*
X73638152Y-134476190D02*
X73685771Y-134380952D01*
X73400057Y-133952380D02*
X73352438Y-133904761D01*
X73352438Y-133904761D02*
X73304819Y-133809523D01*
X73304819Y-133809523D02*
X73304819Y-133571428D01*
X73304819Y-133571428D02*
X73352438Y-133476190D01*
X73352438Y-133476190D02*
X73400057Y-133428571D01*
X73400057Y-133428571D02*
X73495295Y-133380952D01*
X73495295Y-133380952D02*
X73590533Y-133380952D01*
X73590533Y-133380952D02*
X73733390Y-133428571D01*
X73733390Y-133428571D02*
X74304819Y-133999999D01*
X74304819Y-133999999D02*
X74304819Y-133380952D01*
X74400057Y-133190476D02*
X74400057Y-132428571D01*
X73638152Y-131761904D02*
X74304819Y-131761904D01*
X73257200Y-131999999D02*
X73971485Y-132238094D01*
X73971485Y-132238094D02*
X73971485Y-131619047D01*
X95604819Y-81428571D02*
X96604819Y-81095238D01*
X96604819Y-81095238D02*
X95604819Y-80761905D01*
X96223866Y-80428571D02*
X96223866Y-79666667D01*
X96604819Y-79047619D02*
X96557200Y-79142857D01*
X96557200Y-79142857D02*
X96461961Y-79190476D01*
X96461961Y-79190476D02*
X95604819Y-79190476D01*
X96557200Y-78285714D02*
X96604819Y-78380952D01*
X96604819Y-78380952D02*
X96604819Y-78571428D01*
X96604819Y-78571428D02*
X96557200Y-78666666D01*
X96557200Y-78666666D02*
X96461961Y-78714285D01*
X96461961Y-78714285D02*
X96081009Y-78714285D01*
X96081009Y-78714285D02*
X95985771Y-78666666D01*
X95985771Y-78666666D02*
X95938152Y-78571428D01*
X95938152Y-78571428D02*
X95938152Y-78380952D01*
X95938152Y-78380952D02*
X95985771Y-78285714D01*
X95985771Y-78285714D02*
X96081009Y-78238095D01*
X96081009Y-78238095D02*
X96176247Y-78238095D01*
X96176247Y-78238095D02*
X96271485Y-78714285D01*
X96604819Y-77380952D02*
X95604819Y-77380952D01*
X96557200Y-77380952D02*
X96604819Y-77476190D01*
X96604819Y-77476190D02*
X96604819Y-77666666D01*
X96604819Y-77666666D02*
X96557200Y-77761904D01*
X96557200Y-77761904D02*
X96509580Y-77809523D01*
X96509580Y-77809523D02*
X96414342Y-77857142D01*
X96414342Y-77857142D02*
X96128628Y-77857142D01*
X96128628Y-77857142D02*
X96033390Y-77809523D01*
X96033390Y-77809523D02*
X95985771Y-77761904D01*
X95985771Y-77761904D02*
X95938152Y-77666666D01*
X95938152Y-77666666D02*
X95938152Y-77476190D01*
X95938152Y-77476190D02*
X95985771Y-77380952D01*
X96604819Y-76380952D02*
X96604819Y-76952380D01*
X96604819Y-76666666D02*
X95604819Y-76666666D01*
X95604819Y-76666666D02*
X95747676Y-76761904D01*
X95747676Y-76761904D02*
X95842914Y-76857142D01*
X95842914Y-76857142D02*
X95890533Y-76952380D01*
X96700057Y-76190476D02*
X96700057Y-75428571D01*
X96604819Y-74666666D02*
X96604819Y-75238094D01*
X96604819Y-74952380D02*
X95604819Y-74952380D01*
X95604819Y-74952380D02*
X95747676Y-75047618D01*
X95747676Y-75047618D02*
X95842914Y-75142856D01*
X95842914Y-75142856D02*
X95890533Y-75238094D01*
X123914819Y-186301904D02*
X124724342Y-186301904D01*
X124724342Y-186301904D02*
X124819580Y-186254285D01*
X124819580Y-186254285D02*
X124867200Y-186206666D01*
X124867200Y-186206666D02*
X124914819Y-186111428D01*
X124914819Y-186111428D02*
X124914819Y-185920952D01*
X124914819Y-185920952D02*
X124867200Y-185825714D01*
X124867200Y-185825714D02*
X124819580Y-185778095D01*
X124819580Y-185778095D02*
X124724342Y-185730476D01*
X124724342Y-185730476D02*
X123914819Y-185730476D01*
X124914819Y-184730476D02*
X124914819Y-185301904D01*
X124914819Y-185016190D02*
X123914819Y-185016190D01*
X123914819Y-185016190D02*
X124057676Y-185111428D01*
X124057676Y-185111428D02*
X124152914Y-185206666D01*
X124152914Y-185206666D02*
X124200533Y-185301904D01*
X112454819Y-95040000D02*
X111454819Y-95040000D01*
X111454819Y-95040000D02*
X111454819Y-94659048D01*
X111454819Y-94659048D02*
X111502438Y-94563810D01*
X111502438Y-94563810D02*
X111550057Y-94516191D01*
X111550057Y-94516191D02*
X111645295Y-94468572D01*
X111645295Y-94468572D02*
X111788152Y-94468572D01*
X111788152Y-94468572D02*
X111883390Y-94516191D01*
X111883390Y-94516191D02*
X111931009Y-94563810D01*
X111931009Y-94563810D02*
X111978628Y-94659048D01*
X111978628Y-94659048D02*
X111978628Y-95040000D01*
X111788152Y-93611429D02*
X112454819Y-93611429D01*
X111788152Y-94040000D02*
X112311961Y-94040000D01*
X112311961Y-94040000D02*
X112407200Y-93992381D01*
X112407200Y-93992381D02*
X112454819Y-93897143D01*
X112454819Y-93897143D02*
X112454819Y-93754286D01*
X112454819Y-93754286D02*
X112407200Y-93659048D01*
X112407200Y-93659048D02*
X112359580Y-93611429D01*
X112454819Y-92992381D02*
X112407200Y-93087619D01*
X112407200Y-93087619D02*
X112311961Y-93135238D01*
X112311961Y-93135238D02*
X111454819Y-93135238D01*
X112454819Y-92468571D02*
X112407200Y-92563809D01*
X112407200Y-92563809D02*
X112311961Y-92611428D01*
X112311961Y-92611428D02*
X111454819Y-92611428D01*
X112454819Y-92087618D02*
X111454819Y-92087618D01*
X111454819Y-92087618D02*
X111454819Y-91849523D01*
X111454819Y-91849523D02*
X111502438Y-91706666D01*
X111502438Y-91706666D02*
X111597676Y-91611428D01*
X111597676Y-91611428D02*
X111692914Y-91563809D01*
X111692914Y-91563809D02*
X111883390Y-91516190D01*
X111883390Y-91516190D02*
X112026247Y-91516190D01*
X112026247Y-91516190D02*
X112216723Y-91563809D01*
X112216723Y-91563809D02*
X112311961Y-91611428D01*
X112311961Y-91611428D02*
X112407200Y-91706666D01*
X112407200Y-91706666D02*
X112454819Y-91849523D01*
X112454819Y-91849523D02*
X112454819Y-92087618D01*
X112454819Y-90944761D02*
X112407200Y-91039999D01*
X112407200Y-91039999D02*
X112359580Y-91087618D01*
X112359580Y-91087618D02*
X112264342Y-91135237D01*
X112264342Y-91135237D02*
X111978628Y-91135237D01*
X111978628Y-91135237D02*
X111883390Y-91087618D01*
X111883390Y-91087618D02*
X111835771Y-91039999D01*
X111835771Y-91039999D02*
X111788152Y-90944761D01*
X111788152Y-90944761D02*
X111788152Y-90801904D01*
X111788152Y-90801904D02*
X111835771Y-90706666D01*
X111835771Y-90706666D02*
X111883390Y-90659047D01*
X111883390Y-90659047D02*
X111978628Y-90611428D01*
X111978628Y-90611428D02*
X112264342Y-90611428D01*
X112264342Y-90611428D02*
X112359580Y-90659047D01*
X112359580Y-90659047D02*
X112407200Y-90706666D01*
X112407200Y-90706666D02*
X112454819Y-90801904D01*
X112454819Y-90801904D02*
X112454819Y-90944761D01*
X111788152Y-90278094D02*
X112454819Y-90087618D01*
X112454819Y-90087618D02*
X111978628Y-89897142D01*
X111978628Y-89897142D02*
X112454819Y-89706666D01*
X112454819Y-89706666D02*
X111788152Y-89516190D01*
X111788152Y-89135237D02*
X112454819Y-89135237D01*
X111883390Y-89135237D02*
X111835771Y-89087618D01*
X111835771Y-89087618D02*
X111788152Y-88992380D01*
X111788152Y-88992380D02*
X111788152Y-88849523D01*
X111788152Y-88849523D02*
X111835771Y-88754285D01*
X111835771Y-88754285D02*
X111931009Y-88706666D01*
X111931009Y-88706666D02*
X112454819Y-88706666D01*
X112454819Y-87706666D02*
X112454819Y-88278094D01*
X112454819Y-87992380D02*
X111454819Y-87992380D01*
X111454819Y-87992380D02*
X111597676Y-88087618D01*
X111597676Y-88087618D02*
X111692914Y-88182856D01*
X111692914Y-88182856D02*
X111740533Y-88278094D01*
X112550057Y-87516190D02*
X112550057Y-86754285D01*
X111550057Y-86563808D02*
X111502438Y-86516189D01*
X111502438Y-86516189D02*
X111454819Y-86420951D01*
X111454819Y-86420951D02*
X111454819Y-86182856D01*
X111454819Y-86182856D02*
X111502438Y-86087618D01*
X111502438Y-86087618D02*
X111550057Y-86039999D01*
X111550057Y-86039999D02*
X111645295Y-85992380D01*
X111645295Y-85992380D02*
X111740533Y-85992380D01*
X111740533Y-85992380D02*
X111883390Y-86039999D01*
X111883390Y-86039999D02*
X112454819Y-86611427D01*
X112454819Y-86611427D02*
X112454819Y-85992380D01*
X66129819Y-76182856D02*
X65129819Y-76182856D01*
X65129819Y-76182856D02*
X66129819Y-75611428D01*
X66129819Y-75611428D02*
X65129819Y-75611428D01*
X66129819Y-75135237D02*
X65129819Y-75135237D01*
X65129819Y-75135237D02*
X65129819Y-74754285D01*
X65129819Y-74754285D02*
X65177438Y-74659047D01*
X65177438Y-74659047D02*
X65225057Y-74611428D01*
X65225057Y-74611428D02*
X65320295Y-74563809D01*
X65320295Y-74563809D02*
X65463152Y-74563809D01*
X65463152Y-74563809D02*
X65558390Y-74611428D01*
X65558390Y-74611428D02*
X65606009Y-74659047D01*
X65606009Y-74659047D02*
X65653628Y-74754285D01*
X65653628Y-74754285D02*
X65653628Y-75135237D01*
X66129819Y-74135237D02*
X65129819Y-74135237D01*
X65129819Y-74135237D02*
X66129819Y-73563809D01*
X66129819Y-73563809D02*
X65129819Y-73563809D01*
X65225057Y-73135237D02*
X65177438Y-73087618D01*
X65177438Y-73087618D02*
X65129819Y-72992380D01*
X65129819Y-72992380D02*
X65129819Y-72754285D01*
X65129819Y-72754285D02*
X65177438Y-72659047D01*
X65177438Y-72659047D02*
X65225057Y-72611428D01*
X65225057Y-72611428D02*
X65320295Y-72563809D01*
X65320295Y-72563809D02*
X65415533Y-72563809D01*
X65415533Y-72563809D02*
X65558390Y-72611428D01*
X65558390Y-72611428D02*
X66129819Y-73182856D01*
X66129819Y-73182856D02*
X66129819Y-72563809D01*
X66225057Y-72373333D02*
X66225057Y-71611428D01*
X66129819Y-70849523D02*
X66129819Y-71420951D01*
X66129819Y-71135237D02*
X65129819Y-71135237D01*
X65129819Y-71135237D02*
X65272676Y-71230475D01*
X65272676Y-71230475D02*
X65367914Y-71325713D01*
X65367914Y-71325713D02*
X65415533Y-71420951D01*
X34824819Y-52166666D02*
X34348628Y-52499999D01*
X34824819Y-52738094D02*
X33824819Y-52738094D01*
X33824819Y-52738094D02*
X33824819Y-52357142D01*
X33824819Y-52357142D02*
X33872438Y-52261904D01*
X33872438Y-52261904D02*
X33920057Y-52214285D01*
X33920057Y-52214285D02*
X34015295Y-52166666D01*
X34015295Y-52166666D02*
X34158152Y-52166666D01*
X34158152Y-52166666D02*
X34253390Y-52214285D01*
X34253390Y-52214285D02*
X34301009Y-52261904D01*
X34301009Y-52261904D02*
X34348628Y-52357142D01*
X34348628Y-52357142D02*
X34348628Y-52738094D01*
X34824819Y-51214285D02*
X34824819Y-51785713D01*
X34824819Y-51499999D02*
X33824819Y-51499999D01*
X33824819Y-51499999D02*
X33967676Y-51595237D01*
X33967676Y-51595237D02*
X34062914Y-51690475D01*
X34062914Y-51690475D02*
X34110533Y-51785713D01*
X66129819Y-93182856D02*
X65129819Y-93182856D01*
X65129819Y-93182856D02*
X66129819Y-92611428D01*
X66129819Y-92611428D02*
X65129819Y-92611428D01*
X66129819Y-92135237D02*
X65129819Y-92135237D01*
X65129819Y-92135237D02*
X65129819Y-91754285D01*
X65129819Y-91754285D02*
X65177438Y-91659047D01*
X65177438Y-91659047D02*
X65225057Y-91611428D01*
X65225057Y-91611428D02*
X65320295Y-91563809D01*
X65320295Y-91563809D02*
X65463152Y-91563809D01*
X65463152Y-91563809D02*
X65558390Y-91611428D01*
X65558390Y-91611428D02*
X65606009Y-91659047D01*
X65606009Y-91659047D02*
X65653628Y-91754285D01*
X65653628Y-91754285D02*
X65653628Y-92135237D01*
X66129819Y-91135237D02*
X65129819Y-91135237D01*
X65129819Y-91135237D02*
X66129819Y-90563809D01*
X66129819Y-90563809D02*
X65129819Y-90563809D01*
X65225057Y-90135237D02*
X65177438Y-90087618D01*
X65177438Y-90087618D02*
X65129819Y-89992380D01*
X65129819Y-89992380D02*
X65129819Y-89754285D01*
X65129819Y-89754285D02*
X65177438Y-89659047D01*
X65177438Y-89659047D02*
X65225057Y-89611428D01*
X65225057Y-89611428D02*
X65320295Y-89563809D01*
X65320295Y-89563809D02*
X65415533Y-89563809D01*
X65415533Y-89563809D02*
X65558390Y-89611428D01*
X65558390Y-89611428D02*
X66129819Y-90182856D01*
X66129819Y-90182856D02*
X66129819Y-89563809D01*
X66225057Y-89373333D02*
X66225057Y-88611428D01*
X65225057Y-88420951D02*
X65177438Y-88373332D01*
X65177438Y-88373332D02*
X65129819Y-88278094D01*
X65129819Y-88278094D02*
X65129819Y-88039999D01*
X65129819Y-88039999D02*
X65177438Y-87944761D01*
X65177438Y-87944761D02*
X65225057Y-87897142D01*
X65225057Y-87897142D02*
X65320295Y-87849523D01*
X65320295Y-87849523D02*
X65415533Y-87849523D01*
X65415533Y-87849523D02*
X65558390Y-87897142D01*
X65558390Y-87897142D02*
X66129819Y-88468570D01*
X66129819Y-88468570D02*
X66129819Y-87849523D01*
X95604819Y-98428571D02*
X96604819Y-98095238D01*
X96604819Y-98095238D02*
X95604819Y-97761905D01*
X96223866Y-97428571D02*
X96223866Y-96666667D01*
X96604819Y-96047619D02*
X96557200Y-96142857D01*
X96557200Y-96142857D02*
X96461961Y-96190476D01*
X96461961Y-96190476D02*
X95604819Y-96190476D01*
X96557200Y-95285714D02*
X96604819Y-95380952D01*
X96604819Y-95380952D02*
X96604819Y-95571428D01*
X96604819Y-95571428D02*
X96557200Y-95666666D01*
X96557200Y-95666666D02*
X96461961Y-95714285D01*
X96461961Y-95714285D02*
X96081009Y-95714285D01*
X96081009Y-95714285D02*
X95985771Y-95666666D01*
X95985771Y-95666666D02*
X95938152Y-95571428D01*
X95938152Y-95571428D02*
X95938152Y-95380952D01*
X95938152Y-95380952D02*
X95985771Y-95285714D01*
X95985771Y-95285714D02*
X96081009Y-95238095D01*
X96081009Y-95238095D02*
X96176247Y-95238095D01*
X96176247Y-95238095D02*
X96271485Y-95714285D01*
X96604819Y-94380952D02*
X95604819Y-94380952D01*
X96557200Y-94380952D02*
X96604819Y-94476190D01*
X96604819Y-94476190D02*
X96604819Y-94666666D01*
X96604819Y-94666666D02*
X96557200Y-94761904D01*
X96557200Y-94761904D02*
X96509580Y-94809523D01*
X96509580Y-94809523D02*
X96414342Y-94857142D01*
X96414342Y-94857142D02*
X96128628Y-94857142D01*
X96128628Y-94857142D02*
X96033390Y-94809523D01*
X96033390Y-94809523D02*
X95985771Y-94761904D01*
X95985771Y-94761904D02*
X95938152Y-94666666D01*
X95938152Y-94666666D02*
X95938152Y-94476190D01*
X95938152Y-94476190D02*
X95985771Y-94380952D01*
X96604819Y-93380952D02*
X96604819Y-93952380D01*
X96604819Y-93666666D02*
X95604819Y-93666666D01*
X95604819Y-93666666D02*
X95747676Y-93761904D01*
X95747676Y-93761904D02*
X95842914Y-93857142D01*
X95842914Y-93857142D02*
X95890533Y-93952380D01*
X96700057Y-93190476D02*
X96700057Y-92428571D01*
X95700057Y-92238094D02*
X95652438Y-92190475D01*
X95652438Y-92190475D02*
X95604819Y-92095237D01*
X95604819Y-92095237D02*
X95604819Y-91857142D01*
X95604819Y-91857142D02*
X95652438Y-91761904D01*
X95652438Y-91761904D02*
X95700057Y-91714285D01*
X95700057Y-91714285D02*
X95795295Y-91666666D01*
X95795295Y-91666666D02*
X95890533Y-91666666D01*
X95890533Y-91666666D02*
X96033390Y-91714285D01*
X96033390Y-91714285D02*
X96604819Y-92285713D01*
X96604819Y-92285713D02*
X96604819Y-91666666D01*
X65399819Y-155642856D02*
X64399819Y-155642856D01*
X64399819Y-155642856D02*
X65399819Y-155071428D01*
X65399819Y-155071428D02*
X64399819Y-155071428D01*
X65399819Y-154595237D02*
X64399819Y-154595237D01*
X64399819Y-154595237D02*
X64399819Y-154214285D01*
X64399819Y-154214285D02*
X64447438Y-154119047D01*
X64447438Y-154119047D02*
X64495057Y-154071428D01*
X64495057Y-154071428D02*
X64590295Y-154023809D01*
X64590295Y-154023809D02*
X64733152Y-154023809D01*
X64733152Y-154023809D02*
X64828390Y-154071428D01*
X64828390Y-154071428D02*
X64876009Y-154119047D01*
X64876009Y-154119047D02*
X64923628Y-154214285D01*
X64923628Y-154214285D02*
X64923628Y-154595237D01*
X65399819Y-153595237D02*
X64399819Y-153595237D01*
X64399819Y-153595237D02*
X65399819Y-153023809D01*
X65399819Y-153023809D02*
X64399819Y-153023809D01*
X64495057Y-152595237D02*
X64447438Y-152547618D01*
X64447438Y-152547618D02*
X64399819Y-152452380D01*
X64399819Y-152452380D02*
X64399819Y-152214285D01*
X64399819Y-152214285D02*
X64447438Y-152119047D01*
X64447438Y-152119047D02*
X64495057Y-152071428D01*
X64495057Y-152071428D02*
X64590295Y-152023809D01*
X64590295Y-152023809D02*
X64685533Y-152023809D01*
X64685533Y-152023809D02*
X64828390Y-152071428D01*
X64828390Y-152071428D02*
X65399819Y-152642856D01*
X65399819Y-152642856D02*
X65399819Y-152023809D01*
X65495057Y-151833333D02*
X65495057Y-151071428D01*
X64399819Y-150357142D02*
X64399819Y-150833332D01*
X64399819Y-150833332D02*
X64876009Y-150880951D01*
X64876009Y-150880951D02*
X64828390Y-150833332D01*
X64828390Y-150833332D02*
X64780771Y-150738094D01*
X64780771Y-150738094D02*
X64780771Y-150499999D01*
X64780771Y-150499999D02*
X64828390Y-150404761D01*
X64828390Y-150404761D02*
X64876009Y-150357142D01*
X64876009Y-150357142D02*
X64971247Y-150309523D01*
X64971247Y-150309523D02*
X65209342Y-150309523D01*
X65209342Y-150309523D02*
X65304580Y-150357142D01*
X65304580Y-150357142D02*
X65352200Y-150404761D01*
X65352200Y-150404761D02*
X65399819Y-150499999D01*
X65399819Y-150499999D02*
X65399819Y-150738094D01*
X65399819Y-150738094D02*
X65352200Y-150833332D01*
X65352200Y-150833332D02*
X65304580Y-150880951D01*
X60084819Y-135690000D02*
X59084819Y-135690000D01*
X59084819Y-135690000D02*
X59084819Y-135309048D01*
X59084819Y-135309048D02*
X59132438Y-135213810D01*
X59132438Y-135213810D02*
X59180057Y-135166191D01*
X59180057Y-135166191D02*
X59275295Y-135118572D01*
X59275295Y-135118572D02*
X59418152Y-135118572D01*
X59418152Y-135118572D02*
X59513390Y-135166191D01*
X59513390Y-135166191D02*
X59561009Y-135213810D01*
X59561009Y-135213810D02*
X59608628Y-135309048D01*
X59608628Y-135309048D02*
X59608628Y-135690000D01*
X59418152Y-134261429D02*
X60084819Y-134261429D01*
X59418152Y-134690000D02*
X59941961Y-134690000D01*
X59941961Y-134690000D02*
X60037200Y-134642381D01*
X60037200Y-134642381D02*
X60084819Y-134547143D01*
X60084819Y-134547143D02*
X60084819Y-134404286D01*
X60084819Y-134404286D02*
X60037200Y-134309048D01*
X60037200Y-134309048D02*
X59989580Y-134261429D01*
X60084819Y-133642381D02*
X60037200Y-133737619D01*
X60037200Y-133737619D02*
X59941961Y-133785238D01*
X59941961Y-133785238D02*
X59084819Y-133785238D01*
X60084819Y-133118571D02*
X60037200Y-133213809D01*
X60037200Y-133213809D02*
X59941961Y-133261428D01*
X59941961Y-133261428D02*
X59084819Y-133261428D01*
X60084819Y-132737618D02*
X59084819Y-132737618D01*
X59084819Y-132737618D02*
X59084819Y-132499523D01*
X59084819Y-132499523D02*
X59132438Y-132356666D01*
X59132438Y-132356666D02*
X59227676Y-132261428D01*
X59227676Y-132261428D02*
X59322914Y-132213809D01*
X59322914Y-132213809D02*
X59513390Y-132166190D01*
X59513390Y-132166190D02*
X59656247Y-132166190D01*
X59656247Y-132166190D02*
X59846723Y-132213809D01*
X59846723Y-132213809D02*
X59941961Y-132261428D01*
X59941961Y-132261428D02*
X60037200Y-132356666D01*
X60037200Y-132356666D02*
X60084819Y-132499523D01*
X60084819Y-132499523D02*
X60084819Y-132737618D01*
X60084819Y-131594761D02*
X60037200Y-131689999D01*
X60037200Y-131689999D02*
X59989580Y-131737618D01*
X59989580Y-131737618D02*
X59894342Y-131785237D01*
X59894342Y-131785237D02*
X59608628Y-131785237D01*
X59608628Y-131785237D02*
X59513390Y-131737618D01*
X59513390Y-131737618D02*
X59465771Y-131689999D01*
X59465771Y-131689999D02*
X59418152Y-131594761D01*
X59418152Y-131594761D02*
X59418152Y-131451904D01*
X59418152Y-131451904D02*
X59465771Y-131356666D01*
X59465771Y-131356666D02*
X59513390Y-131309047D01*
X59513390Y-131309047D02*
X59608628Y-131261428D01*
X59608628Y-131261428D02*
X59894342Y-131261428D01*
X59894342Y-131261428D02*
X59989580Y-131309047D01*
X59989580Y-131309047D02*
X60037200Y-131356666D01*
X60037200Y-131356666D02*
X60084819Y-131451904D01*
X60084819Y-131451904D02*
X60084819Y-131594761D01*
X59418152Y-130928094D02*
X60084819Y-130737618D01*
X60084819Y-130737618D02*
X59608628Y-130547142D01*
X59608628Y-130547142D02*
X60084819Y-130356666D01*
X60084819Y-130356666D02*
X59418152Y-130166190D01*
X59418152Y-129785237D02*
X60084819Y-129785237D01*
X59513390Y-129785237D02*
X59465771Y-129737618D01*
X59465771Y-129737618D02*
X59418152Y-129642380D01*
X59418152Y-129642380D02*
X59418152Y-129499523D01*
X59418152Y-129499523D02*
X59465771Y-129404285D01*
X59465771Y-129404285D02*
X59561009Y-129356666D01*
X59561009Y-129356666D02*
X60084819Y-129356666D01*
X59180057Y-128928094D02*
X59132438Y-128880475D01*
X59132438Y-128880475D02*
X59084819Y-128785237D01*
X59084819Y-128785237D02*
X59084819Y-128547142D01*
X59084819Y-128547142D02*
X59132438Y-128451904D01*
X59132438Y-128451904D02*
X59180057Y-128404285D01*
X59180057Y-128404285D02*
X59275295Y-128356666D01*
X59275295Y-128356666D02*
X59370533Y-128356666D01*
X59370533Y-128356666D02*
X59513390Y-128404285D01*
X59513390Y-128404285D02*
X60084819Y-128975713D01*
X60084819Y-128975713D02*
X60084819Y-128356666D01*
X60180057Y-128166190D02*
X60180057Y-127404285D01*
X59418152Y-126737618D02*
X60084819Y-126737618D01*
X59037200Y-126975713D02*
X59751485Y-127213808D01*
X59751485Y-127213808D02*
X59751485Y-126594761D01*
X73304819Y-98428571D02*
X74304819Y-98095238D01*
X74304819Y-98095238D02*
X73304819Y-97761905D01*
X73923866Y-97428571D02*
X73923866Y-96666667D01*
X74304819Y-96047619D02*
X74257200Y-96142857D01*
X74257200Y-96142857D02*
X74161961Y-96190476D01*
X74161961Y-96190476D02*
X73304819Y-96190476D01*
X74257200Y-95285714D02*
X74304819Y-95380952D01*
X74304819Y-95380952D02*
X74304819Y-95571428D01*
X74304819Y-95571428D02*
X74257200Y-95666666D01*
X74257200Y-95666666D02*
X74161961Y-95714285D01*
X74161961Y-95714285D02*
X73781009Y-95714285D01*
X73781009Y-95714285D02*
X73685771Y-95666666D01*
X73685771Y-95666666D02*
X73638152Y-95571428D01*
X73638152Y-95571428D02*
X73638152Y-95380952D01*
X73638152Y-95380952D02*
X73685771Y-95285714D01*
X73685771Y-95285714D02*
X73781009Y-95238095D01*
X73781009Y-95238095D02*
X73876247Y-95238095D01*
X73876247Y-95238095D02*
X73971485Y-95714285D01*
X74304819Y-94380952D02*
X73304819Y-94380952D01*
X74257200Y-94380952D02*
X74304819Y-94476190D01*
X74304819Y-94476190D02*
X74304819Y-94666666D01*
X74304819Y-94666666D02*
X74257200Y-94761904D01*
X74257200Y-94761904D02*
X74209580Y-94809523D01*
X74209580Y-94809523D02*
X74114342Y-94857142D01*
X74114342Y-94857142D02*
X73828628Y-94857142D01*
X73828628Y-94857142D02*
X73733390Y-94809523D01*
X73733390Y-94809523D02*
X73685771Y-94761904D01*
X73685771Y-94761904D02*
X73638152Y-94666666D01*
X73638152Y-94666666D02*
X73638152Y-94476190D01*
X73638152Y-94476190D02*
X73685771Y-94380952D01*
X73400057Y-93952380D02*
X73352438Y-93904761D01*
X73352438Y-93904761D02*
X73304819Y-93809523D01*
X73304819Y-93809523D02*
X73304819Y-93571428D01*
X73304819Y-93571428D02*
X73352438Y-93476190D01*
X73352438Y-93476190D02*
X73400057Y-93428571D01*
X73400057Y-93428571D02*
X73495295Y-93380952D01*
X73495295Y-93380952D02*
X73590533Y-93380952D01*
X73590533Y-93380952D02*
X73733390Y-93428571D01*
X73733390Y-93428571D02*
X74304819Y-93999999D01*
X74304819Y-93999999D02*
X74304819Y-93380952D01*
X74400057Y-93190476D02*
X74400057Y-92428571D01*
X73400057Y-92238094D02*
X73352438Y-92190475D01*
X73352438Y-92190475D02*
X73304819Y-92095237D01*
X73304819Y-92095237D02*
X73304819Y-91857142D01*
X73304819Y-91857142D02*
X73352438Y-91761904D01*
X73352438Y-91761904D02*
X73400057Y-91714285D01*
X73400057Y-91714285D02*
X73495295Y-91666666D01*
X73495295Y-91666666D02*
X73590533Y-91666666D01*
X73590533Y-91666666D02*
X73733390Y-91714285D01*
X73733390Y-91714285D02*
X74304819Y-92285713D01*
X74304819Y-92285713D02*
X74304819Y-91666666D01*
X60084819Y-96310000D02*
X59084819Y-96310000D01*
X59084819Y-96310000D02*
X59084819Y-95929048D01*
X59084819Y-95929048D02*
X59132438Y-95833810D01*
X59132438Y-95833810D02*
X59180057Y-95786191D01*
X59180057Y-95786191D02*
X59275295Y-95738572D01*
X59275295Y-95738572D02*
X59418152Y-95738572D01*
X59418152Y-95738572D02*
X59513390Y-95786191D01*
X59513390Y-95786191D02*
X59561009Y-95833810D01*
X59561009Y-95833810D02*
X59608628Y-95929048D01*
X59608628Y-95929048D02*
X59608628Y-96310000D01*
X59418152Y-94881429D02*
X60084819Y-94881429D01*
X59418152Y-95310000D02*
X59941961Y-95310000D01*
X59941961Y-95310000D02*
X60037200Y-95262381D01*
X60037200Y-95262381D02*
X60084819Y-95167143D01*
X60084819Y-95167143D02*
X60084819Y-95024286D01*
X60084819Y-95024286D02*
X60037200Y-94929048D01*
X60037200Y-94929048D02*
X59989580Y-94881429D01*
X60084819Y-94262381D02*
X60037200Y-94357619D01*
X60037200Y-94357619D02*
X59941961Y-94405238D01*
X59941961Y-94405238D02*
X59084819Y-94405238D01*
X60084819Y-93738571D02*
X60037200Y-93833809D01*
X60037200Y-93833809D02*
X59941961Y-93881428D01*
X59941961Y-93881428D02*
X59084819Y-93881428D01*
X60084819Y-93357618D02*
X59084819Y-93357618D01*
X59084819Y-93357618D02*
X59084819Y-93119523D01*
X59084819Y-93119523D02*
X59132438Y-92976666D01*
X59132438Y-92976666D02*
X59227676Y-92881428D01*
X59227676Y-92881428D02*
X59322914Y-92833809D01*
X59322914Y-92833809D02*
X59513390Y-92786190D01*
X59513390Y-92786190D02*
X59656247Y-92786190D01*
X59656247Y-92786190D02*
X59846723Y-92833809D01*
X59846723Y-92833809D02*
X59941961Y-92881428D01*
X59941961Y-92881428D02*
X60037200Y-92976666D01*
X60037200Y-92976666D02*
X60084819Y-93119523D01*
X60084819Y-93119523D02*
X60084819Y-93357618D01*
X60084819Y-92214761D02*
X60037200Y-92309999D01*
X60037200Y-92309999D02*
X59989580Y-92357618D01*
X59989580Y-92357618D02*
X59894342Y-92405237D01*
X59894342Y-92405237D02*
X59608628Y-92405237D01*
X59608628Y-92405237D02*
X59513390Y-92357618D01*
X59513390Y-92357618D02*
X59465771Y-92309999D01*
X59465771Y-92309999D02*
X59418152Y-92214761D01*
X59418152Y-92214761D02*
X59418152Y-92071904D01*
X59418152Y-92071904D02*
X59465771Y-91976666D01*
X59465771Y-91976666D02*
X59513390Y-91929047D01*
X59513390Y-91929047D02*
X59608628Y-91881428D01*
X59608628Y-91881428D02*
X59894342Y-91881428D01*
X59894342Y-91881428D02*
X59989580Y-91929047D01*
X59989580Y-91929047D02*
X60037200Y-91976666D01*
X60037200Y-91976666D02*
X60084819Y-92071904D01*
X60084819Y-92071904D02*
X60084819Y-92214761D01*
X59418152Y-91548094D02*
X60084819Y-91357618D01*
X60084819Y-91357618D02*
X59608628Y-91167142D01*
X59608628Y-91167142D02*
X60084819Y-90976666D01*
X60084819Y-90976666D02*
X59418152Y-90786190D01*
X59418152Y-90405237D02*
X60084819Y-90405237D01*
X59513390Y-90405237D02*
X59465771Y-90357618D01*
X59465771Y-90357618D02*
X59418152Y-90262380D01*
X59418152Y-90262380D02*
X59418152Y-90119523D01*
X59418152Y-90119523D02*
X59465771Y-90024285D01*
X59465771Y-90024285D02*
X59561009Y-89976666D01*
X59561009Y-89976666D02*
X60084819Y-89976666D01*
X59180057Y-89548094D02*
X59132438Y-89500475D01*
X59132438Y-89500475D02*
X59084819Y-89405237D01*
X59084819Y-89405237D02*
X59084819Y-89167142D01*
X59084819Y-89167142D02*
X59132438Y-89071904D01*
X59132438Y-89071904D02*
X59180057Y-89024285D01*
X59180057Y-89024285D02*
X59275295Y-88976666D01*
X59275295Y-88976666D02*
X59370533Y-88976666D01*
X59370533Y-88976666D02*
X59513390Y-89024285D01*
X59513390Y-89024285D02*
X60084819Y-89595713D01*
X60084819Y-89595713D02*
X60084819Y-88976666D01*
X60180057Y-88786190D02*
X60180057Y-88024285D01*
X59180057Y-87833808D02*
X59132438Y-87786189D01*
X59132438Y-87786189D02*
X59084819Y-87690951D01*
X59084819Y-87690951D02*
X59084819Y-87452856D01*
X59084819Y-87452856D02*
X59132438Y-87357618D01*
X59132438Y-87357618D02*
X59180057Y-87309999D01*
X59180057Y-87309999D02*
X59275295Y-87262380D01*
X59275295Y-87262380D02*
X59370533Y-87262380D01*
X59370533Y-87262380D02*
X59513390Y-87309999D01*
X59513390Y-87309999D02*
X60084819Y-87881427D01*
X60084819Y-87881427D02*
X60084819Y-87262380D01*
D11*
G04 #@! TO.C,NPN1_5*
X100629000Y-147420000D02*
X100629000Y-157660000D01*
X103760000Y-147420000D02*
X103760000Y-157660000D01*
X105270000Y-147420000D02*
X100629000Y-147420000D01*
X105270000Y-147420000D02*
X105270000Y-157660000D01*
X105270000Y-150690000D02*
X103760000Y-150690000D01*
X105270000Y-154391000D02*
X103760000Y-154391000D01*
X105270000Y-157660000D02*
X100629000Y-157660000D01*
G04 #@! TO.C,NPN2_3*
X66675000Y-105880000D02*
X71316000Y-105880000D01*
X66675000Y-109149000D02*
X68185000Y-109149000D01*
X66675000Y-112850000D02*
X68185000Y-112850000D01*
X66675000Y-116120000D02*
X66675000Y-105880000D01*
X66675000Y-116120000D02*
X71316000Y-116120000D01*
X68185000Y-116120000D02*
X68185000Y-105880000D01*
X71316000Y-116120000D02*
X71316000Y-105880000D01*
G04 #@! TO.C,PullDown2_3*
X60630000Y-107540000D02*
X60960000Y-107540000D01*
X60630000Y-114080000D02*
X60630000Y-107540000D01*
X60960000Y-114080000D02*
X60630000Y-114080000D01*
X63040000Y-114080000D02*
X63370000Y-114080000D01*
X63370000Y-107540000D02*
X63040000Y-107540000D01*
X63370000Y-114080000D02*
X63370000Y-107540000D01*
G04 #@! TO.C,PullDown1_3*
X110630000Y-109540000D02*
X110630000Y-116080000D01*
X110630000Y-116080000D02*
X110960000Y-116080000D01*
X110960000Y-109540000D02*
X110630000Y-109540000D01*
X113040000Y-109540000D02*
X113370000Y-109540000D01*
X113370000Y-109540000D02*
X113370000Y-116080000D01*
X113370000Y-116080000D02*
X113040000Y-116080000D01*
G04 #@! TO.C,R2*
X58630000Y-178540000D02*
X58630000Y-185080000D01*
X58630000Y-185080000D02*
X58960000Y-185080000D01*
X58960000Y-178540000D02*
X58630000Y-178540000D01*
X61040000Y-178540000D02*
X61370000Y-178540000D01*
X61370000Y-178540000D02*
X61370000Y-185080000D01*
X61370000Y-185080000D02*
X61040000Y-185080000D01*
G04 #@! TO.C,PullDown2_1*
X60630000Y-70540000D02*
X60960000Y-70540000D01*
X60630000Y-77080000D02*
X60630000Y-70540000D01*
X60960000Y-77080000D02*
X60630000Y-77080000D01*
X63040000Y-77080000D02*
X63370000Y-77080000D01*
X63370000Y-70540000D02*
X63040000Y-70540000D01*
X63370000Y-77080000D02*
X63370000Y-70540000D01*
G04 #@! TO.C,NPN1_2*
X100629000Y-85420000D02*
X100629000Y-95660000D01*
X103760000Y-85420000D02*
X103760000Y-95660000D01*
X105270000Y-85420000D02*
X100629000Y-85420000D01*
X105270000Y-85420000D02*
X105270000Y-95660000D01*
X105270000Y-88690000D02*
X103760000Y-88690000D01*
X105270000Y-92391000D02*
X103760000Y-92391000D01*
X105270000Y-95660000D02*
X100629000Y-95660000D01*
G04 #@! TO.C,PullDown2_5*
X60630000Y-149730000D02*
X60960000Y-149730000D01*
X60630000Y-156270000D02*
X60630000Y-149730000D01*
X60960000Y-156270000D02*
X60630000Y-156270000D01*
X63040000Y-156270000D02*
X63370000Y-156270000D01*
X63370000Y-149730000D02*
X63040000Y-149730000D01*
X63370000Y-156270000D02*
X63370000Y-149730000D01*
G04 #@! TO.C,PullDown1_1*
X110630000Y-71730000D02*
X110630000Y-78270000D01*
X110630000Y-78270000D02*
X110960000Y-78270000D01*
X110960000Y-71730000D02*
X110630000Y-71730000D01*
X113040000Y-71730000D02*
X113370000Y-71730000D01*
X113370000Y-71730000D02*
X113370000Y-78270000D01*
X113370000Y-78270000D02*
X113040000Y-78270000D01*
G04 #@! TO.C,NPN1_1*
X100629000Y-68880000D02*
X100629000Y-79120000D01*
X103760000Y-68880000D02*
X103760000Y-79120000D01*
X105270000Y-68880000D02*
X100629000Y-68880000D01*
X105270000Y-68880000D02*
X105270000Y-79120000D01*
X105270000Y-72150000D02*
X103760000Y-72150000D01*
X105270000Y-75851000D02*
X103760000Y-75851000D01*
X105270000Y-79120000D02*
X100629000Y-79120000D01*
G04 #@! TO.C,NPN1_3*
X100629000Y-107150000D02*
X100629000Y-117390000D01*
X103760000Y-107150000D02*
X103760000Y-117390000D01*
X105270000Y-107150000D02*
X100629000Y-107150000D01*
X105270000Y-107150000D02*
X105270000Y-117390000D01*
X105270000Y-110420000D02*
X103760000Y-110420000D01*
X105270000Y-114121000D02*
X103760000Y-114121000D01*
X105270000Y-117390000D02*
X100629000Y-117390000D01*
G04 #@! TO.C,R3*
X53630000Y-178540000D02*
X53630000Y-185080000D01*
X53630000Y-185080000D02*
X53960000Y-185080000D01*
X53960000Y-178540000D02*
X53630000Y-178540000D01*
X56040000Y-178540000D02*
X56370000Y-178540000D01*
X56370000Y-178540000D02*
X56370000Y-185080000D01*
X56370000Y-185080000D02*
X56040000Y-185080000D01*
G04 #@! TO.C,PullDown1_5*
X110630000Y-148810000D02*
X110630000Y-155350000D01*
X110630000Y-155350000D02*
X110960000Y-155350000D01*
X110960000Y-148810000D02*
X110630000Y-148810000D01*
X113040000Y-148810000D02*
X113370000Y-148810000D01*
X113370000Y-148810000D02*
X113370000Y-155350000D01*
X113370000Y-155350000D02*
X113040000Y-155350000D01*
G04 #@! TO.C,PullDown1_4*
X110630000Y-127730000D02*
X110630000Y-134270000D01*
X110630000Y-134270000D02*
X110960000Y-134270000D01*
X110960000Y-127730000D02*
X110630000Y-127730000D01*
X113040000Y-127730000D02*
X113370000Y-127730000D01*
X113370000Y-127730000D02*
X113370000Y-134270000D01*
X113370000Y-134270000D02*
X113040000Y-134270000D01*
G04 #@! TO.C,NPN2_4*
X66675000Y-125880000D02*
X71316000Y-125880000D01*
X66675000Y-129149000D02*
X68185000Y-129149000D01*
X66675000Y-132850000D02*
X68185000Y-132850000D01*
X66675000Y-136120000D02*
X66675000Y-125880000D01*
X66675000Y-136120000D02*
X71316000Y-136120000D01*
X68185000Y-136120000D02*
X68185000Y-125880000D01*
X71316000Y-136120000D02*
X71316000Y-125880000D01*
G04 #@! TO.C,NPN1_4*
X100629000Y-125880000D02*
X100629000Y-136120000D01*
X103760000Y-125880000D02*
X103760000Y-136120000D01*
X105270000Y-125880000D02*
X100629000Y-125880000D01*
X105270000Y-125880000D02*
X105270000Y-136120000D01*
X105270000Y-129150000D02*
X103760000Y-129150000D01*
X105270000Y-132851000D02*
X103760000Y-132851000D01*
X105270000Y-136120000D02*
X100629000Y-136120000D01*
G04 #@! TO.C,A1*
X26970000Y-109580000D02*
X26970000Y-153020000D01*
X26970000Y-109580000D02*
X32050000Y-109580000D01*
X26970000Y-153020000D02*
X45010000Y-153020000D01*
X29640000Y-112250000D02*
X26970000Y-112250000D01*
X29640000Y-150350000D02*
X26970000Y-150350000D01*
X29640000Y-150350000D02*
X29640000Y-112250000D01*
X32050000Y-107040000D02*
X39930000Y-107040000D01*
X32050000Y-117460000D02*
X32050000Y-107040000D01*
X39930000Y-107040000D02*
X39930000Y-117460000D01*
X39930000Y-117460000D02*
X32050000Y-117460000D01*
X42340000Y-112250000D02*
X45010000Y-112250000D01*
X42340000Y-147810000D02*
X42340000Y-112250000D01*
X42340000Y-147810000D02*
X42340000Y-150350000D01*
X42340000Y-147810000D02*
X45010000Y-147810000D01*
X42340000Y-150350000D02*
X45010000Y-150350000D01*
X45010000Y-109580000D02*
X39930000Y-109580000D01*
X45010000Y-147810000D02*
X45010000Y-109580000D01*
X45010000Y-153020000D02*
X45010000Y-150350000D01*
G04 #@! TO.C,U1*
X125360000Y-157940000D02*
X140810000Y-157940000D01*
X125360000Y-187140000D02*
X125360000Y-157940000D01*
X125360000Y-187140000D02*
X125360000Y-187140000D01*
X125936000Y-181476000D02*
X136604000Y-181476000D01*
X125936000Y-186810000D02*
X125936000Y-181476000D01*
X125936000Y-186810000D02*
X125936000Y-186810000D01*
X136604000Y-181476000D02*
X136604000Y-186810000D01*
X136604000Y-186810000D02*
X125936000Y-186810000D01*
X136604000Y-186810000D02*
X136604000Y-186810000D01*
X140810000Y-157940000D02*
X140810000Y-187140000D01*
X140810000Y-187140000D02*
X125360000Y-187140000D01*
X127700000Y-187676000D02*
X127220000Y-187676000D01*
X127460000Y-187340000D01*
X127700000Y-187676000D01*
G36*
X127700000Y-187676000D02*
G01*
X127220000Y-187676000D01*
X127460000Y-187340000D01*
X127700000Y-187676000D01*
G37*
G04 #@! TO.C,PullDown1_2*
X110630000Y-87270000D02*
X110630000Y-93810000D01*
X110630000Y-93810000D02*
X110960000Y-93810000D01*
X110960000Y-87270000D02*
X110630000Y-87270000D01*
X113040000Y-87270000D02*
X113370000Y-87270000D01*
X113370000Y-87270000D02*
X113370000Y-93810000D01*
X113370000Y-93810000D02*
X113040000Y-93810000D01*
G04 #@! TO.C,NPN2_1*
X66675000Y-68420000D02*
X71316000Y-68420000D01*
X66675000Y-71689000D02*
X68185000Y-71689000D01*
X66675000Y-75390000D02*
X68185000Y-75390000D01*
X66675000Y-78660000D02*
X66675000Y-68420000D01*
X66675000Y-78660000D02*
X71316000Y-78660000D01*
X68185000Y-78660000D02*
X68185000Y-68420000D01*
X71316000Y-78660000D02*
X71316000Y-68420000D01*
G04 #@! TO.C,R1*
X30630000Y-48730000D02*
X30630000Y-55270000D01*
X30630000Y-55270000D02*
X30960000Y-55270000D01*
X30960000Y-48730000D02*
X30630000Y-48730000D01*
X33040000Y-48730000D02*
X33370000Y-48730000D01*
X33370000Y-48730000D02*
X33370000Y-55270000D01*
X33370000Y-55270000D02*
X33040000Y-55270000D01*
G04 #@! TO.C,NPN2_2*
X66675000Y-85420000D02*
X71316000Y-85420000D01*
X66675000Y-88689000D02*
X68185000Y-88689000D01*
X66675000Y-92390000D02*
X68185000Y-92390000D01*
X66675000Y-95660000D02*
X66675000Y-85420000D01*
X66675000Y-95660000D02*
X71316000Y-95660000D01*
X68185000Y-95660000D02*
X68185000Y-85420000D01*
X71316000Y-95660000D02*
X71316000Y-85420000D01*
G04 #@! TO.C,NPN2_5*
X66675000Y-148420000D02*
X71316000Y-148420000D01*
X66675000Y-151689000D02*
X68185000Y-151689000D01*
X66675000Y-155390000D02*
X68185000Y-155390000D01*
X66675000Y-158660000D02*
X66675000Y-148420000D01*
X66675000Y-158660000D02*
X71316000Y-158660000D01*
X68185000Y-158660000D02*
X68185000Y-148420000D01*
X71316000Y-158660000D02*
X71316000Y-148420000D01*
G04 #@! TO.C,PullDown2_4*
X60630000Y-127920000D02*
X60960000Y-127920000D01*
X60630000Y-134460000D02*
X60630000Y-127920000D01*
X60960000Y-134460000D02*
X60630000Y-134460000D01*
X63040000Y-134460000D02*
X63370000Y-134460000D01*
X63370000Y-127920000D02*
X63040000Y-127920000D01*
X63370000Y-134460000D02*
X63370000Y-127920000D01*
G04 #@! TO.C,PullDown2_2*
X60630000Y-88540000D02*
X60960000Y-88540000D01*
X60630000Y-95080000D02*
X60630000Y-88540000D01*
X60960000Y-95080000D02*
X60630000Y-95080000D01*
X63040000Y-95080000D02*
X63370000Y-95080000D01*
X63370000Y-88540000D02*
X63040000Y-88540000D01*
X63370000Y-95080000D02*
X63370000Y-88540000D01*
G04 #@! TD*
%LPC*%
D12*
G04 #@! TO.C,NPN1_5*
X102000000Y-150000000D03*
D13*
X102000000Y-152540000D03*
X102000000Y-155080000D03*
G04 #@! TD*
D14*
G04 #@! TO.C,V-led1_4*
X93000000Y-135000000D03*
G04 #@! TD*
D12*
G04 #@! TO.C,NPN2_3*
X69945000Y-113540000D03*
D13*
X69945000Y-111000000D03*
X69945000Y-108460000D03*
G04 #@! TD*
D15*
G04 #@! TO.C,PullDown2_3*
X62000000Y-114620000D03*
D16*
X62000000Y-107000000D03*
G04 #@! TD*
D17*
G04 #@! TO.C,V+_transformer1*
X45000000Y-51190000D03*
G04 #@! TD*
D15*
G04 #@! TO.C,PullDown1_3*
X112000000Y-109000000D03*
D16*
X112000000Y-116620000D03*
G04 #@! TD*
D15*
G04 #@! TO.C,R2*
X60000000Y-178000000D03*
D16*
X60000000Y-185620000D03*
G04 #@! TD*
D18*
G04 #@! TO.C,V-led2_3*
X77000000Y-116000000D03*
G04 #@! TD*
D15*
G04 #@! TO.C,PullDown2_1*
X62000000Y-77620000D03*
D16*
X62000000Y-70000000D03*
G04 #@! TD*
D14*
G04 #@! TO.C,V-led1_3*
X93000000Y-116000000D03*
G04 #@! TD*
D18*
G04 #@! TO.C,V+led2_3*
X77000000Y-107000000D03*
G04 #@! TD*
G04 #@! TO.C,V+led2_1*
X77000000Y-70000000D03*
G04 #@! TD*
D12*
G04 #@! TO.C,NPN1_2*
X102000000Y-88000000D03*
D13*
X102000000Y-90540000D03*
X102000000Y-93080000D03*
G04 #@! TD*
D15*
G04 #@! TO.C,PullDown2_5*
X62000000Y-156810000D03*
D16*
X62000000Y-149190000D03*
G04 #@! TD*
D15*
G04 #@! TO.C,PullDown1_1*
X112000000Y-71190000D03*
D16*
X112000000Y-78810000D03*
G04 #@! TD*
D17*
G04 #@! TO.C,V-_transformer1*
X62000000Y-51190000D03*
G04 #@! TD*
D12*
G04 #@! TO.C,NPN1_1*
X102000000Y-71460000D03*
D13*
X102000000Y-74000000D03*
X102000000Y-76540000D03*
G04 #@! TD*
D14*
G04 #@! TO.C,V+led1_2*
X93000000Y-87000000D03*
G04 #@! TD*
D12*
G04 #@! TO.C,NPN1_3*
X102000000Y-109730000D03*
D13*
X102000000Y-112270000D03*
X102000000Y-114810000D03*
G04 #@! TD*
D15*
G04 #@! TO.C,R3*
X55000000Y-178000000D03*
D16*
X55000000Y-185620000D03*
G04 #@! TD*
D18*
G04 #@! TO.C,V-led2_1*
X77000000Y-78000000D03*
G04 #@! TD*
D15*
G04 #@! TO.C,PullDown1_5*
X112000000Y-148270000D03*
D16*
X112000000Y-155890000D03*
G04 #@! TD*
D14*
G04 #@! TO.C,V+led1_3*
X93000000Y-107000000D03*
G04 #@! TD*
D15*
G04 #@! TO.C,PullDown1_4*
X112000000Y-127190000D03*
D16*
X112000000Y-134810000D03*
G04 #@! TD*
D12*
G04 #@! TO.C,NPN2_4*
X69945000Y-133540000D03*
D13*
X69945000Y-131000000D03*
X69945000Y-128460000D03*
G04 #@! TD*
D14*
G04 #@! TO.C,V+led1_5*
X93000000Y-148000000D03*
G04 #@! TD*
D12*
G04 #@! TO.C,NPN1_4*
X102000000Y-128460000D03*
D13*
X102000000Y-131000000D03*
X102000000Y-133540000D03*
G04 #@! TD*
D17*
G04 #@! TO.C,V+_arduino1*
X30000000Y-183000000D03*
G04 #@! TD*
D18*
G04 #@! TO.C,V+led2_5*
X77000000Y-148000000D03*
G04 #@! TD*
G04 #@! TO.C,V-led2_5*
X77000000Y-157000000D03*
G04 #@! TD*
G04 #@! TO.C,V+led2_4*
X77000000Y-128000000D03*
G04 #@! TD*
D17*
G04 #@! TO.C,GND_arduino1*
X40000000Y-183000000D03*
G04 #@! TD*
D14*
G04 #@! TO.C,V-led1_5*
X93000000Y-157000000D03*
G04 #@! TD*
G04 #@! TO.C,V+led1_1*
X93000000Y-69540000D03*
G04 #@! TD*
G04 #@! TO.C,V+led1_4*
X93000000Y-128000000D03*
G04 #@! TD*
D19*
G04 #@! TO.C,A1*
X43610000Y-149080000D03*
D16*
X43610000Y-146540000D03*
X43610000Y-144000000D03*
X43610000Y-141460000D03*
X43610000Y-138920000D03*
X43610000Y-136380000D03*
X43610000Y-133840000D03*
X43610000Y-131300000D03*
X43610000Y-128760000D03*
X43610000Y-126220000D03*
X43610000Y-123680000D03*
X43610000Y-121140000D03*
X43610000Y-118600000D03*
X43610000Y-116060000D03*
X43610000Y-113520000D03*
X28370000Y-113520000D03*
X28370000Y-116060000D03*
X28370000Y-118600000D03*
X28370000Y-121140000D03*
X28370000Y-123680000D03*
X28370000Y-126220000D03*
X28370000Y-128760000D03*
X28370000Y-131300000D03*
X28370000Y-133840000D03*
X28370000Y-136380000D03*
X28370000Y-138920000D03*
X28370000Y-141460000D03*
X28370000Y-144000000D03*
X28370000Y-146540000D03*
X28370000Y-149080000D03*
G04 #@! TD*
D18*
G04 #@! TO.C,V+led2_2*
X77000000Y-87000000D03*
G04 #@! TD*
G04 #@! TO.C,V-led2_4*
X77000000Y-135000000D03*
G04 #@! TD*
D14*
G04 #@! TO.C,V-led1_1*
X93000000Y-78000000D03*
G04 #@! TD*
D20*
G04 #@! TO.C,U1*
X127460000Y-185540000D03*
D21*
X127460000Y-183000000D03*
X130000000Y-185540000D03*
X130000000Y-183000000D03*
X132540000Y-185540000D03*
X132540000Y-183000000D03*
X135080000Y-185540000D03*
X135080000Y-183000000D03*
G04 #@! TD*
D15*
G04 #@! TO.C,PullDown1_2*
X112000000Y-86730000D03*
D16*
X112000000Y-94350000D03*
G04 #@! TD*
D12*
G04 #@! TO.C,NPN2_1*
X69945000Y-76080000D03*
D13*
X69945000Y-73540000D03*
X69945000Y-71000000D03*
G04 #@! TD*
D15*
G04 #@! TO.C,R1*
X32000000Y-48190000D03*
D16*
X32000000Y-55810000D03*
G04 #@! TD*
D12*
G04 #@! TO.C,NPN2_2*
X69945000Y-93080000D03*
D13*
X69945000Y-90540000D03*
X69945000Y-88000000D03*
G04 #@! TD*
D14*
G04 #@! TO.C,V-led1_2*
X93000000Y-95000000D03*
G04 #@! TD*
D12*
G04 #@! TO.C,NPN2_5*
X69945000Y-156080000D03*
D13*
X69945000Y-153540000D03*
X69945000Y-151000000D03*
G04 #@! TD*
D15*
G04 #@! TO.C,PullDown2_4*
X62000000Y-135000000D03*
D16*
X62000000Y-127380000D03*
G04 #@! TD*
D18*
G04 #@! TO.C,V-led2_2*
X77000000Y-95000000D03*
G04 #@! TD*
D15*
G04 #@! TO.C,PullDown2_2*
X62000000Y-95620000D03*
D16*
X62000000Y-88000000D03*
G04 #@! TD*
%LPD*%
M02*
