%TF.GenerationSoftware,KiCad,Pcbnew,9.0.1*%
%TF.CreationDate,2025-05-09T02:34:20+02:00*%
%TF.ProjectId,receiver_battery,72656365-6976-4657-925f-626174746572,rev?*%
%TF.SameCoordinates,Original*%
%TF.FileFunction,Drillmap*%
%TF.FilePolarity,Positive*%
%FSLAX45Y45*%
G04 Gerber Fmt 4.5, Leading zero omitted, Abs format (unit mm)*
G04 Created by KiCad (PCBNEW 9.0.1) date 2025-05-09 02:34:20*
%MOMM*%
%LPD*%
G01*
G04 APERTURE LIST*
%ADD10C,0.050000*%
%ADD11C,0.200000*%
%ADD12C,0.100000*%
%ADD13C,0.110000*%
%ADD14C,0.215000*%
G04 APERTURE END LIST*
D10*
X2000000Y-4100000D02*
X14200000Y-4100000D01*
X14200000Y-19500000D01*
X2000000Y-19500000D01*
X2000000Y-4100000D01*
D11*
D12*
X10048850Y-17148420D02*
X10078850Y-17178420D01*
X10078850Y-17148420D02*
X10048850Y-17178420D01*
X11959680Y-12553730D02*
X11989680Y-12583730D01*
X11989680Y-12553730D02*
X11959680Y-12583730D01*
X12039190Y-14305550D02*
X12069190Y-14335550D01*
X12069190Y-14305550D02*
X12039190Y-14335550D01*
X12546490Y-12363450D02*
X12576490Y-12393450D01*
X12576490Y-12363450D02*
X12546490Y-12393450D01*
X12558240Y-12449790D02*
X12588240Y-12479790D01*
X12588240Y-12449790D02*
X12558240Y-12479790D01*
X12853830Y-11340150D02*
X12883830Y-11370150D01*
X12883830Y-11340150D02*
X12853830Y-11370150D01*
X12970410Y-12294120D02*
X13000410Y-12324120D01*
X13000410Y-12294120D02*
X12970410Y-12324120D01*
X13151880Y-12526310D02*
X13181880Y-12556310D01*
X13181880Y-12526310D02*
X13151880Y-12556310D01*
X3240000Y-4819000D02*
G75*
G02*
X3160000Y-4819000I-40000J0D01*
G01*
X3160000Y-4819000D02*
G75*
G02*
X3240000Y-4819000I40000J0D01*
G01*
X3240000Y-5581000D02*
G75*
G02*
X3160000Y-5581000I-40000J0D01*
G01*
X3160000Y-5581000D02*
G75*
G02*
X3240000Y-5581000I40000J0D01*
G01*
X5540000Y-17800000D02*
G75*
G02*
X5460000Y-17800000I-40000J0D01*
G01*
X5460000Y-17800000D02*
G75*
G02*
X5540000Y-17800000I40000J0D01*
G01*
X5540000Y-18562000D02*
G75*
G02*
X5460000Y-18562000I-40000J0D01*
G01*
X5460000Y-18562000D02*
G75*
G02*
X5540000Y-18562000I40000J0D01*
G01*
X6040000Y-17800000D02*
G75*
G02*
X5960000Y-17800000I-40000J0D01*
G01*
X5960000Y-17800000D02*
G75*
G02*
X6040000Y-17800000I40000J0D01*
G01*
X6040000Y-18562000D02*
G75*
G02*
X5960000Y-18562000I-40000J0D01*
G01*
X5960000Y-18562000D02*
G75*
G02*
X6040000Y-18562000I40000J0D01*
G01*
X6240000Y-7000000D02*
G75*
G02*
X6160000Y-7000000I-40000J0D01*
G01*
X6160000Y-7000000D02*
G75*
G02*
X6240000Y-7000000I40000J0D01*
G01*
X6240000Y-7762000D02*
G75*
G02*
X6160000Y-7762000I-40000J0D01*
G01*
X6160000Y-7762000D02*
G75*
G02*
X6240000Y-7762000I40000J0D01*
G01*
X6240000Y-8800000D02*
G75*
G02*
X6160000Y-8800000I-40000J0D01*
G01*
X6160000Y-8800000D02*
G75*
G02*
X6240000Y-8800000I40000J0D01*
G01*
X6240000Y-9562000D02*
G75*
G02*
X6160000Y-9562000I-40000J0D01*
G01*
X6160000Y-9562000D02*
G75*
G02*
X6240000Y-9562000I40000J0D01*
G01*
X6240000Y-10700000D02*
G75*
G02*
X6160000Y-10700000I-40000J0D01*
G01*
X6160000Y-10700000D02*
G75*
G02*
X6240000Y-10700000I40000J0D01*
G01*
X6240000Y-11462000D02*
G75*
G02*
X6160000Y-11462000I-40000J0D01*
G01*
X6160000Y-11462000D02*
G75*
G02*
X6240000Y-11462000I40000J0D01*
G01*
X6240000Y-12738000D02*
G75*
G02*
X6160000Y-12738000I-40000J0D01*
G01*
X6160000Y-12738000D02*
G75*
G02*
X6240000Y-12738000I40000J0D01*
G01*
X6240000Y-13500000D02*
G75*
G02*
X6160000Y-13500000I-40000J0D01*
G01*
X6160000Y-13500000D02*
G75*
G02*
X6240000Y-13500000I40000J0D01*
G01*
X6240000Y-14919000D02*
G75*
G02*
X6160000Y-14919000I-40000J0D01*
G01*
X6160000Y-14919000D02*
G75*
G02*
X6240000Y-14919000I40000J0D01*
G01*
X6240000Y-15681000D02*
G75*
G02*
X6160000Y-15681000I-40000J0D01*
G01*
X6160000Y-15681000D02*
G75*
G02*
X6240000Y-15681000I40000J0D01*
G01*
X11240000Y-7119000D02*
G75*
G02*
X11160000Y-7119000I-40000J0D01*
G01*
X11160000Y-7119000D02*
G75*
G02*
X11240000Y-7119000I40000J0D01*
G01*
X11240000Y-7881000D02*
G75*
G02*
X11160000Y-7881000I-40000J0D01*
G01*
X11160000Y-7881000D02*
G75*
G02*
X11240000Y-7881000I40000J0D01*
G01*
X11240000Y-8673000D02*
G75*
G02*
X11160000Y-8673000I-40000J0D01*
G01*
X11160000Y-8673000D02*
G75*
G02*
X11240000Y-8673000I40000J0D01*
G01*
X11240000Y-9435000D02*
G75*
G02*
X11160000Y-9435000I-40000J0D01*
G01*
X11160000Y-9435000D02*
G75*
G02*
X11240000Y-9435000I40000J0D01*
G01*
X11240000Y-10900000D02*
G75*
G02*
X11160000Y-10900000I-40000J0D01*
G01*
X11160000Y-10900000D02*
G75*
G02*
X11240000Y-10900000I40000J0D01*
G01*
X11240000Y-11662000D02*
G75*
G02*
X11160000Y-11662000I-40000J0D01*
G01*
X11160000Y-11662000D02*
G75*
G02*
X11240000Y-11662000I40000J0D01*
G01*
X11240000Y-12719000D02*
G75*
G02*
X11160000Y-12719000I-40000J0D01*
G01*
X11160000Y-12719000D02*
G75*
G02*
X11240000Y-12719000I40000J0D01*
G01*
X11240000Y-13481000D02*
G75*
G02*
X11160000Y-13481000I-40000J0D01*
G01*
X11160000Y-13481000D02*
G75*
G02*
X11240000Y-13481000I40000J0D01*
G01*
X11240000Y-14827000D02*
G75*
G02*
X11160000Y-14827000I-40000J0D01*
G01*
X11160000Y-14827000D02*
G75*
G02*
X11240000Y-14827000I40000J0D01*
G01*
X11240000Y-15589000D02*
G75*
G02*
X11160000Y-15589000I-40000J0D01*
G01*
X11160000Y-15589000D02*
G75*
G02*
X11240000Y-15589000I40000J0D01*
G01*
X2837000Y-11302000D02*
X2837000Y-11402000D01*
X2787000Y-11352000D02*
X2887000Y-11352000D01*
X2837000Y-11556000D02*
X2837000Y-11656000D01*
X2787000Y-11606000D02*
X2887000Y-11606000D01*
X2837000Y-11810000D02*
X2837000Y-11910000D01*
X2787000Y-11860000D02*
X2887000Y-11860000D01*
X2837000Y-12064000D02*
X2837000Y-12164000D01*
X2787000Y-12114000D02*
X2887000Y-12114000D01*
X2837000Y-12318000D02*
X2837000Y-12418000D01*
X2787000Y-12368000D02*
X2887000Y-12368000D01*
X2837000Y-12572000D02*
X2837000Y-12672000D01*
X2787000Y-12622000D02*
X2887000Y-12622000D01*
X2837000Y-12826000D02*
X2837000Y-12926000D01*
X2787000Y-12876000D02*
X2887000Y-12876000D01*
X2837000Y-13080000D02*
X2837000Y-13180000D01*
X2787000Y-13130000D02*
X2887000Y-13130000D01*
X2837000Y-13334000D02*
X2837000Y-13434000D01*
X2787000Y-13384000D02*
X2887000Y-13384000D01*
X2837000Y-13588000D02*
X2837000Y-13688000D01*
X2787000Y-13638000D02*
X2887000Y-13638000D01*
X2837000Y-13842000D02*
X2837000Y-13942000D01*
X2787000Y-13892000D02*
X2887000Y-13892000D01*
X2837000Y-14096000D02*
X2837000Y-14196000D01*
X2787000Y-14146000D02*
X2887000Y-14146000D01*
X2837000Y-14350000D02*
X2837000Y-14450000D01*
X2787000Y-14400000D02*
X2887000Y-14400000D01*
X2837000Y-14604000D02*
X2837000Y-14704000D01*
X2787000Y-14654000D02*
X2887000Y-14654000D01*
X2837000Y-14858000D02*
X2837000Y-14958000D01*
X2787000Y-14908000D02*
X2887000Y-14908000D01*
X4361000Y-11302000D02*
X4361000Y-11402000D01*
X4311000Y-11352000D02*
X4411000Y-11352000D01*
X4361000Y-11556000D02*
X4361000Y-11656000D01*
X4311000Y-11606000D02*
X4411000Y-11606000D01*
X4361000Y-11810000D02*
X4361000Y-11910000D01*
X4311000Y-11860000D02*
X4411000Y-11860000D01*
X4361000Y-12064000D02*
X4361000Y-12164000D01*
X4311000Y-12114000D02*
X4411000Y-12114000D01*
X4361000Y-12318000D02*
X4361000Y-12418000D01*
X4311000Y-12368000D02*
X4411000Y-12368000D01*
X4361000Y-12572000D02*
X4361000Y-12672000D01*
X4311000Y-12622000D02*
X4411000Y-12622000D01*
X4361000Y-12826000D02*
X4361000Y-12926000D01*
X4311000Y-12876000D02*
X4411000Y-12876000D01*
X4361000Y-13080000D02*
X4361000Y-13180000D01*
X4311000Y-13130000D02*
X4411000Y-13130000D01*
X4361000Y-13334000D02*
X4361000Y-13434000D01*
X4311000Y-13384000D02*
X4411000Y-13384000D01*
X4361000Y-13588000D02*
X4361000Y-13688000D01*
X4311000Y-13638000D02*
X4411000Y-13638000D01*
X4361000Y-13842000D02*
X4361000Y-13942000D01*
X4311000Y-13892000D02*
X4411000Y-13892000D01*
X4361000Y-14096000D02*
X4361000Y-14196000D01*
X4311000Y-14146000D02*
X4411000Y-14146000D01*
X4361000Y-14350000D02*
X4361000Y-14450000D01*
X4311000Y-14400000D02*
X4411000Y-14400000D01*
X4361000Y-14604000D02*
X4361000Y-14704000D01*
X4311000Y-14654000D02*
X4411000Y-14654000D01*
X4361000Y-14858000D02*
X4361000Y-14958000D01*
X4311000Y-14908000D02*
X4411000Y-14908000D01*
X12746000Y-18250000D02*
X12746000Y-18350000D01*
X12696000Y-18300000D02*
X12796000Y-18300000D01*
X12746000Y-18504000D02*
X12746000Y-18604000D01*
X12696000Y-18554000D02*
X12796000Y-18554000D01*
X13000000Y-18250000D02*
X13000000Y-18350000D01*
X12950000Y-18300000D02*
X13050000Y-18300000D01*
X13000000Y-18504000D02*
X13000000Y-18604000D01*
X12950000Y-18554000D02*
X13050000Y-18554000D01*
X13254000Y-18250000D02*
X13254000Y-18350000D01*
X13204000Y-18300000D02*
X13304000Y-18300000D01*
X13254000Y-18504000D02*
X13254000Y-18604000D01*
X13204000Y-18554000D02*
X13304000Y-18554000D01*
X13508000Y-18250000D02*
X13508000Y-18350000D01*
X13458000Y-18300000D02*
X13558000Y-18300000D01*
X13508000Y-18504000D02*
X13508000Y-18604000D01*
X13458000Y-18554000D02*
X13558000Y-18554000D01*
D13*
X7033391Y-7138891D02*
X7033391Y-7061109D01*
X6955609Y-7061109D01*
X6955609Y-7138891D01*
X7033391Y-7138891D01*
X7033391Y-7392891D02*
X7033391Y-7315109D01*
X6955609Y-7315109D01*
X6955609Y-7392891D01*
X7033391Y-7392891D01*
X7033391Y-7646891D02*
X7033391Y-7569109D01*
X6955609Y-7569109D01*
X6955609Y-7646891D01*
X7033391Y-7646891D01*
X7033391Y-8838891D02*
X7033391Y-8761109D01*
X6955609Y-8761109D01*
X6955609Y-8838891D01*
X7033391Y-8838891D01*
X7033391Y-9092891D02*
X7033391Y-9015109D01*
X6955609Y-9015109D01*
X6955609Y-9092891D01*
X7033391Y-9092891D01*
X7033391Y-9346891D02*
X7033391Y-9269109D01*
X6955609Y-9269109D01*
X6955609Y-9346891D01*
X7033391Y-9346891D01*
X7033391Y-10884891D02*
X7033391Y-10807109D01*
X6955609Y-10807109D01*
X6955609Y-10884891D01*
X7033391Y-10884891D01*
X7033391Y-11138891D02*
X7033391Y-11061109D01*
X6955609Y-11061109D01*
X6955609Y-11138891D01*
X7033391Y-11138891D01*
X7033391Y-11392891D02*
X7033391Y-11315109D01*
X6955609Y-11315109D01*
X6955609Y-11392891D01*
X7033391Y-11392891D01*
X7033391Y-12884891D02*
X7033391Y-12807109D01*
X6955609Y-12807109D01*
X6955609Y-12884891D01*
X7033391Y-12884891D01*
X7033391Y-13138891D02*
X7033391Y-13061109D01*
X6955609Y-13061109D01*
X6955609Y-13138891D01*
X7033391Y-13138891D01*
X7033391Y-13392891D02*
X7033391Y-13315109D01*
X6955609Y-13315109D01*
X6955609Y-13392891D01*
X7033391Y-13392891D01*
X7033391Y-15138891D02*
X7033391Y-15061109D01*
X6955609Y-15061109D01*
X6955609Y-15138891D01*
X7033391Y-15138891D01*
X7033391Y-15392891D02*
X7033391Y-15315109D01*
X6955609Y-15315109D01*
X6955609Y-15392891D01*
X7033391Y-15392891D01*
X7033391Y-15646891D02*
X7033391Y-15569109D01*
X6955609Y-15569109D01*
X6955609Y-15646891D01*
X7033391Y-15646891D01*
X10238891Y-7184891D02*
X10238891Y-7107109D01*
X10161109Y-7107109D01*
X10161109Y-7184891D01*
X10238891Y-7184891D01*
X10238891Y-7438891D02*
X10238891Y-7361109D01*
X10161109Y-7361109D01*
X10161109Y-7438891D01*
X10238891Y-7438891D01*
X10238891Y-7692891D02*
X10238891Y-7615109D01*
X10161109Y-7615109D01*
X10161109Y-7692891D01*
X10238891Y-7692891D01*
X10238891Y-8838891D02*
X10238891Y-8761109D01*
X10161109Y-8761109D01*
X10161109Y-8838891D01*
X10238891Y-8838891D01*
X10238891Y-9092891D02*
X10238891Y-9015109D01*
X10161109Y-9015109D01*
X10161109Y-9092891D01*
X10238891Y-9092891D01*
X10238891Y-9346891D02*
X10238891Y-9269109D01*
X10161109Y-9269109D01*
X10161109Y-9346891D01*
X10238891Y-9346891D01*
X10238891Y-11011891D02*
X10238891Y-10934109D01*
X10161109Y-10934109D01*
X10161109Y-11011891D01*
X10238891Y-11011891D01*
X10238891Y-11265891D02*
X10238891Y-11188109D01*
X10161109Y-11188109D01*
X10161109Y-11265891D01*
X10238891Y-11265891D01*
X10238891Y-11519891D02*
X10238891Y-11442109D01*
X10161109Y-11442109D01*
X10161109Y-11519891D01*
X10238891Y-11519891D01*
X10238891Y-12884891D02*
X10238891Y-12807109D01*
X10161109Y-12807109D01*
X10161109Y-12884891D01*
X10238891Y-12884891D01*
X10238891Y-13138891D02*
X10238891Y-13061109D01*
X10161109Y-13061109D01*
X10161109Y-13138891D01*
X10238891Y-13138891D01*
X10238891Y-13392891D02*
X10238891Y-13315109D01*
X10161109Y-13315109D01*
X10161109Y-13392891D01*
X10238891Y-13392891D01*
X10238891Y-15038891D02*
X10238891Y-14961109D01*
X10161109Y-14961109D01*
X10161109Y-15038891D01*
X10238891Y-15038891D01*
X10238891Y-15292891D02*
X10238891Y-15215109D01*
X10161109Y-15215109D01*
X10161109Y-15292891D01*
X10238891Y-15292891D01*
X10238891Y-15546891D02*
X10238891Y-15469109D01*
X10161109Y-15469109D01*
X10161109Y-15546891D01*
X10238891Y-15546891D01*
D14*
X3000000Y-18407500D02*
X3107500Y-18300000D01*
X3000000Y-18192500D01*
X2892500Y-18300000D01*
X3000000Y-18407500D01*
X4000000Y-18407500D02*
X4107500Y-18300000D01*
X4000000Y-18192500D01*
X3892500Y-18300000D01*
X4000000Y-18407500D01*
X4500000Y-5226500D02*
X4607500Y-5119000D01*
X4500000Y-5011500D01*
X4392500Y-5119000D01*
X4500000Y-5226500D01*
X6200000Y-5226500D02*
X6307500Y-5119000D01*
X6200000Y-5011500D01*
X6092500Y-5119000D01*
X6200000Y-5226500D01*
X7700000Y-7107500D02*
X7807500Y-7000000D01*
X7700000Y-6892500D01*
X7592500Y-7000000D01*
X7700000Y-7107500D01*
X7700000Y-7907500D02*
X7807500Y-7800000D01*
X7700000Y-7692500D01*
X7592500Y-7800000D01*
X7700000Y-7907500D01*
X7700000Y-8807500D02*
X7807500Y-8700000D01*
X7700000Y-8592500D01*
X7592500Y-8700000D01*
X7700000Y-8807500D01*
X7700000Y-9607500D02*
X7807500Y-9500000D01*
X7700000Y-9392500D01*
X7592500Y-9500000D01*
X7700000Y-9607500D01*
X7700000Y-10807500D02*
X7807500Y-10700000D01*
X7700000Y-10592500D01*
X7592500Y-10700000D01*
X7700000Y-10807500D01*
X7700000Y-11707500D02*
X7807500Y-11600000D01*
X7700000Y-11492500D01*
X7592500Y-11600000D01*
X7700000Y-11707500D01*
X7700000Y-12907500D02*
X7807500Y-12800000D01*
X7700000Y-12692500D01*
X7592500Y-12800000D01*
X7700000Y-12907500D01*
X7700000Y-13607500D02*
X7807500Y-13500000D01*
X7700000Y-13392500D01*
X7592500Y-13500000D01*
X7700000Y-13607500D01*
X7700000Y-14907500D02*
X7807500Y-14800000D01*
X7700000Y-14692500D01*
X7592500Y-14800000D01*
X7700000Y-14907500D01*
X7700000Y-15807500D02*
X7807500Y-15700000D01*
X7700000Y-15592500D01*
X7592500Y-15700000D01*
X7700000Y-15807500D01*
X9300000Y-7061500D02*
X9407500Y-6954000D01*
X9300000Y-6846500D01*
X9192500Y-6954000D01*
X9300000Y-7061500D01*
X9300000Y-7907500D02*
X9407500Y-7800000D01*
X9300000Y-7692500D01*
X9192500Y-7800000D01*
X9300000Y-7907500D01*
X9300000Y-8807500D02*
X9407500Y-8700000D01*
X9300000Y-8592500D01*
X9192500Y-8700000D01*
X9300000Y-8807500D01*
X9300000Y-9607500D02*
X9407500Y-9500000D01*
X9300000Y-9392500D01*
X9192500Y-9500000D01*
X9300000Y-9607500D01*
X9300000Y-10807500D02*
X9407500Y-10700000D01*
X9300000Y-10592500D01*
X9192500Y-10700000D01*
X9300000Y-10807500D01*
X9300000Y-11707500D02*
X9407500Y-11600000D01*
X9300000Y-11492500D01*
X9192500Y-11600000D01*
X9300000Y-11707500D01*
X9300000Y-12907500D02*
X9407500Y-12800000D01*
X9300000Y-12692500D01*
X9192500Y-12800000D01*
X9300000Y-12907500D01*
X9300000Y-13607500D02*
X9407500Y-13500000D01*
X9300000Y-13392500D01*
X9192500Y-13500000D01*
X9300000Y-13607500D01*
X9300000Y-14907500D02*
X9407500Y-14800000D01*
X9300000Y-14692500D01*
X9192500Y-14800000D01*
X9300000Y-14907500D01*
X9300000Y-15807500D02*
X9407500Y-15700000D01*
X9300000Y-15592500D01*
X9192500Y-15700000D01*
X9300000Y-15807500D01*
D11*
X2258277Y-19813984D02*
X2258277Y-19613984D01*
X2258277Y-19613984D02*
X2305896Y-19613984D01*
X2305896Y-19613984D02*
X2334467Y-19623508D01*
X2334467Y-19623508D02*
X2353515Y-19642555D01*
X2353515Y-19642555D02*
X2363039Y-19661603D01*
X2363039Y-19661603D02*
X2372563Y-19699698D01*
X2372563Y-19699698D02*
X2372563Y-19728270D01*
X2372563Y-19728270D02*
X2363039Y-19766365D01*
X2363039Y-19766365D02*
X2353515Y-19785412D01*
X2353515Y-19785412D02*
X2334467Y-19804460D01*
X2334467Y-19804460D02*
X2305896Y-19813984D01*
X2305896Y-19813984D02*
X2258277Y-19813984D01*
X2458277Y-19813984D02*
X2458277Y-19680650D01*
X2458277Y-19718746D02*
X2467801Y-19699698D01*
X2467801Y-19699698D02*
X2477324Y-19690174D01*
X2477324Y-19690174D02*
X2496372Y-19680650D01*
X2496372Y-19680650D02*
X2515420Y-19680650D01*
X2582086Y-19813984D02*
X2582086Y-19680650D01*
X2582086Y-19613984D02*
X2572563Y-19623508D01*
X2572563Y-19623508D02*
X2582086Y-19633031D01*
X2582086Y-19633031D02*
X2591610Y-19623508D01*
X2591610Y-19623508D02*
X2582086Y-19613984D01*
X2582086Y-19613984D02*
X2582086Y-19633031D01*
X2705896Y-19813984D02*
X2686848Y-19804460D01*
X2686848Y-19804460D02*
X2677324Y-19785412D01*
X2677324Y-19785412D02*
X2677324Y-19613984D01*
X2810658Y-19813984D02*
X2791610Y-19804460D01*
X2791610Y-19804460D02*
X2782086Y-19785412D01*
X2782086Y-19785412D02*
X2782086Y-19613984D01*
X3039229Y-19813984D02*
X3039229Y-19613984D01*
X3039229Y-19613984D02*
X3105896Y-19756841D01*
X3105896Y-19756841D02*
X3172562Y-19613984D01*
X3172562Y-19613984D02*
X3172562Y-19813984D01*
X3353515Y-19813984D02*
X3353515Y-19709222D01*
X3353515Y-19709222D02*
X3343991Y-19690174D01*
X3343991Y-19690174D02*
X3324943Y-19680650D01*
X3324943Y-19680650D02*
X3286848Y-19680650D01*
X3286848Y-19680650D02*
X3267801Y-19690174D01*
X3353515Y-19804460D02*
X3334467Y-19813984D01*
X3334467Y-19813984D02*
X3286848Y-19813984D01*
X3286848Y-19813984D02*
X3267801Y-19804460D01*
X3267801Y-19804460D02*
X3258277Y-19785412D01*
X3258277Y-19785412D02*
X3258277Y-19766365D01*
X3258277Y-19766365D02*
X3267801Y-19747317D01*
X3267801Y-19747317D02*
X3286848Y-19737793D01*
X3286848Y-19737793D02*
X3334467Y-19737793D01*
X3334467Y-19737793D02*
X3353515Y-19728270D01*
X3448753Y-19680650D02*
X3448753Y-19880650D01*
X3448753Y-19690174D02*
X3467801Y-19680650D01*
X3467801Y-19680650D02*
X3505896Y-19680650D01*
X3505896Y-19680650D02*
X3524943Y-19690174D01*
X3524943Y-19690174D02*
X3534467Y-19699698D01*
X3534467Y-19699698D02*
X3543991Y-19718746D01*
X3543991Y-19718746D02*
X3543991Y-19775889D01*
X3543991Y-19775889D02*
X3534467Y-19794936D01*
X3534467Y-19794936D02*
X3524943Y-19804460D01*
X3524943Y-19804460D02*
X3505896Y-19813984D01*
X3505896Y-19813984D02*
X3467801Y-19813984D01*
X3467801Y-19813984D02*
X3448753Y-19804460D01*
X3629705Y-19794936D02*
X3639229Y-19804460D01*
X3639229Y-19804460D02*
X3629705Y-19813984D01*
X3629705Y-19813984D02*
X3620182Y-19804460D01*
X3620182Y-19804460D02*
X3629705Y-19794936D01*
X3629705Y-19794936D02*
X3629705Y-19813984D01*
X3629705Y-19690174D02*
X3639229Y-19699698D01*
X3639229Y-19699698D02*
X3629705Y-19709222D01*
X3629705Y-19709222D02*
X3620182Y-19699698D01*
X3620182Y-19699698D02*
X3629705Y-19690174D01*
X3629705Y-19690174D02*
X3629705Y-19709222D01*
D12*
X1967500Y-20127500D02*
X1997500Y-20157500D01*
X1997500Y-20127500D02*
X1967500Y-20157500D01*
D11*
X2296372Y-20033984D02*
X2315420Y-20033984D01*
X2315420Y-20033984D02*
X2334467Y-20043508D01*
X2334467Y-20043508D02*
X2343991Y-20053031D01*
X2343991Y-20053031D02*
X2353515Y-20072079D01*
X2353515Y-20072079D02*
X2363039Y-20110174D01*
X2363039Y-20110174D02*
X2363039Y-20157793D01*
X2363039Y-20157793D02*
X2353515Y-20195889D01*
X2353515Y-20195889D02*
X2343991Y-20214936D01*
X2343991Y-20214936D02*
X2334467Y-20224460D01*
X2334467Y-20224460D02*
X2315420Y-20233984D01*
X2315420Y-20233984D02*
X2296372Y-20233984D01*
X2296372Y-20233984D02*
X2277324Y-20224460D01*
X2277324Y-20224460D02*
X2267801Y-20214936D01*
X2267801Y-20214936D02*
X2258277Y-20195889D01*
X2258277Y-20195889D02*
X2248753Y-20157793D01*
X2248753Y-20157793D02*
X2248753Y-20110174D01*
X2248753Y-20110174D02*
X2258277Y-20072079D01*
X2258277Y-20072079D02*
X2267801Y-20053031D01*
X2267801Y-20053031D02*
X2277324Y-20043508D01*
X2277324Y-20043508D02*
X2296372Y-20033984D01*
X2448753Y-20214936D02*
X2458277Y-20224460D01*
X2458277Y-20224460D02*
X2448753Y-20233984D01*
X2448753Y-20233984D02*
X2439229Y-20224460D01*
X2439229Y-20224460D02*
X2448753Y-20214936D01*
X2448753Y-20214936D02*
X2448753Y-20233984D01*
X2524944Y-20033984D02*
X2648753Y-20033984D01*
X2648753Y-20033984D02*
X2582086Y-20110174D01*
X2582086Y-20110174D02*
X2610658Y-20110174D01*
X2610658Y-20110174D02*
X2629705Y-20119698D01*
X2629705Y-20119698D02*
X2639229Y-20129222D01*
X2639229Y-20129222D02*
X2648753Y-20148270D01*
X2648753Y-20148270D02*
X2648753Y-20195889D01*
X2648753Y-20195889D02*
X2639229Y-20214936D01*
X2639229Y-20214936D02*
X2629705Y-20224460D01*
X2629705Y-20224460D02*
X2610658Y-20233984D01*
X2610658Y-20233984D02*
X2553515Y-20233984D01*
X2553515Y-20233984D02*
X2534467Y-20224460D01*
X2534467Y-20224460D02*
X2524944Y-20214936D01*
X2772563Y-20033984D02*
X2791610Y-20033984D01*
X2791610Y-20033984D02*
X2810658Y-20043508D01*
X2810658Y-20043508D02*
X2820182Y-20053031D01*
X2820182Y-20053031D02*
X2829705Y-20072079D01*
X2829705Y-20072079D02*
X2839229Y-20110174D01*
X2839229Y-20110174D02*
X2839229Y-20157793D01*
X2839229Y-20157793D02*
X2829705Y-20195889D01*
X2829705Y-20195889D02*
X2820182Y-20214936D01*
X2820182Y-20214936D02*
X2810658Y-20224460D01*
X2810658Y-20224460D02*
X2791610Y-20233984D01*
X2791610Y-20233984D02*
X2772563Y-20233984D01*
X2772563Y-20233984D02*
X2753515Y-20224460D01*
X2753515Y-20224460D02*
X2743991Y-20214936D01*
X2743991Y-20214936D02*
X2734467Y-20195889D01*
X2734467Y-20195889D02*
X2724944Y-20157793D01*
X2724944Y-20157793D02*
X2724944Y-20110174D01*
X2724944Y-20110174D02*
X2734467Y-20072079D01*
X2734467Y-20072079D02*
X2743991Y-20053031D01*
X2743991Y-20053031D02*
X2753515Y-20043508D01*
X2753515Y-20043508D02*
X2772563Y-20033984D01*
X2963039Y-20033984D02*
X2982086Y-20033984D01*
X2982086Y-20033984D02*
X3001134Y-20043508D01*
X3001134Y-20043508D02*
X3010658Y-20053031D01*
X3010658Y-20053031D02*
X3020182Y-20072079D01*
X3020182Y-20072079D02*
X3029705Y-20110174D01*
X3029705Y-20110174D02*
X3029705Y-20157793D01*
X3029705Y-20157793D02*
X3020182Y-20195889D01*
X3020182Y-20195889D02*
X3010658Y-20214936D01*
X3010658Y-20214936D02*
X3001134Y-20224460D01*
X3001134Y-20224460D02*
X2982086Y-20233984D01*
X2982086Y-20233984D02*
X2963039Y-20233984D01*
X2963039Y-20233984D02*
X2943991Y-20224460D01*
X2943991Y-20224460D02*
X2934467Y-20214936D01*
X2934467Y-20214936D02*
X2924943Y-20195889D01*
X2924943Y-20195889D02*
X2915420Y-20157793D01*
X2915420Y-20157793D02*
X2915420Y-20110174D01*
X2915420Y-20110174D02*
X2924943Y-20072079D01*
X2924943Y-20072079D02*
X2934467Y-20053031D01*
X2934467Y-20053031D02*
X2943991Y-20043508D01*
X2943991Y-20043508D02*
X2963039Y-20033984D01*
X3115420Y-20233984D02*
X3115420Y-20100650D01*
X3115420Y-20119698D02*
X3124943Y-20110174D01*
X3124943Y-20110174D02*
X3143991Y-20100650D01*
X3143991Y-20100650D02*
X3172563Y-20100650D01*
X3172563Y-20100650D02*
X3191610Y-20110174D01*
X3191610Y-20110174D02*
X3201134Y-20129222D01*
X3201134Y-20129222D02*
X3201134Y-20233984D01*
X3201134Y-20129222D02*
X3210658Y-20110174D01*
X3210658Y-20110174D02*
X3229705Y-20100650D01*
X3229705Y-20100650D02*
X3258277Y-20100650D01*
X3258277Y-20100650D02*
X3277324Y-20110174D01*
X3277324Y-20110174D02*
X3286848Y-20129222D01*
X3286848Y-20129222D02*
X3286848Y-20233984D01*
X3382086Y-20233984D02*
X3382086Y-20100650D01*
X3382086Y-20119698D02*
X3391610Y-20110174D01*
X3391610Y-20110174D02*
X3410658Y-20100650D01*
X3410658Y-20100650D02*
X3439229Y-20100650D01*
X3439229Y-20100650D02*
X3458277Y-20110174D01*
X3458277Y-20110174D02*
X3467801Y-20129222D01*
X3467801Y-20129222D02*
X3467801Y-20233984D01*
X3467801Y-20129222D02*
X3477324Y-20110174D01*
X3477324Y-20110174D02*
X3496372Y-20100650D01*
X3496372Y-20100650D02*
X3524943Y-20100650D01*
X3524943Y-20100650D02*
X3543991Y-20110174D01*
X3543991Y-20110174D02*
X3553515Y-20129222D01*
X3553515Y-20129222D02*
X3553515Y-20233984D01*
X3943991Y-20024460D02*
X3772563Y-20281603D01*
X4201134Y-20033984D02*
X4220182Y-20033984D01*
X4220182Y-20033984D02*
X4239229Y-20043508D01*
X4239229Y-20043508D02*
X4248753Y-20053031D01*
X4248753Y-20053031D02*
X4258277Y-20072079D01*
X4258277Y-20072079D02*
X4267801Y-20110174D01*
X4267801Y-20110174D02*
X4267801Y-20157793D01*
X4267801Y-20157793D02*
X4258277Y-20195889D01*
X4258277Y-20195889D02*
X4248753Y-20214936D01*
X4248753Y-20214936D02*
X4239229Y-20224460D01*
X4239229Y-20224460D02*
X4220182Y-20233984D01*
X4220182Y-20233984D02*
X4201134Y-20233984D01*
X4201134Y-20233984D02*
X4182086Y-20224460D01*
X4182086Y-20224460D02*
X4172563Y-20214936D01*
X4172563Y-20214936D02*
X4163039Y-20195889D01*
X4163039Y-20195889D02*
X4153515Y-20157793D01*
X4153515Y-20157793D02*
X4153515Y-20110174D01*
X4153515Y-20110174D02*
X4163039Y-20072079D01*
X4163039Y-20072079D02*
X4172563Y-20053031D01*
X4172563Y-20053031D02*
X4182086Y-20043508D01*
X4182086Y-20043508D02*
X4201134Y-20033984D01*
X4353515Y-20214936D02*
X4363039Y-20224460D01*
X4363039Y-20224460D02*
X4353515Y-20233984D01*
X4353515Y-20233984D02*
X4343991Y-20224460D01*
X4343991Y-20224460D02*
X4353515Y-20214936D01*
X4353515Y-20214936D02*
X4353515Y-20233984D01*
X4486848Y-20033984D02*
X4505896Y-20033984D01*
X4505896Y-20033984D02*
X4524944Y-20043508D01*
X4524944Y-20043508D02*
X4534468Y-20053031D01*
X4534468Y-20053031D02*
X4543991Y-20072079D01*
X4543991Y-20072079D02*
X4553515Y-20110174D01*
X4553515Y-20110174D02*
X4553515Y-20157793D01*
X4553515Y-20157793D02*
X4543991Y-20195889D01*
X4543991Y-20195889D02*
X4534468Y-20214936D01*
X4534468Y-20214936D02*
X4524944Y-20224460D01*
X4524944Y-20224460D02*
X4505896Y-20233984D01*
X4505896Y-20233984D02*
X4486848Y-20233984D01*
X4486848Y-20233984D02*
X4467801Y-20224460D01*
X4467801Y-20224460D02*
X4458277Y-20214936D01*
X4458277Y-20214936D02*
X4448753Y-20195889D01*
X4448753Y-20195889D02*
X4439229Y-20157793D01*
X4439229Y-20157793D02*
X4439229Y-20110174D01*
X4439229Y-20110174D02*
X4448753Y-20072079D01*
X4448753Y-20072079D02*
X4458277Y-20053031D01*
X4458277Y-20053031D02*
X4467801Y-20043508D01*
X4467801Y-20043508D02*
X4486848Y-20033984D01*
X4743991Y-20233984D02*
X4629706Y-20233984D01*
X4686848Y-20233984D02*
X4686848Y-20033984D01*
X4686848Y-20033984D02*
X4667801Y-20062555D01*
X4667801Y-20062555D02*
X4648753Y-20081603D01*
X4648753Y-20081603D02*
X4629706Y-20091127D01*
X4934468Y-20233984D02*
X4820182Y-20233984D01*
X4877325Y-20233984D02*
X4877325Y-20033984D01*
X4877325Y-20033984D02*
X4858277Y-20062555D01*
X4858277Y-20062555D02*
X4839229Y-20081603D01*
X4839229Y-20081603D02*
X4820182Y-20091127D01*
X5048753Y-20119698D02*
X5029706Y-20110174D01*
X5029706Y-20110174D02*
X5020182Y-20100650D01*
X5020182Y-20100650D02*
X5010658Y-20081603D01*
X5010658Y-20081603D02*
X5010658Y-20072079D01*
X5010658Y-20072079D02*
X5020182Y-20053031D01*
X5020182Y-20053031D02*
X5029706Y-20043508D01*
X5029706Y-20043508D02*
X5048753Y-20033984D01*
X5048753Y-20033984D02*
X5086849Y-20033984D01*
X5086849Y-20033984D02*
X5105896Y-20043508D01*
X5105896Y-20043508D02*
X5115420Y-20053031D01*
X5115420Y-20053031D02*
X5124944Y-20072079D01*
X5124944Y-20072079D02*
X5124944Y-20081603D01*
X5124944Y-20081603D02*
X5115420Y-20100650D01*
X5115420Y-20100650D02*
X5105896Y-20110174D01*
X5105896Y-20110174D02*
X5086849Y-20119698D01*
X5086849Y-20119698D02*
X5048753Y-20119698D01*
X5048753Y-20119698D02*
X5029706Y-20129222D01*
X5029706Y-20129222D02*
X5020182Y-20138746D01*
X5020182Y-20138746D02*
X5010658Y-20157793D01*
X5010658Y-20157793D02*
X5010658Y-20195889D01*
X5010658Y-20195889D02*
X5020182Y-20214936D01*
X5020182Y-20214936D02*
X5029706Y-20224460D01*
X5029706Y-20224460D02*
X5048753Y-20233984D01*
X5048753Y-20233984D02*
X5086849Y-20233984D01*
X5086849Y-20233984D02*
X5105896Y-20224460D01*
X5105896Y-20224460D02*
X5115420Y-20214936D01*
X5115420Y-20214936D02*
X5124944Y-20195889D01*
X5124944Y-20195889D02*
X5124944Y-20157793D01*
X5124944Y-20157793D02*
X5115420Y-20138746D01*
X5115420Y-20138746D02*
X5105896Y-20129222D01*
X5105896Y-20129222D02*
X5086849Y-20119698D01*
X5201134Y-20033984D02*
X5201134Y-20072079D01*
X5277325Y-20033984D02*
X5277325Y-20072079D01*
X5572563Y-20310174D02*
X5563039Y-20300650D01*
X5563039Y-20300650D02*
X5543991Y-20272079D01*
X5543991Y-20272079D02*
X5534468Y-20253031D01*
X5534468Y-20253031D02*
X5524944Y-20224460D01*
X5524944Y-20224460D02*
X5515420Y-20176841D01*
X5515420Y-20176841D02*
X5515420Y-20138746D01*
X5515420Y-20138746D02*
X5524944Y-20091127D01*
X5524944Y-20091127D02*
X5534468Y-20062555D01*
X5534468Y-20062555D02*
X5543991Y-20043508D01*
X5543991Y-20043508D02*
X5563039Y-20014936D01*
X5563039Y-20014936D02*
X5572563Y-20005412D01*
X5677325Y-20119698D02*
X5658277Y-20110174D01*
X5658277Y-20110174D02*
X5648753Y-20100650D01*
X5648753Y-20100650D02*
X5639229Y-20081603D01*
X5639229Y-20081603D02*
X5639229Y-20072079D01*
X5639229Y-20072079D02*
X5648753Y-20053031D01*
X5648753Y-20053031D02*
X5658277Y-20043508D01*
X5658277Y-20043508D02*
X5677325Y-20033984D01*
X5677325Y-20033984D02*
X5715420Y-20033984D01*
X5715420Y-20033984D02*
X5734468Y-20043508D01*
X5734468Y-20043508D02*
X5743991Y-20053031D01*
X5743991Y-20053031D02*
X5753515Y-20072079D01*
X5753515Y-20072079D02*
X5753515Y-20081603D01*
X5753515Y-20081603D02*
X5743991Y-20100650D01*
X5743991Y-20100650D02*
X5734468Y-20110174D01*
X5734468Y-20110174D02*
X5715420Y-20119698D01*
X5715420Y-20119698D02*
X5677325Y-20119698D01*
X5677325Y-20119698D02*
X5658277Y-20129222D01*
X5658277Y-20129222D02*
X5648753Y-20138746D01*
X5648753Y-20138746D02*
X5639229Y-20157793D01*
X5639229Y-20157793D02*
X5639229Y-20195889D01*
X5639229Y-20195889D02*
X5648753Y-20214936D01*
X5648753Y-20214936D02*
X5658277Y-20224460D01*
X5658277Y-20224460D02*
X5677325Y-20233984D01*
X5677325Y-20233984D02*
X5715420Y-20233984D01*
X5715420Y-20233984D02*
X5734468Y-20224460D01*
X5734468Y-20224460D02*
X5743991Y-20214936D01*
X5743991Y-20214936D02*
X5753515Y-20195889D01*
X5753515Y-20195889D02*
X5753515Y-20157793D01*
X5753515Y-20157793D02*
X5743991Y-20138746D01*
X5743991Y-20138746D02*
X5734468Y-20129222D01*
X5734468Y-20129222D02*
X5715420Y-20119698D01*
X5991610Y-20233984D02*
X5991610Y-20033984D01*
X6077325Y-20233984D02*
X6077325Y-20129222D01*
X6077325Y-20129222D02*
X6067801Y-20110174D01*
X6067801Y-20110174D02*
X6048753Y-20100650D01*
X6048753Y-20100650D02*
X6020182Y-20100650D01*
X6020182Y-20100650D02*
X6001134Y-20110174D01*
X6001134Y-20110174D02*
X5991610Y-20119698D01*
X6201134Y-20233984D02*
X6182087Y-20224460D01*
X6182087Y-20224460D02*
X6172563Y-20214936D01*
X6172563Y-20214936D02*
X6163039Y-20195889D01*
X6163039Y-20195889D02*
X6163039Y-20138746D01*
X6163039Y-20138746D02*
X6172563Y-20119698D01*
X6172563Y-20119698D02*
X6182087Y-20110174D01*
X6182087Y-20110174D02*
X6201134Y-20100650D01*
X6201134Y-20100650D02*
X6229706Y-20100650D01*
X6229706Y-20100650D02*
X6248753Y-20110174D01*
X6248753Y-20110174D02*
X6258277Y-20119698D01*
X6258277Y-20119698D02*
X6267801Y-20138746D01*
X6267801Y-20138746D02*
X6267801Y-20195889D01*
X6267801Y-20195889D02*
X6258277Y-20214936D01*
X6258277Y-20214936D02*
X6248753Y-20224460D01*
X6248753Y-20224460D02*
X6229706Y-20233984D01*
X6229706Y-20233984D02*
X6201134Y-20233984D01*
X6382087Y-20233984D02*
X6363039Y-20224460D01*
X6363039Y-20224460D02*
X6353515Y-20205412D01*
X6353515Y-20205412D02*
X6353515Y-20033984D01*
X6534468Y-20224460D02*
X6515420Y-20233984D01*
X6515420Y-20233984D02*
X6477325Y-20233984D01*
X6477325Y-20233984D02*
X6458277Y-20224460D01*
X6458277Y-20224460D02*
X6448753Y-20205412D01*
X6448753Y-20205412D02*
X6448753Y-20129222D01*
X6448753Y-20129222D02*
X6458277Y-20110174D01*
X6458277Y-20110174D02*
X6477325Y-20100650D01*
X6477325Y-20100650D02*
X6515420Y-20100650D01*
X6515420Y-20100650D02*
X6534468Y-20110174D01*
X6534468Y-20110174D02*
X6543991Y-20129222D01*
X6543991Y-20129222D02*
X6543991Y-20148270D01*
X6543991Y-20148270D02*
X6448753Y-20167317D01*
X6620182Y-20224460D02*
X6639230Y-20233984D01*
X6639230Y-20233984D02*
X6677325Y-20233984D01*
X6677325Y-20233984D02*
X6696372Y-20224460D01*
X6696372Y-20224460D02*
X6705896Y-20205412D01*
X6705896Y-20205412D02*
X6705896Y-20195889D01*
X6705896Y-20195889D02*
X6696372Y-20176841D01*
X6696372Y-20176841D02*
X6677325Y-20167317D01*
X6677325Y-20167317D02*
X6648753Y-20167317D01*
X6648753Y-20167317D02*
X6629706Y-20157793D01*
X6629706Y-20157793D02*
X6620182Y-20138746D01*
X6620182Y-20138746D02*
X6620182Y-20129222D01*
X6620182Y-20129222D02*
X6629706Y-20110174D01*
X6629706Y-20110174D02*
X6648753Y-20100650D01*
X6648753Y-20100650D02*
X6677325Y-20100650D01*
X6677325Y-20100650D02*
X6696372Y-20110174D01*
X6772563Y-20310174D02*
X6782087Y-20300650D01*
X6782087Y-20300650D02*
X6801134Y-20272079D01*
X6801134Y-20272079D02*
X6810658Y-20253031D01*
X6810658Y-20253031D02*
X6820182Y-20224460D01*
X6820182Y-20224460D02*
X6829706Y-20176841D01*
X6829706Y-20176841D02*
X6829706Y-20138746D01*
X6829706Y-20138746D02*
X6820182Y-20091127D01*
X6820182Y-20091127D02*
X6810658Y-20062555D01*
X6810658Y-20062555D02*
X6801134Y-20043508D01*
X6801134Y-20043508D02*
X6782087Y-20014936D01*
X6782087Y-20014936D02*
X6772563Y-20005412D01*
D12*
X1997500Y-20406500D02*
G75*
G02*
X1917500Y-20406500I-40000J0D01*
G01*
X1917500Y-20406500D02*
G75*
G02*
X1997500Y-20406500I40000J0D01*
G01*
D11*
X2296372Y-20297984D02*
X2315420Y-20297984D01*
X2315420Y-20297984D02*
X2334467Y-20307508D01*
X2334467Y-20307508D02*
X2343991Y-20317031D01*
X2343991Y-20317031D02*
X2353515Y-20336079D01*
X2353515Y-20336079D02*
X2363039Y-20374174D01*
X2363039Y-20374174D02*
X2363039Y-20421793D01*
X2363039Y-20421793D02*
X2353515Y-20459889D01*
X2353515Y-20459889D02*
X2343991Y-20478936D01*
X2343991Y-20478936D02*
X2334467Y-20488460D01*
X2334467Y-20488460D02*
X2315420Y-20497984D01*
X2315420Y-20497984D02*
X2296372Y-20497984D01*
X2296372Y-20497984D02*
X2277324Y-20488460D01*
X2277324Y-20488460D02*
X2267801Y-20478936D01*
X2267801Y-20478936D02*
X2258277Y-20459889D01*
X2258277Y-20459889D02*
X2248753Y-20421793D01*
X2248753Y-20421793D02*
X2248753Y-20374174D01*
X2248753Y-20374174D02*
X2258277Y-20336079D01*
X2258277Y-20336079D02*
X2267801Y-20317031D01*
X2267801Y-20317031D02*
X2277324Y-20307508D01*
X2277324Y-20307508D02*
X2296372Y-20297984D01*
X2448753Y-20478936D02*
X2458277Y-20488460D01*
X2458277Y-20488460D02*
X2448753Y-20497984D01*
X2448753Y-20497984D02*
X2439229Y-20488460D01*
X2439229Y-20488460D02*
X2448753Y-20478936D01*
X2448753Y-20478936D02*
X2448753Y-20497984D01*
X2572563Y-20383698D02*
X2553515Y-20374174D01*
X2553515Y-20374174D02*
X2543991Y-20364650D01*
X2543991Y-20364650D02*
X2534467Y-20345603D01*
X2534467Y-20345603D02*
X2534467Y-20336079D01*
X2534467Y-20336079D02*
X2543991Y-20317031D01*
X2543991Y-20317031D02*
X2553515Y-20307508D01*
X2553515Y-20307508D02*
X2572563Y-20297984D01*
X2572563Y-20297984D02*
X2610658Y-20297984D01*
X2610658Y-20297984D02*
X2629705Y-20307508D01*
X2629705Y-20307508D02*
X2639229Y-20317031D01*
X2639229Y-20317031D02*
X2648753Y-20336079D01*
X2648753Y-20336079D02*
X2648753Y-20345603D01*
X2648753Y-20345603D02*
X2639229Y-20364650D01*
X2639229Y-20364650D02*
X2629705Y-20374174D01*
X2629705Y-20374174D02*
X2610658Y-20383698D01*
X2610658Y-20383698D02*
X2572563Y-20383698D01*
X2572563Y-20383698D02*
X2553515Y-20393222D01*
X2553515Y-20393222D02*
X2543991Y-20402746D01*
X2543991Y-20402746D02*
X2534467Y-20421793D01*
X2534467Y-20421793D02*
X2534467Y-20459889D01*
X2534467Y-20459889D02*
X2543991Y-20478936D01*
X2543991Y-20478936D02*
X2553515Y-20488460D01*
X2553515Y-20488460D02*
X2572563Y-20497984D01*
X2572563Y-20497984D02*
X2610658Y-20497984D01*
X2610658Y-20497984D02*
X2629705Y-20488460D01*
X2629705Y-20488460D02*
X2639229Y-20478936D01*
X2639229Y-20478936D02*
X2648753Y-20459889D01*
X2648753Y-20459889D02*
X2648753Y-20421793D01*
X2648753Y-20421793D02*
X2639229Y-20402746D01*
X2639229Y-20402746D02*
X2629705Y-20393222D01*
X2629705Y-20393222D02*
X2610658Y-20383698D01*
X2772563Y-20297984D02*
X2791610Y-20297984D01*
X2791610Y-20297984D02*
X2810658Y-20307508D01*
X2810658Y-20307508D02*
X2820182Y-20317031D01*
X2820182Y-20317031D02*
X2829705Y-20336079D01*
X2829705Y-20336079D02*
X2839229Y-20374174D01*
X2839229Y-20374174D02*
X2839229Y-20421793D01*
X2839229Y-20421793D02*
X2829705Y-20459889D01*
X2829705Y-20459889D02*
X2820182Y-20478936D01*
X2820182Y-20478936D02*
X2810658Y-20488460D01*
X2810658Y-20488460D02*
X2791610Y-20497984D01*
X2791610Y-20497984D02*
X2772563Y-20497984D01*
X2772563Y-20497984D02*
X2753515Y-20488460D01*
X2753515Y-20488460D02*
X2743991Y-20478936D01*
X2743991Y-20478936D02*
X2734467Y-20459889D01*
X2734467Y-20459889D02*
X2724944Y-20421793D01*
X2724944Y-20421793D02*
X2724944Y-20374174D01*
X2724944Y-20374174D02*
X2734467Y-20336079D01*
X2734467Y-20336079D02*
X2743991Y-20317031D01*
X2743991Y-20317031D02*
X2753515Y-20307508D01*
X2753515Y-20307508D02*
X2772563Y-20297984D01*
X2963039Y-20297984D02*
X2982086Y-20297984D01*
X2982086Y-20297984D02*
X3001134Y-20307508D01*
X3001134Y-20307508D02*
X3010658Y-20317031D01*
X3010658Y-20317031D02*
X3020182Y-20336079D01*
X3020182Y-20336079D02*
X3029705Y-20374174D01*
X3029705Y-20374174D02*
X3029705Y-20421793D01*
X3029705Y-20421793D02*
X3020182Y-20459889D01*
X3020182Y-20459889D02*
X3010658Y-20478936D01*
X3010658Y-20478936D02*
X3001134Y-20488460D01*
X3001134Y-20488460D02*
X2982086Y-20497984D01*
X2982086Y-20497984D02*
X2963039Y-20497984D01*
X2963039Y-20497984D02*
X2943991Y-20488460D01*
X2943991Y-20488460D02*
X2934467Y-20478936D01*
X2934467Y-20478936D02*
X2924943Y-20459889D01*
X2924943Y-20459889D02*
X2915420Y-20421793D01*
X2915420Y-20421793D02*
X2915420Y-20374174D01*
X2915420Y-20374174D02*
X2924943Y-20336079D01*
X2924943Y-20336079D02*
X2934467Y-20317031D01*
X2934467Y-20317031D02*
X2943991Y-20307508D01*
X2943991Y-20307508D02*
X2963039Y-20297984D01*
X3115420Y-20497984D02*
X3115420Y-20364650D01*
X3115420Y-20383698D02*
X3124943Y-20374174D01*
X3124943Y-20374174D02*
X3143991Y-20364650D01*
X3143991Y-20364650D02*
X3172563Y-20364650D01*
X3172563Y-20364650D02*
X3191610Y-20374174D01*
X3191610Y-20374174D02*
X3201134Y-20393222D01*
X3201134Y-20393222D02*
X3201134Y-20497984D01*
X3201134Y-20393222D02*
X3210658Y-20374174D01*
X3210658Y-20374174D02*
X3229705Y-20364650D01*
X3229705Y-20364650D02*
X3258277Y-20364650D01*
X3258277Y-20364650D02*
X3277324Y-20374174D01*
X3277324Y-20374174D02*
X3286848Y-20393222D01*
X3286848Y-20393222D02*
X3286848Y-20497984D01*
X3382086Y-20497984D02*
X3382086Y-20364650D01*
X3382086Y-20383698D02*
X3391610Y-20374174D01*
X3391610Y-20374174D02*
X3410658Y-20364650D01*
X3410658Y-20364650D02*
X3439229Y-20364650D01*
X3439229Y-20364650D02*
X3458277Y-20374174D01*
X3458277Y-20374174D02*
X3467801Y-20393222D01*
X3467801Y-20393222D02*
X3467801Y-20497984D01*
X3467801Y-20393222D02*
X3477324Y-20374174D01*
X3477324Y-20374174D02*
X3496372Y-20364650D01*
X3496372Y-20364650D02*
X3524943Y-20364650D01*
X3524943Y-20364650D02*
X3543991Y-20374174D01*
X3543991Y-20374174D02*
X3553515Y-20393222D01*
X3553515Y-20393222D02*
X3553515Y-20497984D01*
X3943991Y-20288460D02*
X3772563Y-20545603D01*
X4201134Y-20297984D02*
X4220182Y-20297984D01*
X4220182Y-20297984D02*
X4239229Y-20307508D01*
X4239229Y-20307508D02*
X4248753Y-20317031D01*
X4248753Y-20317031D02*
X4258277Y-20336079D01*
X4258277Y-20336079D02*
X4267801Y-20374174D01*
X4267801Y-20374174D02*
X4267801Y-20421793D01*
X4267801Y-20421793D02*
X4258277Y-20459889D01*
X4258277Y-20459889D02*
X4248753Y-20478936D01*
X4248753Y-20478936D02*
X4239229Y-20488460D01*
X4239229Y-20488460D02*
X4220182Y-20497984D01*
X4220182Y-20497984D02*
X4201134Y-20497984D01*
X4201134Y-20497984D02*
X4182086Y-20488460D01*
X4182086Y-20488460D02*
X4172563Y-20478936D01*
X4172563Y-20478936D02*
X4163039Y-20459889D01*
X4163039Y-20459889D02*
X4153515Y-20421793D01*
X4153515Y-20421793D02*
X4153515Y-20374174D01*
X4153515Y-20374174D02*
X4163039Y-20336079D01*
X4163039Y-20336079D02*
X4172563Y-20317031D01*
X4172563Y-20317031D02*
X4182086Y-20307508D01*
X4182086Y-20307508D02*
X4201134Y-20297984D01*
X4353515Y-20478936D02*
X4363039Y-20488460D01*
X4363039Y-20488460D02*
X4353515Y-20497984D01*
X4353515Y-20497984D02*
X4343991Y-20488460D01*
X4343991Y-20488460D02*
X4353515Y-20478936D01*
X4353515Y-20478936D02*
X4353515Y-20497984D01*
X4486848Y-20297984D02*
X4505896Y-20297984D01*
X4505896Y-20297984D02*
X4524944Y-20307508D01*
X4524944Y-20307508D02*
X4534468Y-20317031D01*
X4534468Y-20317031D02*
X4543991Y-20336079D01*
X4543991Y-20336079D02*
X4553515Y-20374174D01*
X4553515Y-20374174D02*
X4553515Y-20421793D01*
X4553515Y-20421793D02*
X4543991Y-20459889D01*
X4543991Y-20459889D02*
X4534468Y-20478936D01*
X4534468Y-20478936D02*
X4524944Y-20488460D01*
X4524944Y-20488460D02*
X4505896Y-20497984D01*
X4505896Y-20497984D02*
X4486848Y-20497984D01*
X4486848Y-20497984D02*
X4467801Y-20488460D01*
X4467801Y-20488460D02*
X4458277Y-20478936D01*
X4458277Y-20478936D02*
X4448753Y-20459889D01*
X4448753Y-20459889D02*
X4439229Y-20421793D01*
X4439229Y-20421793D02*
X4439229Y-20374174D01*
X4439229Y-20374174D02*
X4448753Y-20336079D01*
X4448753Y-20336079D02*
X4458277Y-20317031D01*
X4458277Y-20317031D02*
X4467801Y-20307508D01*
X4467801Y-20307508D02*
X4486848Y-20297984D01*
X4620182Y-20297984D02*
X4743991Y-20297984D01*
X4743991Y-20297984D02*
X4677325Y-20374174D01*
X4677325Y-20374174D02*
X4705896Y-20374174D01*
X4705896Y-20374174D02*
X4724944Y-20383698D01*
X4724944Y-20383698D02*
X4734468Y-20393222D01*
X4734468Y-20393222D02*
X4743991Y-20412270D01*
X4743991Y-20412270D02*
X4743991Y-20459889D01*
X4743991Y-20459889D02*
X4734468Y-20478936D01*
X4734468Y-20478936D02*
X4724944Y-20488460D01*
X4724944Y-20488460D02*
X4705896Y-20497984D01*
X4705896Y-20497984D02*
X4648753Y-20497984D01*
X4648753Y-20497984D02*
X4629706Y-20488460D01*
X4629706Y-20488460D02*
X4620182Y-20478936D01*
X4934468Y-20497984D02*
X4820182Y-20497984D01*
X4877325Y-20497984D02*
X4877325Y-20297984D01*
X4877325Y-20297984D02*
X4858277Y-20326555D01*
X4858277Y-20326555D02*
X4839229Y-20345603D01*
X4839229Y-20345603D02*
X4820182Y-20355127D01*
X5115420Y-20297984D02*
X5020182Y-20297984D01*
X5020182Y-20297984D02*
X5010658Y-20393222D01*
X5010658Y-20393222D02*
X5020182Y-20383698D01*
X5020182Y-20383698D02*
X5039229Y-20374174D01*
X5039229Y-20374174D02*
X5086849Y-20374174D01*
X5086849Y-20374174D02*
X5105896Y-20383698D01*
X5105896Y-20383698D02*
X5115420Y-20393222D01*
X5115420Y-20393222D02*
X5124944Y-20412270D01*
X5124944Y-20412270D02*
X5124944Y-20459889D01*
X5124944Y-20459889D02*
X5115420Y-20478936D01*
X5115420Y-20478936D02*
X5105896Y-20488460D01*
X5105896Y-20488460D02*
X5086849Y-20497984D01*
X5086849Y-20497984D02*
X5039229Y-20497984D01*
X5039229Y-20497984D02*
X5020182Y-20488460D01*
X5020182Y-20488460D02*
X5010658Y-20478936D01*
X5201134Y-20297984D02*
X5201134Y-20336079D01*
X5277325Y-20297984D02*
X5277325Y-20336079D01*
X5572563Y-20574174D02*
X5563039Y-20564650D01*
X5563039Y-20564650D02*
X5543991Y-20536079D01*
X5543991Y-20536079D02*
X5534468Y-20517031D01*
X5534468Y-20517031D02*
X5524944Y-20488460D01*
X5524944Y-20488460D02*
X5515420Y-20440841D01*
X5515420Y-20440841D02*
X5515420Y-20402746D01*
X5515420Y-20402746D02*
X5524944Y-20355127D01*
X5524944Y-20355127D02*
X5534468Y-20326555D01*
X5534468Y-20326555D02*
X5543991Y-20307508D01*
X5543991Y-20307508D02*
X5563039Y-20278936D01*
X5563039Y-20278936D02*
X5572563Y-20269412D01*
X5639229Y-20317031D02*
X5648753Y-20307508D01*
X5648753Y-20307508D02*
X5667801Y-20297984D01*
X5667801Y-20297984D02*
X5715420Y-20297984D01*
X5715420Y-20297984D02*
X5734468Y-20307508D01*
X5734468Y-20307508D02*
X5743991Y-20317031D01*
X5743991Y-20317031D02*
X5753515Y-20336079D01*
X5753515Y-20336079D02*
X5753515Y-20355127D01*
X5753515Y-20355127D02*
X5743991Y-20383698D01*
X5743991Y-20383698D02*
X5629706Y-20497984D01*
X5629706Y-20497984D02*
X5753515Y-20497984D01*
X5924944Y-20297984D02*
X5886848Y-20297984D01*
X5886848Y-20297984D02*
X5867801Y-20307508D01*
X5867801Y-20307508D02*
X5858277Y-20317031D01*
X5858277Y-20317031D02*
X5839229Y-20345603D01*
X5839229Y-20345603D02*
X5829706Y-20383698D01*
X5829706Y-20383698D02*
X5829706Y-20459889D01*
X5829706Y-20459889D02*
X5839229Y-20478936D01*
X5839229Y-20478936D02*
X5848753Y-20488460D01*
X5848753Y-20488460D02*
X5867801Y-20497984D01*
X5867801Y-20497984D02*
X5905896Y-20497984D01*
X5905896Y-20497984D02*
X5924944Y-20488460D01*
X5924944Y-20488460D02*
X5934468Y-20478936D01*
X5934468Y-20478936D02*
X5943991Y-20459889D01*
X5943991Y-20459889D02*
X5943991Y-20412270D01*
X5943991Y-20412270D02*
X5934468Y-20393222D01*
X5934468Y-20393222D02*
X5924944Y-20383698D01*
X5924944Y-20383698D02*
X5905896Y-20374174D01*
X5905896Y-20374174D02*
X5867801Y-20374174D01*
X5867801Y-20374174D02*
X5848753Y-20383698D01*
X5848753Y-20383698D02*
X5839229Y-20393222D01*
X5839229Y-20393222D02*
X5829706Y-20412270D01*
X6182087Y-20497984D02*
X6182087Y-20297984D01*
X6267801Y-20497984D02*
X6267801Y-20393222D01*
X6267801Y-20393222D02*
X6258277Y-20374174D01*
X6258277Y-20374174D02*
X6239230Y-20364650D01*
X6239230Y-20364650D02*
X6210658Y-20364650D01*
X6210658Y-20364650D02*
X6191610Y-20374174D01*
X6191610Y-20374174D02*
X6182087Y-20383698D01*
X6391610Y-20497984D02*
X6372563Y-20488460D01*
X6372563Y-20488460D02*
X6363039Y-20478936D01*
X6363039Y-20478936D02*
X6353515Y-20459889D01*
X6353515Y-20459889D02*
X6353515Y-20402746D01*
X6353515Y-20402746D02*
X6363039Y-20383698D01*
X6363039Y-20383698D02*
X6372563Y-20374174D01*
X6372563Y-20374174D02*
X6391610Y-20364650D01*
X6391610Y-20364650D02*
X6420182Y-20364650D01*
X6420182Y-20364650D02*
X6439230Y-20374174D01*
X6439230Y-20374174D02*
X6448753Y-20383698D01*
X6448753Y-20383698D02*
X6458277Y-20402746D01*
X6458277Y-20402746D02*
X6458277Y-20459889D01*
X6458277Y-20459889D02*
X6448753Y-20478936D01*
X6448753Y-20478936D02*
X6439230Y-20488460D01*
X6439230Y-20488460D02*
X6420182Y-20497984D01*
X6420182Y-20497984D02*
X6391610Y-20497984D01*
X6572563Y-20497984D02*
X6553515Y-20488460D01*
X6553515Y-20488460D02*
X6543991Y-20469412D01*
X6543991Y-20469412D02*
X6543991Y-20297984D01*
X6724944Y-20488460D02*
X6705896Y-20497984D01*
X6705896Y-20497984D02*
X6667801Y-20497984D01*
X6667801Y-20497984D02*
X6648753Y-20488460D01*
X6648753Y-20488460D02*
X6639230Y-20469412D01*
X6639230Y-20469412D02*
X6639230Y-20393222D01*
X6639230Y-20393222D02*
X6648753Y-20374174D01*
X6648753Y-20374174D02*
X6667801Y-20364650D01*
X6667801Y-20364650D02*
X6705896Y-20364650D01*
X6705896Y-20364650D02*
X6724944Y-20374174D01*
X6724944Y-20374174D02*
X6734468Y-20393222D01*
X6734468Y-20393222D02*
X6734468Y-20412270D01*
X6734468Y-20412270D02*
X6639230Y-20431317D01*
X6810658Y-20488460D02*
X6829706Y-20497984D01*
X6829706Y-20497984D02*
X6867801Y-20497984D01*
X6867801Y-20497984D02*
X6886849Y-20488460D01*
X6886849Y-20488460D02*
X6896372Y-20469412D01*
X6896372Y-20469412D02*
X6896372Y-20459889D01*
X6896372Y-20459889D02*
X6886849Y-20440841D01*
X6886849Y-20440841D02*
X6867801Y-20431317D01*
X6867801Y-20431317D02*
X6839230Y-20431317D01*
X6839230Y-20431317D02*
X6820182Y-20421793D01*
X6820182Y-20421793D02*
X6810658Y-20402746D01*
X6810658Y-20402746D02*
X6810658Y-20393222D01*
X6810658Y-20393222D02*
X6820182Y-20374174D01*
X6820182Y-20374174D02*
X6839230Y-20364650D01*
X6839230Y-20364650D02*
X6867801Y-20364650D01*
X6867801Y-20364650D02*
X6886849Y-20374174D01*
X6963039Y-20574174D02*
X6972563Y-20564650D01*
X6972563Y-20564650D02*
X6991611Y-20536079D01*
X6991611Y-20536079D02*
X7001134Y-20517031D01*
X7001134Y-20517031D02*
X7010658Y-20488460D01*
X7010658Y-20488460D02*
X7020182Y-20440841D01*
X7020182Y-20440841D02*
X7020182Y-20402746D01*
X7020182Y-20402746D02*
X7010658Y-20355127D01*
X7010658Y-20355127D02*
X7001134Y-20326555D01*
X7001134Y-20326555D02*
X6991611Y-20307508D01*
X6991611Y-20307508D02*
X6972563Y-20278936D01*
X6972563Y-20278936D02*
X6963039Y-20269412D01*
D12*
X1947500Y-20620500D02*
X1947500Y-20720500D01*
X1897500Y-20670500D02*
X1997500Y-20670500D01*
D11*
X2363039Y-20761984D02*
X2248753Y-20761984D01*
X2305896Y-20761984D02*
X2305896Y-20561984D01*
X2305896Y-20561984D02*
X2286848Y-20590555D01*
X2286848Y-20590555D02*
X2267801Y-20609603D01*
X2267801Y-20609603D02*
X2248753Y-20619127D01*
X2448753Y-20742936D02*
X2458277Y-20752460D01*
X2458277Y-20752460D02*
X2448753Y-20761984D01*
X2448753Y-20761984D02*
X2439229Y-20752460D01*
X2439229Y-20752460D02*
X2448753Y-20742936D01*
X2448753Y-20742936D02*
X2448753Y-20761984D01*
X2582086Y-20561984D02*
X2601134Y-20561984D01*
X2601134Y-20561984D02*
X2620182Y-20571508D01*
X2620182Y-20571508D02*
X2629705Y-20581031D01*
X2629705Y-20581031D02*
X2639229Y-20600079D01*
X2639229Y-20600079D02*
X2648753Y-20638174D01*
X2648753Y-20638174D02*
X2648753Y-20685793D01*
X2648753Y-20685793D02*
X2639229Y-20723889D01*
X2639229Y-20723889D02*
X2629705Y-20742936D01*
X2629705Y-20742936D02*
X2620182Y-20752460D01*
X2620182Y-20752460D02*
X2601134Y-20761984D01*
X2601134Y-20761984D02*
X2582086Y-20761984D01*
X2582086Y-20761984D02*
X2563039Y-20752460D01*
X2563039Y-20752460D02*
X2553515Y-20742936D01*
X2553515Y-20742936D02*
X2543991Y-20723889D01*
X2543991Y-20723889D02*
X2534467Y-20685793D01*
X2534467Y-20685793D02*
X2534467Y-20638174D01*
X2534467Y-20638174D02*
X2543991Y-20600079D01*
X2543991Y-20600079D02*
X2553515Y-20581031D01*
X2553515Y-20581031D02*
X2563039Y-20571508D01*
X2563039Y-20571508D02*
X2582086Y-20561984D01*
X2772563Y-20561984D02*
X2791610Y-20561984D01*
X2791610Y-20561984D02*
X2810658Y-20571508D01*
X2810658Y-20571508D02*
X2820182Y-20581031D01*
X2820182Y-20581031D02*
X2829705Y-20600079D01*
X2829705Y-20600079D02*
X2839229Y-20638174D01*
X2839229Y-20638174D02*
X2839229Y-20685793D01*
X2839229Y-20685793D02*
X2829705Y-20723889D01*
X2829705Y-20723889D02*
X2820182Y-20742936D01*
X2820182Y-20742936D02*
X2810658Y-20752460D01*
X2810658Y-20752460D02*
X2791610Y-20761984D01*
X2791610Y-20761984D02*
X2772563Y-20761984D01*
X2772563Y-20761984D02*
X2753515Y-20752460D01*
X2753515Y-20752460D02*
X2743991Y-20742936D01*
X2743991Y-20742936D02*
X2734467Y-20723889D01*
X2734467Y-20723889D02*
X2724944Y-20685793D01*
X2724944Y-20685793D02*
X2724944Y-20638174D01*
X2724944Y-20638174D02*
X2734467Y-20600079D01*
X2734467Y-20600079D02*
X2743991Y-20581031D01*
X2743991Y-20581031D02*
X2753515Y-20571508D01*
X2753515Y-20571508D02*
X2772563Y-20561984D01*
X2963039Y-20561984D02*
X2982086Y-20561984D01*
X2982086Y-20561984D02*
X3001134Y-20571508D01*
X3001134Y-20571508D02*
X3010658Y-20581031D01*
X3010658Y-20581031D02*
X3020182Y-20600079D01*
X3020182Y-20600079D02*
X3029705Y-20638174D01*
X3029705Y-20638174D02*
X3029705Y-20685793D01*
X3029705Y-20685793D02*
X3020182Y-20723889D01*
X3020182Y-20723889D02*
X3010658Y-20742936D01*
X3010658Y-20742936D02*
X3001134Y-20752460D01*
X3001134Y-20752460D02*
X2982086Y-20761984D01*
X2982086Y-20761984D02*
X2963039Y-20761984D01*
X2963039Y-20761984D02*
X2943991Y-20752460D01*
X2943991Y-20752460D02*
X2934467Y-20742936D01*
X2934467Y-20742936D02*
X2924943Y-20723889D01*
X2924943Y-20723889D02*
X2915420Y-20685793D01*
X2915420Y-20685793D02*
X2915420Y-20638174D01*
X2915420Y-20638174D02*
X2924943Y-20600079D01*
X2924943Y-20600079D02*
X2934467Y-20581031D01*
X2934467Y-20581031D02*
X2943991Y-20571508D01*
X2943991Y-20571508D02*
X2963039Y-20561984D01*
X3115420Y-20761984D02*
X3115420Y-20628650D01*
X3115420Y-20647698D02*
X3124943Y-20638174D01*
X3124943Y-20638174D02*
X3143991Y-20628650D01*
X3143991Y-20628650D02*
X3172563Y-20628650D01*
X3172563Y-20628650D02*
X3191610Y-20638174D01*
X3191610Y-20638174D02*
X3201134Y-20657222D01*
X3201134Y-20657222D02*
X3201134Y-20761984D01*
X3201134Y-20657222D02*
X3210658Y-20638174D01*
X3210658Y-20638174D02*
X3229705Y-20628650D01*
X3229705Y-20628650D02*
X3258277Y-20628650D01*
X3258277Y-20628650D02*
X3277324Y-20638174D01*
X3277324Y-20638174D02*
X3286848Y-20657222D01*
X3286848Y-20657222D02*
X3286848Y-20761984D01*
X3382086Y-20761984D02*
X3382086Y-20628650D01*
X3382086Y-20647698D02*
X3391610Y-20638174D01*
X3391610Y-20638174D02*
X3410658Y-20628650D01*
X3410658Y-20628650D02*
X3439229Y-20628650D01*
X3439229Y-20628650D02*
X3458277Y-20638174D01*
X3458277Y-20638174D02*
X3467801Y-20657222D01*
X3467801Y-20657222D02*
X3467801Y-20761984D01*
X3467801Y-20657222D02*
X3477324Y-20638174D01*
X3477324Y-20638174D02*
X3496372Y-20628650D01*
X3496372Y-20628650D02*
X3524943Y-20628650D01*
X3524943Y-20628650D02*
X3543991Y-20638174D01*
X3543991Y-20638174D02*
X3553515Y-20657222D01*
X3553515Y-20657222D02*
X3553515Y-20761984D01*
X3943991Y-20552460D02*
X3772563Y-20809603D01*
X4201134Y-20561984D02*
X4220182Y-20561984D01*
X4220182Y-20561984D02*
X4239229Y-20571508D01*
X4239229Y-20571508D02*
X4248753Y-20581031D01*
X4248753Y-20581031D02*
X4258277Y-20600079D01*
X4258277Y-20600079D02*
X4267801Y-20638174D01*
X4267801Y-20638174D02*
X4267801Y-20685793D01*
X4267801Y-20685793D02*
X4258277Y-20723889D01*
X4258277Y-20723889D02*
X4248753Y-20742936D01*
X4248753Y-20742936D02*
X4239229Y-20752460D01*
X4239229Y-20752460D02*
X4220182Y-20761984D01*
X4220182Y-20761984D02*
X4201134Y-20761984D01*
X4201134Y-20761984D02*
X4182086Y-20752460D01*
X4182086Y-20752460D02*
X4172563Y-20742936D01*
X4172563Y-20742936D02*
X4163039Y-20723889D01*
X4163039Y-20723889D02*
X4153515Y-20685793D01*
X4153515Y-20685793D02*
X4153515Y-20638174D01*
X4153515Y-20638174D02*
X4163039Y-20600079D01*
X4163039Y-20600079D02*
X4172563Y-20581031D01*
X4172563Y-20581031D02*
X4182086Y-20571508D01*
X4182086Y-20571508D02*
X4201134Y-20561984D01*
X4353515Y-20742936D02*
X4363039Y-20752460D01*
X4363039Y-20752460D02*
X4353515Y-20761984D01*
X4353515Y-20761984D02*
X4343991Y-20752460D01*
X4343991Y-20752460D02*
X4353515Y-20742936D01*
X4353515Y-20742936D02*
X4353515Y-20761984D01*
X4486848Y-20561984D02*
X4505896Y-20561984D01*
X4505896Y-20561984D02*
X4524944Y-20571508D01*
X4524944Y-20571508D02*
X4534468Y-20581031D01*
X4534468Y-20581031D02*
X4543991Y-20600079D01*
X4543991Y-20600079D02*
X4553515Y-20638174D01*
X4553515Y-20638174D02*
X4553515Y-20685793D01*
X4553515Y-20685793D02*
X4543991Y-20723889D01*
X4543991Y-20723889D02*
X4534468Y-20742936D01*
X4534468Y-20742936D02*
X4524944Y-20752460D01*
X4524944Y-20752460D02*
X4505896Y-20761984D01*
X4505896Y-20761984D02*
X4486848Y-20761984D01*
X4486848Y-20761984D02*
X4467801Y-20752460D01*
X4467801Y-20752460D02*
X4458277Y-20742936D01*
X4458277Y-20742936D02*
X4448753Y-20723889D01*
X4448753Y-20723889D02*
X4439229Y-20685793D01*
X4439229Y-20685793D02*
X4439229Y-20638174D01*
X4439229Y-20638174D02*
X4448753Y-20600079D01*
X4448753Y-20600079D02*
X4458277Y-20581031D01*
X4458277Y-20581031D02*
X4467801Y-20571508D01*
X4467801Y-20571508D02*
X4486848Y-20561984D01*
X4620182Y-20561984D02*
X4743991Y-20561984D01*
X4743991Y-20561984D02*
X4677325Y-20638174D01*
X4677325Y-20638174D02*
X4705896Y-20638174D01*
X4705896Y-20638174D02*
X4724944Y-20647698D01*
X4724944Y-20647698D02*
X4734468Y-20657222D01*
X4734468Y-20657222D02*
X4743991Y-20676270D01*
X4743991Y-20676270D02*
X4743991Y-20723889D01*
X4743991Y-20723889D02*
X4734468Y-20742936D01*
X4734468Y-20742936D02*
X4724944Y-20752460D01*
X4724944Y-20752460D02*
X4705896Y-20761984D01*
X4705896Y-20761984D02*
X4648753Y-20761984D01*
X4648753Y-20761984D02*
X4629706Y-20752460D01*
X4629706Y-20752460D02*
X4620182Y-20742936D01*
X4839229Y-20761984D02*
X4877325Y-20761984D01*
X4877325Y-20761984D02*
X4896372Y-20752460D01*
X4896372Y-20752460D02*
X4905896Y-20742936D01*
X4905896Y-20742936D02*
X4924944Y-20714365D01*
X4924944Y-20714365D02*
X4934468Y-20676270D01*
X4934468Y-20676270D02*
X4934468Y-20600079D01*
X4934468Y-20600079D02*
X4924944Y-20581031D01*
X4924944Y-20581031D02*
X4915420Y-20571508D01*
X4915420Y-20571508D02*
X4896372Y-20561984D01*
X4896372Y-20561984D02*
X4858277Y-20561984D01*
X4858277Y-20561984D02*
X4839229Y-20571508D01*
X4839229Y-20571508D02*
X4829706Y-20581031D01*
X4829706Y-20581031D02*
X4820182Y-20600079D01*
X4820182Y-20600079D02*
X4820182Y-20647698D01*
X4820182Y-20647698D02*
X4829706Y-20666746D01*
X4829706Y-20666746D02*
X4839229Y-20676270D01*
X4839229Y-20676270D02*
X4858277Y-20685793D01*
X4858277Y-20685793D02*
X4896372Y-20685793D01*
X4896372Y-20685793D02*
X4915420Y-20676270D01*
X4915420Y-20676270D02*
X4924944Y-20666746D01*
X4924944Y-20666746D02*
X4934468Y-20647698D01*
X5105896Y-20628650D02*
X5105896Y-20761984D01*
X5058277Y-20552460D02*
X5010658Y-20695317D01*
X5010658Y-20695317D02*
X5134468Y-20695317D01*
X5201134Y-20561984D02*
X5201134Y-20600079D01*
X5277325Y-20561984D02*
X5277325Y-20600079D01*
X5572563Y-20838174D02*
X5563039Y-20828650D01*
X5563039Y-20828650D02*
X5543991Y-20800079D01*
X5543991Y-20800079D02*
X5534468Y-20781031D01*
X5534468Y-20781031D02*
X5524944Y-20752460D01*
X5524944Y-20752460D02*
X5515420Y-20704841D01*
X5515420Y-20704841D02*
X5515420Y-20666746D01*
X5515420Y-20666746D02*
X5524944Y-20619127D01*
X5524944Y-20619127D02*
X5534468Y-20590555D01*
X5534468Y-20590555D02*
X5543991Y-20571508D01*
X5543991Y-20571508D02*
X5563039Y-20542936D01*
X5563039Y-20542936D02*
X5572563Y-20533412D01*
X5629706Y-20561984D02*
X5753515Y-20561984D01*
X5753515Y-20561984D02*
X5686848Y-20638174D01*
X5686848Y-20638174D02*
X5715420Y-20638174D01*
X5715420Y-20638174D02*
X5734468Y-20647698D01*
X5734468Y-20647698D02*
X5743991Y-20657222D01*
X5743991Y-20657222D02*
X5753515Y-20676270D01*
X5753515Y-20676270D02*
X5753515Y-20723889D01*
X5753515Y-20723889D02*
X5743991Y-20742936D01*
X5743991Y-20742936D02*
X5734468Y-20752460D01*
X5734468Y-20752460D02*
X5715420Y-20761984D01*
X5715420Y-20761984D02*
X5658277Y-20761984D01*
X5658277Y-20761984D02*
X5639229Y-20752460D01*
X5639229Y-20752460D02*
X5629706Y-20742936D01*
X5867801Y-20647698D02*
X5848753Y-20638174D01*
X5848753Y-20638174D02*
X5839229Y-20628650D01*
X5839229Y-20628650D02*
X5829706Y-20609603D01*
X5829706Y-20609603D02*
X5829706Y-20600079D01*
X5829706Y-20600079D02*
X5839229Y-20581031D01*
X5839229Y-20581031D02*
X5848753Y-20571508D01*
X5848753Y-20571508D02*
X5867801Y-20561984D01*
X5867801Y-20561984D02*
X5905896Y-20561984D01*
X5905896Y-20561984D02*
X5924944Y-20571508D01*
X5924944Y-20571508D02*
X5934468Y-20581031D01*
X5934468Y-20581031D02*
X5943991Y-20600079D01*
X5943991Y-20600079D02*
X5943991Y-20609603D01*
X5943991Y-20609603D02*
X5934468Y-20628650D01*
X5934468Y-20628650D02*
X5924944Y-20638174D01*
X5924944Y-20638174D02*
X5905896Y-20647698D01*
X5905896Y-20647698D02*
X5867801Y-20647698D01*
X5867801Y-20647698D02*
X5848753Y-20657222D01*
X5848753Y-20657222D02*
X5839229Y-20666746D01*
X5839229Y-20666746D02*
X5829706Y-20685793D01*
X5829706Y-20685793D02*
X5829706Y-20723889D01*
X5829706Y-20723889D02*
X5839229Y-20742936D01*
X5839229Y-20742936D02*
X5848753Y-20752460D01*
X5848753Y-20752460D02*
X5867801Y-20761984D01*
X5867801Y-20761984D02*
X5905896Y-20761984D01*
X5905896Y-20761984D02*
X5924944Y-20752460D01*
X5924944Y-20752460D02*
X5934468Y-20742936D01*
X5934468Y-20742936D02*
X5943991Y-20723889D01*
X5943991Y-20723889D02*
X5943991Y-20685793D01*
X5943991Y-20685793D02*
X5934468Y-20666746D01*
X5934468Y-20666746D02*
X5924944Y-20657222D01*
X5924944Y-20657222D02*
X5905896Y-20647698D01*
X6182087Y-20761984D02*
X6182087Y-20561984D01*
X6267801Y-20761984D02*
X6267801Y-20657222D01*
X6267801Y-20657222D02*
X6258277Y-20638174D01*
X6258277Y-20638174D02*
X6239230Y-20628650D01*
X6239230Y-20628650D02*
X6210658Y-20628650D01*
X6210658Y-20628650D02*
X6191610Y-20638174D01*
X6191610Y-20638174D02*
X6182087Y-20647698D01*
X6391610Y-20761984D02*
X6372563Y-20752460D01*
X6372563Y-20752460D02*
X6363039Y-20742936D01*
X6363039Y-20742936D02*
X6353515Y-20723889D01*
X6353515Y-20723889D02*
X6353515Y-20666746D01*
X6353515Y-20666746D02*
X6363039Y-20647698D01*
X6363039Y-20647698D02*
X6372563Y-20638174D01*
X6372563Y-20638174D02*
X6391610Y-20628650D01*
X6391610Y-20628650D02*
X6420182Y-20628650D01*
X6420182Y-20628650D02*
X6439230Y-20638174D01*
X6439230Y-20638174D02*
X6448753Y-20647698D01*
X6448753Y-20647698D02*
X6458277Y-20666746D01*
X6458277Y-20666746D02*
X6458277Y-20723889D01*
X6458277Y-20723889D02*
X6448753Y-20742936D01*
X6448753Y-20742936D02*
X6439230Y-20752460D01*
X6439230Y-20752460D02*
X6420182Y-20761984D01*
X6420182Y-20761984D02*
X6391610Y-20761984D01*
X6572563Y-20761984D02*
X6553515Y-20752460D01*
X6553515Y-20752460D02*
X6543991Y-20733412D01*
X6543991Y-20733412D02*
X6543991Y-20561984D01*
X6724944Y-20752460D02*
X6705896Y-20761984D01*
X6705896Y-20761984D02*
X6667801Y-20761984D01*
X6667801Y-20761984D02*
X6648753Y-20752460D01*
X6648753Y-20752460D02*
X6639230Y-20733412D01*
X6639230Y-20733412D02*
X6639230Y-20657222D01*
X6639230Y-20657222D02*
X6648753Y-20638174D01*
X6648753Y-20638174D02*
X6667801Y-20628650D01*
X6667801Y-20628650D02*
X6705896Y-20628650D01*
X6705896Y-20628650D02*
X6724944Y-20638174D01*
X6724944Y-20638174D02*
X6734468Y-20657222D01*
X6734468Y-20657222D02*
X6734468Y-20676270D01*
X6734468Y-20676270D02*
X6639230Y-20695317D01*
X6810658Y-20752460D02*
X6829706Y-20761984D01*
X6829706Y-20761984D02*
X6867801Y-20761984D01*
X6867801Y-20761984D02*
X6886849Y-20752460D01*
X6886849Y-20752460D02*
X6896372Y-20733412D01*
X6896372Y-20733412D02*
X6896372Y-20723889D01*
X6896372Y-20723889D02*
X6886849Y-20704841D01*
X6886849Y-20704841D02*
X6867801Y-20695317D01*
X6867801Y-20695317D02*
X6839230Y-20695317D01*
X6839230Y-20695317D02*
X6820182Y-20685793D01*
X6820182Y-20685793D02*
X6810658Y-20666746D01*
X6810658Y-20666746D02*
X6810658Y-20657222D01*
X6810658Y-20657222D02*
X6820182Y-20638174D01*
X6820182Y-20638174D02*
X6839230Y-20628650D01*
X6839230Y-20628650D02*
X6867801Y-20628650D01*
X6867801Y-20628650D02*
X6886849Y-20638174D01*
X6963039Y-20838174D02*
X6972563Y-20828650D01*
X6972563Y-20828650D02*
X6991611Y-20800079D01*
X6991611Y-20800079D02*
X7001134Y-20781031D01*
X7001134Y-20781031D02*
X7010658Y-20752460D01*
X7010658Y-20752460D02*
X7020182Y-20704841D01*
X7020182Y-20704841D02*
X7020182Y-20666746D01*
X7020182Y-20666746D02*
X7010658Y-20619127D01*
X7010658Y-20619127D02*
X7001134Y-20590555D01*
X7001134Y-20590555D02*
X6991611Y-20571508D01*
X6991611Y-20571508D02*
X6972563Y-20542936D01*
X6972563Y-20542936D02*
X6963039Y-20533412D01*
D13*
X1981391Y-20973391D02*
X1981391Y-20895609D01*
X1903609Y-20895609D01*
X1903609Y-20973391D01*
X1981391Y-20973391D01*
D11*
X2363039Y-21025984D02*
X2248753Y-21025984D01*
X2305896Y-21025984D02*
X2305896Y-20825984D01*
X2305896Y-20825984D02*
X2286848Y-20854555D01*
X2286848Y-20854555D02*
X2267801Y-20873603D01*
X2267801Y-20873603D02*
X2248753Y-20883127D01*
X2448753Y-21006936D02*
X2458277Y-21016460D01*
X2458277Y-21016460D02*
X2448753Y-21025984D01*
X2448753Y-21025984D02*
X2439229Y-21016460D01*
X2439229Y-21016460D02*
X2448753Y-21006936D01*
X2448753Y-21006936D02*
X2448753Y-21025984D01*
X2648753Y-21025984D02*
X2534467Y-21025984D01*
X2591610Y-21025984D02*
X2591610Y-20825984D01*
X2591610Y-20825984D02*
X2572563Y-20854555D01*
X2572563Y-20854555D02*
X2553515Y-20873603D01*
X2553515Y-20873603D02*
X2534467Y-20883127D01*
X2772563Y-20825984D02*
X2791610Y-20825984D01*
X2791610Y-20825984D02*
X2810658Y-20835508D01*
X2810658Y-20835508D02*
X2820182Y-20845031D01*
X2820182Y-20845031D02*
X2829705Y-20864079D01*
X2829705Y-20864079D02*
X2839229Y-20902174D01*
X2839229Y-20902174D02*
X2839229Y-20949793D01*
X2839229Y-20949793D02*
X2829705Y-20987889D01*
X2829705Y-20987889D02*
X2820182Y-21006936D01*
X2820182Y-21006936D02*
X2810658Y-21016460D01*
X2810658Y-21016460D02*
X2791610Y-21025984D01*
X2791610Y-21025984D02*
X2772563Y-21025984D01*
X2772563Y-21025984D02*
X2753515Y-21016460D01*
X2753515Y-21016460D02*
X2743991Y-21006936D01*
X2743991Y-21006936D02*
X2734467Y-20987889D01*
X2734467Y-20987889D02*
X2724944Y-20949793D01*
X2724944Y-20949793D02*
X2724944Y-20902174D01*
X2724944Y-20902174D02*
X2734467Y-20864079D01*
X2734467Y-20864079D02*
X2743991Y-20845031D01*
X2743991Y-20845031D02*
X2753515Y-20835508D01*
X2753515Y-20835508D02*
X2772563Y-20825984D01*
X2963039Y-20825984D02*
X2982086Y-20825984D01*
X2982086Y-20825984D02*
X3001134Y-20835508D01*
X3001134Y-20835508D02*
X3010658Y-20845031D01*
X3010658Y-20845031D02*
X3020182Y-20864079D01*
X3020182Y-20864079D02*
X3029705Y-20902174D01*
X3029705Y-20902174D02*
X3029705Y-20949793D01*
X3029705Y-20949793D02*
X3020182Y-20987889D01*
X3020182Y-20987889D02*
X3010658Y-21006936D01*
X3010658Y-21006936D02*
X3001134Y-21016460D01*
X3001134Y-21016460D02*
X2982086Y-21025984D01*
X2982086Y-21025984D02*
X2963039Y-21025984D01*
X2963039Y-21025984D02*
X2943991Y-21016460D01*
X2943991Y-21016460D02*
X2934467Y-21006936D01*
X2934467Y-21006936D02*
X2924943Y-20987889D01*
X2924943Y-20987889D02*
X2915420Y-20949793D01*
X2915420Y-20949793D02*
X2915420Y-20902174D01*
X2915420Y-20902174D02*
X2924943Y-20864079D01*
X2924943Y-20864079D02*
X2934467Y-20845031D01*
X2934467Y-20845031D02*
X2943991Y-20835508D01*
X2943991Y-20835508D02*
X2963039Y-20825984D01*
X3115420Y-21025984D02*
X3115420Y-20892650D01*
X3115420Y-20911698D02*
X3124943Y-20902174D01*
X3124943Y-20902174D02*
X3143991Y-20892650D01*
X3143991Y-20892650D02*
X3172563Y-20892650D01*
X3172563Y-20892650D02*
X3191610Y-20902174D01*
X3191610Y-20902174D02*
X3201134Y-20921222D01*
X3201134Y-20921222D02*
X3201134Y-21025984D01*
X3201134Y-20921222D02*
X3210658Y-20902174D01*
X3210658Y-20902174D02*
X3229705Y-20892650D01*
X3229705Y-20892650D02*
X3258277Y-20892650D01*
X3258277Y-20892650D02*
X3277324Y-20902174D01*
X3277324Y-20902174D02*
X3286848Y-20921222D01*
X3286848Y-20921222D02*
X3286848Y-21025984D01*
X3382086Y-21025984D02*
X3382086Y-20892650D01*
X3382086Y-20911698D02*
X3391610Y-20902174D01*
X3391610Y-20902174D02*
X3410658Y-20892650D01*
X3410658Y-20892650D02*
X3439229Y-20892650D01*
X3439229Y-20892650D02*
X3458277Y-20902174D01*
X3458277Y-20902174D02*
X3467801Y-20921222D01*
X3467801Y-20921222D02*
X3467801Y-21025984D01*
X3467801Y-20921222D02*
X3477324Y-20902174D01*
X3477324Y-20902174D02*
X3496372Y-20892650D01*
X3496372Y-20892650D02*
X3524943Y-20892650D01*
X3524943Y-20892650D02*
X3543991Y-20902174D01*
X3543991Y-20902174D02*
X3553515Y-20921222D01*
X3553515Y-20921222D02*
X3553515Y-21025984D01*
X3943991Y-20816460D02*
X3772563Y-21073603D01*
X4201134Y-20825984D02*
X4220182Y-20825984D01*
X4220182Y-20825984D02*
X4239229Y-20835508D01*
X4239229Y-20835508D02*
X4248753Y-20845031D01*
X4248753Y-20845031D02*
X4258277Y-20864079D01*
X4258277Y-20864079D02*
X4267801Y-20902174D01*
X4267801Y-20902174D02*
X4267801Y-20949793D01*
X4267801Y-20949793D02*
X4258277Y-20987889D01*
X4258277Y-20987889D02*
X4248753Y-21006936D01*
X4248753Y-21006936D02*
X4239229Y-21016460D01*
X4239229Y-21016460D02*
X4220182Y-21025984D01*
X4220182Y-21025984D02*
X4201134Y-21025984D01*
X4201134Y-21025984D02*
X4182086Y-21016460D01*
X4182086Y-21016460D02*
X4172563Y-21006936D01*
X4172563Y-21006936D02*
X4163039Y-20987889D01*
X4163039Y-20987889D02*
X4153515Y-20949793D01*
X4153515Y-20949793D02*
X4153515Y-20902174D01*
X4153515Y-20902174D02*
X4163039Y-20864079D01*
X4163039Y-20864079D02*
X4172563Y-20845031D01*
X4172563Y-20845031D02*
X4182086Y-20835508D01*
X4182086Y-20835508D02*
X4201134Y-20825984D01*
X4353515Y-21006936D02*
X4363039Y-21016460D01*
X4363039Y-21016460D02*
X4353515Y-21025984D01*
X4353515Y-21025984D02*
X4343991Y-21016460D01*
X4343991Y-21016460D02*
X4353515Y-21006936D01*
X4353515Y-21006936D02*
X4353515Y-21025984D01*
X4486848Y-20825984D02*
X4505896Y-20825984D01*
X4505896Y-20825984D02*
X4524944Y-20835508D01*
X4524944Y-20835508D02*
X4534468Y-20845031D01*
X4534468Y-20845031D02*
X4543991Y-20864079D01*
X4543991Y-20864079D02*
X4553515Y-20902174D01*
X4553515Y-20902174D02*
X4553515Y-20949793D01*
X4553515Y-20949793D02*
X4543991Y-20987889D01*
X4543991Y-20987889D02*
X4534468Y-21006936D01*
X4534468Y-21006936D02*
X4524944Y-21016460D01*
X4524944Y-21016460D02*
X4505896Y-21025984D01*
X4505896Y-21025984D02*
X4486848Y-21025984D01*
X4486848Y-21025984D02*
X4467801Y-21016460D01*
X4467801Y-21016460D02*
X4458277Y-21006936D01*
X4458277Y-21006936D02*
X4448753Y-20987889D01*
X4448753Y-20987889D02*
X4439229Y-20949793D01*
X4439229Y-20949793D02*
X4439229Y-20902174D01*
X4439229Y-20902174D02*
X4448753Y-20864079D01*
X4448753Y-20864079D02*
X4458277Y-20845031D01*
X4458277Y-20845031D02*
X4467801Y-20835508D01*
X4467801Y-20835508D02*
X4486848Y-20825984D01*
X4724944Y-20892650D02*
X4724944Y-21025984D01*
X4677325Y-20816460D02*
X4629706Y-20959317D01*
X4629706Y-20959317D02*
X4753515Y-20959317D01*
X4810658Y-20825984D02*
X4934468Y-20825984D01*
X4934468Y-20825984D02*
X4867801Y-20902174D01*
X4867801Y-20902174D02*
X4896372Y-20902174D01*
X4896372Y-20902174D02*
X4915420Y-20911698D01*
X4915420Y-20911698D02*
X4924944Y-20921222D01*
X4924944Y-20921222D02*
X4934468Y-20940270D01*
X4934468Y-20940270D02*
X4934468Y-20987889D01*
X4934468Y-20987889D02*
X4924944Y-21006936D01*
X4924944Y-21006936D02*
X4915420Y-21016460D01*
X4915420Y-21016460D02*
X4896372Y-21025984D01*
X4896372Y-21025984D02*
X4839229Y-21025984D01*
X4839229Y-21025984D02*
X4820182Y-21016460D01*
X4820182Y-21016460D02*
X4810658Y-21006936D01*
X5001134Y-20825984D02*
X5124944Y-20825984D01*
X5124944Y-20825984D02*
X5058277Y-20902174D01*
X5058277Y-20902174D02*
X5086849Y-20902174D01*
X5086849Y-20902174D02*
X5105896Y-20911698D01*
X5105896Y-20911698D02*
X5115420Y-20921222D01*
X5115420Y-20921222D02*
X5124944Y-20940270D01*
X5124944Y-20940270D02*
X5124944Y-20987889D01*
X5124944Y-20987889D02*
X5115420Y-21006936D01*
X5115420Y-21006936D02*
X5105896Y-21016460D01*
X5105896Y-21016460D02*
X5086849Y-21025984D01*
X5086849Y-21025984D02*
X5029706Y-21025984D01*
X5029706Y-21025984D02*
X5010658Y-21016460D01*
X5010658Y-21016460D02*
X5001134Y-21006936D01*
X5201134Y-20825984D02*
X5201134Y-20864079D01*
X5277325Y-20825984D02*
X5277325Y-20864079D01*
X5572563Y-21102174D02*
X5563039Y-21092650D01*
X5563039Y-21092650D02*
X5543991Y-21064079D01*
X5543991Y-21064079D02*
X5534468Y-21045031D01*
X5534468Y-21045031D02*
X5524944Y-21016460D01*
X5524944Y-21016460D02*
X5515420Y-20968841D01*
X5515420Y-20968841D02*
X5515420Y-20930746D01*
X5515420Y-20930746D02*
X5524944Y-20883127D01*
X5524944Y-20883127D02*
X5534468Y-20854555D01*
X5534468Y-20854555D02*
X5543991Y-20835508D01*
X5543991Y-20835508D02*
X5563039Y-20806936D01*
X5563039Y-20806936D02*
X5572563Y-20797412D01*
X5629706Y-20825984D02*
X5753515Y-20825984D01*
X5753515Y-20825984D02*
X5686848Y-20902174D01*
X5686848Y-20902174D02*
X5715420Y-20902174D01*
X5715420Y-20902174D02*
X5734468Y-20911698D01*
X5734468Y-20911698D02*
X5743991Y-20921222D01*
X5743991Y-20921222D02*
X5753515Y-20940270D01*
X5753515Y-20940270D02*
X5753515Y-20987889D01*
X5753515Y-20987889D02*
X5743991Y-21006936D01*
X5743991Y-21006936D02*
X5734468Y-21016460D01*
X5734468Y-21016460D02*
X5715420Y-21025984D01*
X5715420Y-21025984D02*
X5658277Y-21025984D01*
X5658277Y-21025984D02*
X5639229Y-21016460D01*
X5639229Y-21016460D02*
X5629706Y-21006936D01*
X5877325Y-20825984D02*
X5896372Y-20825984D01*
X5896372Y-20825984D02*
X5915420Y-20835508D01*
X5915420Y-20835508D02*
X5924944Y-20845031D01*
X5924944Y-20845031D02*
X5934468Y-20864079D01*
X5934468Y-20864079D02*
X5943991Y-20902174D01*
X5943991Y-20902174D02*
X5943991Y-20949793D01*
X5943991Y-20949793D02*
X5934468Y-20987889D01*
X5934468Y-20987889D02*
X5924944Y-21006936D01*
X5924944Y-21006936D02*
X5915420Y-21016460D01*
X5915420Y-21016460D02*
X5896372Y-21025984D01*
X5896372Y-21025984D02*
X5877325Y-21025984D01*
X5877325Y-21025984D02*
X5858277Y-21016460D01*
X5858277Y-21016460D02*
X5848753Y-21006936D01*
X5848753Y-21006936D02*
X5839229Y-20987889D01*
X5839229Y-20987889D02*
X5829706Y-20949793D01*
X5829706Y-20949793D02*
X5829706Y-20902174D01*
X5829706Y-20902174D02*
X5839229Y-20864079D01*
X5839229Y-20864079D02*
X5848753Y-20845031D01*
X5848753Y-20845031D02*
X5858277Y-20835508D01*
X5858277Y-20835508D02*
X5877325Y-20825984D01*
X6182087Y-21025984D02*
X6182087Y-20825984D01*
X6267801Y-21025984D02*
X6267801Y-20921222D01*
X6267801Y-20921222D02*
X6258277Y-20902174D01*
X6258277Y-20902174D02*
X6239230Y-20892650D01*
X6239230Y-20892650D02*
X6210658Y-20892650D01*
X6210658Y-20892650D02*
X6191610Y-20902174D01*
X6191610Y-20902174D02*
X6182087Y-20911698D01*
X6391610Y-21025984D02*
X6372563Y-21016460D01*
X6372563Y-21016460D02*
X6363039Y-21006936D01*
X6363039Y-21006936D02*
X6353515Y-20987889D01*
X6353515Y-20987889D02*
X6353515Y-20930746D01*
X6353515Y-20930746D02*
X6363039Y-20911698D01*
X6363039Y-20911698D02*
X6372563Y-20902174D01*
X6372563Y-20902174D02*
X6391610Y-20892650D01*
X6391610Y-20892650D02*
X6420182Y-20892650D01*
X6420182Y-20892650D02*
X6439230Y-20902174D01*
X6439230Y-20902174D02*
X6448753Y-20911698D01*
X6448753Y-20911698D02*
X6458277Y-20930746D01*
X6458277Y-20930746D02*
X6458277Y-20987889D01*
X6458277Y-20987889D02*
X6448753Y-21006936D01*
X6448753Y-21006936D02*
X6439230Y-21016460D01*
X6439230Y-21016460D02*
X6420182Y-21025984D01*
X6420182Y-21025984D02*
X6391610Y-21025984D01*
X6572563Y-21025984D02*
X6553515Y-21016460D01*
X6553515Y-21016460D02*
X6543991Y-20997412D01*
X6543991Y-20997412D02*
X6543991Y-20825984D01*
X6724944Y-21016460D02*
X6705896Y-21025984D01*
X6705896Y-21025984D02*
X6667801Y-21025984D01*
X6667801Y-21025984D02*
X6648753Y-21016460D01*
X6648753Y-21016460D02*
X6639230Y-20997412D01*
X6639230Y-20997412D02*
X6639230Y-20921222D01*
X6639230Y-20921222D02*
X6648753Y-20902174D01*
X6648753Y-20902174D02*
X6667801Y-20892650D01*
X6667801Y-20892650D02*
X6705896Y-20892650D01*
X6705896Y-20892650D02*
X6724944Y-20902174D01*
X6724944Y-20902174D02*
X6734468Y-20921222D01*
X6734468Y-20921222D02*
X6734468Y-20940270D01*
X6734468Y-20940270D02*
X6639230Y-20959317D01*
X6810658Y-21016460D02*
X6829706Y-21025984D01*
X6829706Y-21025984D02*
X6867801Y-21025984D01*
X6867801Y-21025984D02*
X6886849Y-21016460D01*
X6886849Y-21016460D02*
X6896372Y-20997412D01*
X6896372Y-20997412D02*
X6896372Y-20987889D01*
X6896372Y-20987889D02*
X6886849Y-20968841D01*
X6886849Y-20968841D02*
X6867801Y-20959317D01*
X6867801Y-20959317D02*
X6839230Y-20959317D01*
X6839230Y-20959317D02*
X6820182Y-20949793D01*
X6820182Y-20949793D02*
X6810658Y-20930746D01*
X6810658Y-20930746D02*
X6810658Y-20921222D01*
X6810658Y-20921222D02*
X6820182Y-20902174D01*
X6820182Y-20902174D02*
X6839230Y-20892650D01*
X6839230Y-20892650D02*
X6867801Y-20892650D01*
X6867801Y-20892650D02*
X6886849Y-20902174D01*
X6963039Y-21102174D02*
X6972563Y-21092650D01*
X6972563Y-21092650D02*
X6991611Y-21064079D01*
X6991611Y-21064079D02*
X7001134Y-21045031D01*
X7001134Y-21045031D02*
X7010658Y-21016460D01*
X7010658Y-21016460D02*
X7020182Y-20968841D01*
X7020182Y-20968841D02*
X7020182Y-20930746D01*
X7020182Y-20930746D02*
X7010658Y-20883127D01*
X7010658Y-20883127D02*
X7001134Y-20854555D01*
X7001134Y-20854555D02*
X6991611Y-20835508D01*
X6991611Y-20835508D02*
X6972563Y-20806936D01*
X6972563Y-20806936D02*
X6963039Y-20797412D01*
X1897500Y-21298500D02*
X1997500Y-21198500D01*
X1897500Y-21098500D01*
X1797500Y-21198500D01*
X1897500Y-21298500D01*
X2248753Y-21109031D02*
X2258277Y-21099508D01*
X2258277Y-21099508D02*
X2277324Y-21089984D01*
X2277324Y-21089984D02*
X2324944Y-21089984D01*
X2324944Y-21089984D02*
X2343991Y-21099508D01*
X2343991Y-21099508D02*
X2353515Y-21109031D01*
X2353515Y-21109031D02*
X2363039Y-21128079D01*
X2363039Y-21128079D02*
X2363039Y-21147127D01*
X2363039Y-21147127D02*
X2353515Y-21175698D01*
X2353515Y-21175698D02*
X2239229Y-21289984D01*
X2239229Y-21289984D02*
X2363039Y-21289984D01*
X2448753Y-21270936D02*
X2458277Y-21280460D01*
X2458277Y-21280460D02*
X2448753Y-21289984D01*
X2448753Y-21289984D02*
X2439229Y-21280460D01*
X2439229Y-21280460D02*
X2448753Y-21270936D01*
X2448753Y-21270936D02*
X2448753Y-21289984D01*
X2648753Y-21289984D02*
X2534467Y-21289984D01*
X2591610Y-21289984D02*
X2591610Y-21089984D01*
X2591610Y-21089984D02*
X2572563Y-21118555D01*
X2572563Y-21118555D02*
X2553515Y-21137603D01*
X2553515Y-21137603D02*
X2534467Y-21147127D01*
X2829705Y-21089984D02*
X2734467Y-21089984D01*
X2734467Y-21089984D02*
X2724944Y-21185222D01*
X2724944Y-21185222D02*
X2734467Y-21175698D01*
X2734467Y-21175698D02*
X2753515Y-21166174D01*
X2753515Y-21166174D02*
X2801134Y-21166174D01*
X2801134Y-21166174D02*
X2820182Y-21175698D01*
X2820182Y-21175698D02*
X2829705Y-21185222D01*
X2829705Y-21185222D02*
X2839229Y-21204270D01*
X2839229Y-21204270D02*
X2839229Y-21251889D01*
X2839229Y-21251889D02*
X2829705Y-21270936D01*
X2829705Y-21270936D02*
X2820182Y-21280460D01*
X2820182Y-21280460D02*
X2801134Y-21289984D01*
X2801134Y-21289984D02*
X2753515Y-21289984D01*
X2753515Y-21289984D02*
X2734467Y-21280460D01*
X2734467Y-21280460D02*
X2724944Y-21270936D01*
X2963039Y-21089984D02*
X2982086Y-21089984D01*
X2982086Y-21089984D02*
X3001134Y-21099508D01*
X3001134Y-21099508D02*
X3010658Y-21109031D01*
X3010658Y-21109031D02*
X3020182Y-21128079D01*
X3020182Y-21128079D02*
X3029705Y-21166174D01*
X3029705Y-21166174D02*
X3029705Y-21213793D01*
X3029705Y-21213793D02*
X3020182Y-21251889D01*
X3020182Y-21251889D02*
X3010658Y-21270936D01*
X3010658Y-21270936D02*
X3001134Y-21280460D01*
X3001134Y-21280460D02*
X2982086Y-21289984D01*
X2982086Y-21289984D02*
X2963039Y-21289984D01*
X2963039Y-21289984D02*
X2943991Y-21280460D01*
X2943991Y-21280460D02*
X2934467Y-21270936D01*
X2934467Y-21270936D02*
X2924943Y-21251889D01*
X2924943Y-21251889D02*
X2915420Y-21213793D01*
X2915420Y-21213793D02*
X2915420Y-21166174D01*
X2915420Y-21166174D02*
X2924943Y-21128079D01*
X2924943Y-21128079D02*
X2934467Y-21109031D01*
X2934467Y-21109031D02*
X2943991Y-21099508D01*
X2943991Y-21099508D02*
X2963039Y-21089984D01*
X3115420Y-21289984D02*
X3115420Y-21156650D01*
X3115420Y-21175698D02*
X3124943Y-21166174D01*
X3124943Y-21166174D02*
X3143991Y-21156650D01*
X3143991Y-21156650D02*
X3172563Y-21156650D01*
X3172563Y-21156650D02*
X3191610Y-21166174D01*
X3191610Y-21166174D02*
X3201134Y-21185222D01*
X3201134Y-21185222D02*
X3201134Y-21289984D01*
X3201134Y-21185222D02*
X3210658Y-21166174D01*
X3210658Y-21166174D02*
X3229705Y-21156650D01*
X3229705Y-21156650D02*
X3258277Y-21156650D01*
X3258277Y-21156650D02*
X3277324Y-21166174D01*
X3277324Y-21166174D02*
X3286848Y-21185222D01*
X3286848Y-21185222D02*
X3286848Y-21289984D01*
X3382086Y-21289984D02*
X3382086Y-21156650D01*
X3382086Y-21175698D02*
X3391610Y-21166174D01*
X3391610Y-21166174D02*
X3410658Y-21156650D01*
X3410658Y-21156650D02*
X3439229Y-21156650D01*
X3439229Y-21156650D02*
X3458277Y-21166174D01*
X3458277Y-21166174D02*
X3467801Y-21185222D01*
X3467801Y-21185222D02*
X3467801Y-21289984D01*
X3467801Y-21185222D02*
X3477324Y-21166174D01*
X3477324Y-21166174D02*
X3496372Y-21156650D01*
X3496372Y-21156650D02*
X3524943Y-21156650D01*
X3524943Y-21156650D02*
X3543991Y-21166174D01*
X3543991Y-21166174D02*
X3553515Y-21185222D01*
X3553515Y-21185222D02*
X3553515Y-21289984D01*
X3943991Y-21080460D02*
X3772563Y-21337603D01*
X4201134Y-21089984D02*
X4220182Y-21089984D01*
X4220182Y-21089984D02*
X4239229Y-21099508D01*
X4239229Y-21099508D02*
X4248753Y-21109031D01*
X4248753Y-21109031D02*
X4258277Y-21128079D01*
X4258277Y-21128079D02*
X4267801Y-21166174D01*
X4267801Y-21166174D02*
X4267801Y-21213793D01*
X4267801Y-21213793D02*
X4258277Y-21251889D01*
X4258277Y-21251889D02*
X4248753Y-21270936D01*
X4248753Y-21270936D02*
X4239229Y-21280460D01*
X4239229Y-21280460D02*
X4220182Y-21289984D01*
X4220182Y-21289984D02*
X4201134Y-21289984D01*
X4201134Y-21289984D02*
X4182086Y-21280460D01*
X4182086Y-21280460D02*
X4172563Y-21270936D01*
X4172563Y-21270936D02*
X4163039Y-21251889D01*
X4163039Y-21251889D02*
X4153515Y-21213793D01*
X4153515Y-21213793D02*
X4153515Y-21166174D01*
X4153515Y-21166174D02*
X4163039Y-21128079D01*
X4163039Y-21128079D02*
X4172563Y-21109031D01*
X4172563Y-21109031D02*
X4182086Y-21099508D01*
X4182086Y-21099508D02*
X4201134Y-21089984D01*
X4353515Y-21270936D02*
X4363039Y-21280460D01*
X4363039Y-21280460D02*
X4353515Y-21289984D01*
X4353515Y-21289984D02*
X4343991Y-21280460D01*
X4343991Y-21280460D02*
X4353515Y-21270936D01*
X4353515Y-21270936D02*
X4353515Y-21289984D01*
X4486848Y-21089984D02*
X4505896Y-21089984D01*
X4505896Y-21089984D02*
X4524944Y-21099508D01*
X4524944Y-21099508D02*
X4534468Y-21109031D01*
X4534468Y-21109031D02*
X4543991Y-21128079D01*
X4543991Y-21128079D02*
X4553515Y-21166174D01*
X4553515Y-21166174D02*
X4553515Y-21213793D01*
X4553515Y-21213793D02*
X4543991Y-21251889D01*
X4543991Y-21251889D02*
X4534468Y-21270936D01*
X4534468Y-21270936D02*
X4524944Y-21280460D01*
X4524944Y-21280460D02*
X4505896Y-21289984D01*
X4505896Y-21289984D02*
X4486848Y-21289984D01*
X4486848Y-21289984D02*
X4467801Y-21280460D01*
X4467801Y-21280460D02*
X4458277Y-21270936D01*
X4458277Y-21270936D02*
X4448753Y-21251889D01*
X4448753Y-21251889D02*
X4439229Y-21213793D01*
X4439229Y-21213793D02*
X4439229Y-21166174D01*
X4439229Y-21166174D02*
X4448753Y-21128079D01*
X4448753Y-21128079D02*
X4458277Y-21109031D01*
X4458277Y-21109031D02*
X4467801Y-21099508D01*
X4467801Y-21099508D02*
X4486848Y-21089984D01*
X4667801Y-21175698D02*
X4648753Y-21166174D01*
X4648753Y-21166174D02*
X4639229Y-21156650D01*
X4639229Y-21156650D02*
X4629706Y-21137603D01*
X4629706Y-21137603D02*
X4629706Y-21128079D01*
X4629706Y-21128079D02*
X4639229Y-21109031D01*
X4639229Y-21109031D02*
X4648753Y-21099508D01*
X4648753Y-21099508D02*
X4667801Y-21089984D01*
X4667801Y-21089984D02*
X4705896Y-21089984D01*
X4705896Y-21089984D02*
X4724944Y-21099508D01*
X4724944Y-21099508D02*
X4734468Y-21109031D01*
X4734468Y-21109031D02*
X4743991Y-21128079D01*
X4743991Y-21128079D02*
X4743991Y-21137603D01*
X4743991Y-21137603D02*
X4734468Y-21156650D01*
X4734468Y-21156650D02*
X4724944Y-21166174D01*
X4724944Y-21166174D02*
X4705896Y-21175698D01*
X4705896Y-21175698D02*
X4667801Y-21175698D01*
X4667801Y-21175698D02*
X4648753Y-21185222D01*
X4648753Y-21185222D02*
X4639229Y-21194746D01*
X4639229Y-21194746D02*
X4629706Y-21213793D01*
X4629706Y-21213793D02*
X4629706Y-21251889D01*
X4629706Y-21251889D02*
X4639229Y-21270936D01*
X4639229Y-21270936D02*
X4648753Y-21280460D01*
X4648753Y-21280460D02*
X4667801Y-21289984D01*
X4667801Y-21289984D02*
X4705896Y-21289984D01*
X4705896Y-21289984D02*
X4724944Y-21280460D01*
X4724944Y-21280460D02*
X4734468Y-21270936D01*
X4734468Y-21270936D02*
X4743991Y-21251889D01*
X4743991Y-21251889D02*
X4743991Y-21213793D01*
X4743991Y-21213793D02*
X4734468Y-21194746D01*
X4734468Y-21194746D02*
X4724944Y-21185222D01*
X4724944Y-21185222D02*
X4705896Y-21175698D01*
X4915420Y-21156650D02*
X4915420Y-21289984D01*
X4867801Y-21080460D02*
X4820182Y-21223317D01*
X4820182Y-21223317D02*
X4943991Y-21223317D01*
X5105896Y-21089984D02*
X5067801Y-21089984D01*
X5067801Y-21089984D02*
X5048753Y-21099508D01*
X5048753Y-21099508D02*
X5039229Y-21109031D01*
X5039229Y-21109031D02*
X5020182Y-21137603D01*
X5020182Y-21137603D02*
X5010658Y-21175698D01*
X5010658Y-21175698D02*
X5010658Y-21251889D01*
X5010658Y-21251889D02*
X5020182Y-21270936D01*
X5020182Y-21270936D02*
X5029706Y-21280460D01*
X5029706Y-21280460D02*
X5048753Y-21289984D01*
X5048753Y-21289984D02*
X5086849Y-21289984D01*
X5086849Y-21289984D02*
X5105896Y-21280460D01*
X5105896Y-21280460D02*
X5115420Y-21270936D01*
X5115420Y-21270936D02*
X5124944Y-21251889D01*
X5124944Y-21251889D02*
X5124944Y-21204270D01*
X5124944Y-21204270D02*
X5115420Y-21185222D01*
X5115420Y-21185222D02*
X5105896Y-21175698D01*
X5105896Y-21175698D02*
X5086849Y-21166174D01*
X5086849Y-21166174D02*
X5048753Y-21166174D01*
X5048753Y-21166174D02*
X5029706Y-21175698D01*
X5029706Y-21175698D02*
X5020182Y-21185222D01*
X5020182Y-21185222D02*
X5010658Y-21204270D01*
X5201134Y-21089984D02*
X5201134Y-21128079D01*
X5277325Y-21089984D02*
X5277325Y-21128079D01*
X5572563Y-21366174D02*
X5563039Y-21356650D01*
X5563039Y-21356650D02*
X5543991Y-21328079D01*
X5543991Y-21328079D02*
X5534468Y-21309031D01*
X5534468Y-21309031D02*
X5524944Y-21280460D01*
X5524944Y-21280460D02*
X5515420Y-21232841D01*
X5515420Y-21232841D02*
X5515420Y-21194746D01*
X5515420Y-21194746D02*
X5524944Y-21147127D01*
X5524944Y-21147127D02*
X5534468Y-21118555D01*
X5534468Y-21118555D02*
X5543991Y-21099508D01*
X5543991Y-21099508D02*
X5563039Y-21070936D01*
X5563039Y-21070936D02*
X5572563Y-21061412D01*
X5639229Y-21109031D02*
X5648753Y-21099508D01*
X5648753Y-21099508D02*
X5667801Y-21089984D01*
X5667801Y-21089984D02*
X5715420Y-21089984D01*
X5715420Y-21089984D02*
X5734468Y-21099508D01*
X5734468Y-21099508D02*
X5743991Y-21109031D01*
X5743991Y-21109031D02*
X5753515Y-21128079D01*
X5753515Y-21128079D02*
X5753515Y-21147127D01*
X5753515Y-21147127D02*
X5743991Y-21175698D01*
X5743991Y-21175698D02*
X5629706Y-21289984D01*
X5629706Y-21289984D02*
X5753515Y-21289984D01*
X5924944Y-21156650D02*
X5924944Y-21289984D01*
X5877325Y-21080460D02*
X5829706Y-21223317D01*
X5829706Y-21223317D02*
X5953515Y-21223317D01*
X6182087Y-21289984D02*
X6182087Y-21089984D01*
X6267801Y-21289984D02*
X6267801Y-21185222D01*
X6267801Y-21185222D02*
X6258277Y-21166174D01*
X6258277Y-21166174D02*
X6239230Y-21156650D01*
X6239230Y-21156650D02*
X6210658Y-21156650D01*
X6210658Y-21156650D02*
X6191610Y-21166174D01*
X6191610Y-21166174D02*
X6182087Y-21175698D01*
X6391610Y-21289984D02*
X6372563Y-21280460D01*
X6372563Y-21280460D02*
X6363039Y-21270936D01*
X6363039Y-21270936D02*
X6353515Y-21251889D01*
X6353515Y-21251889D02*
X6353515Y-21194746D01*
X6353515Y-21194746D02*
X6363039Y-21175698D01*
X6363039Y-21175698D02*
X6372563Y-21166174D01*
X6372563Y-21166174D02*
X6391610Y-21156650D01*
X6391610Y-21156650D02*
X6420182Y-21156650D01*
X6420182Y-21156650D02*
X6439230Y-21166174D01*
X6439230Y-21166174D02*
X6448753Y-21175698D01*
X6448753Y-21175698D02*
X6458277Y-21194746D01*
X6458277Y-21194746D02*
X6458277Y-21251889D01*
X6458277Y-21251889D02*
X6448753Y-21270936D01*
X6448753Y-21270936D02*
X6439230Y-21280460D01*
X6439230Y-21280460D02*
X6420182Y-21289984D01*
X6420182Y-21289984D02*
X6391610Y-21289984D01*
X6572563Y-21289984D02*
X6553515Y-21280460D01*
X6553515Y-21280460D02*
X6543991Y-21261412D01*
X6543991Y-21261412D02*
X6543991Y-21089984D01*
X6724944Y-21280460D02*
X6705896Y-21289984D01*
X6705896Y-21289984D02*
X6667801Y-21289984D01*
X6667801Y-21289984D02*
X6648753Y-21280460D01*
X6648753Y-21280460D02*
X6639230Y-21261412D01*
X6639230Y-21261412D02*
X6639230Y-21185222D01*
X6639230Y-21185222D02*
X6648753Y-21166174D01*
X6648753Y-21166174D02*
X6667801Y-21156650D01*
X6667801Y-21156650D02*
X6705896Y-21156650D01*
X6705896Y-21156650D02*
X6724944Y-21166174D01*
X6724944Y-21166174D02*
X6734468Y-21185222D01*
X6734468Y-21185222D02*
X6734468Y-21204270D01*
X6734468Y-21204270D02*
X6639230Y-21223317D01*
X6810658Y-21280460D02*
X6829706Y-21289984D01*
X6829706Y-21289984D02*
X6867801Y-21289984D01*
X6867801Y-21289984D02*
X6886849Y-21280460D01*
X6886849Y-21280460D02*
X6896372Y-21261412D01*
X6896372Y-21261412D02*
X6896372Y-21251889D01*
X6896372Y-21251889D02*
X6886849Y-21232841D01*
X6886849Y-21232841D02*
X6867801Y-21223317D01*
X6867801Y-21223317D02*
X6839230Y-21223317D01*
X6839230Y-21223317D02*
X6820182Y-21213793D01*
X6820182Y-21213793D02*
X6810658Y-21194746D01*
X6810658Y-21194746D02*
X6810658Y-21185222D01*
X6810658Y-21185222D02*
X6820182Y-21166174D01*
X6820182Y-21166174D02*
X6839230Y-21156650D01*
X6839230Y-21156650D02*
X6867801Y-21156650D01*
X6867801Y-21156650D02*
X6886849Y-21166174D01*
X6963039Y-21366174D02*
X6972563Y-21356650D01*
X6972563Y-21356650D02*
X6991611Y-21328079D01*
X6991611Y-21328079D02*
X7001134Y-21309031D01*
X7001134Y-21309031D02*
X7010658Y-21280460D01*
X7010658Y-21280460D02*
X7020182Y-21232841D01*
X7020182Y-21232841D02*
X7020182Y-21194746D01*
X7020182Y-21194746D02*
X7010658Y-21147127D01*
X7010658Y-21147127D02*
X7001134Y-21118555D01*
X7001134Y-21118555D02*
X6991611Y-21099508D01*
X6991611Y-21099508D02*
X6972563Y-21070936D01*
X6972563Y-21070936D02*
X6963039Y-21061412D01*
M02*
