G04 #@! TF.GenerationSoftware,KiCad,Pcbnew,9.0.1*
G04 #@! TF.CreationDate,2025-05-09T02:34:20+02:00*
G04 #@! TF.ProjectId,receiver_battery,72656365-6976-4657-925f-626174746572,rev?*
G04 #@! TF.SameCoordinates,Original*
G04 #@! TF.FileFunction,Copper,L1,Top*
G04 #@! TF.FilePolarity,Positive*
%FSLAX46Y46*%
G04 Gerber Fmt 4.6, Leading zero omitted, Abs format (unit mm)*
G04 Created by KiCad (PCBNEW 9.0.1) date 2025-05-09 02:34:20*
%MOMM*%
%LPD*%
G01*
G04 APERTURE LIST*
G04 Aperture macros list*
%AMRoundRect*
0 Rectangle with rounded corners*
0 $1 Rounding radius*
0 $2 $3 $4 $5 $6 $7 $8 $9 X,Y pos of 4 corners*
0 Add a 4 corners polygon primitive as box body*
4,1,4,$2,$3,$4,$5,$6,$7,$8,$9,$2,$3,0*
0 Add four circle primitives for the rounded corners*
1,1,$1+$1,$2,$3*
1,1,$1+$1,$4,$5*
1,1,$1+$1,$6,$7*
1,1,$1+$1,$8,$9*
0 Add four rect primitives between the rounded corners*
20,1,$1+$1,$2,$3,$4,$5,0*
20,1,$1+$1,$4,$5,$6,$7,0*
20,1,$1+$1,$6,$7,$8,$9,0*
20,1,$1+$1,$8,$9,$2,$3,0*%
G04 Aperture macros list end*
G04 #@! TA.AperFunction,ComponentPad*
%ADD10R,2.000000X1.905000*%
G04 #@! TD*
G04 #@! TA.AperFunction,ComponentPad*
%ADD11O,2.000000X1.905000*%
G04 #@! TD*
G04 #@! TA.AperFunction,ComponentPad*
%ADD12RoundRect,0.250002X-1.699998X1.699998X-1.699998X-1.699998X1.699998X-1.699998X1.699998X1.699998X0*%
G04 #@! TD*
G04 #@! TA.AperFunction,ComponentPad*
%ADD13C,1.600000*%
G04 #@! TD*
G04 #@! TA.AperFunction,ComponentPad*
%ADD14O,1.600000X1.600000*%
G04 #@! TD*
G04 #@! TA.AperFunction,ComponentPad*
%ADD15RoundRect,0.250002X-1.699998X-1.699998X1.699998X-1.699998X1.699998X1.699998X-1.699998X1.699998X0*%
G04 #@! TD*
G04 #@! TA.AperFunction,ComponentPad*
%ADD16RoundRect,0.250002X1.699998X-1.699998X1.699998X1.699998X-1.699998X1.699998X-1.699998X-1.699998X0*%
G04 #@! TD*
G04 #@! TA.AperFunction,ComponentPad*
%ADD17R,1.600000X1.600000*%
G04 #@! TD*
G04 #@! TA.AperFunction,ComponentPad*
%ADD18R,1.700000X1.700000*%
G04 #@! TD*
G04 #@! TA.AperFunction,ComponentPad*
%ADD19C,1.700000*%
G04 #@! TD*
G04 #@! TA.AperFunction,ViaPad*
%ADD20C,0.600000*%
G04 #@! TD*
G04 #@! TA.AperFunction,Conductor*
%ADD21C,0.200000*%
G04 #@! TD*
G04 APERTURE END LIST*
D10*
G04 #@! TO.P,NPN1_5,1,G*
G04 #@! TO.N,pwm1*
X102000000Y-150000000D03*
D11*
G04 #@! TO.P,NPN1_5,2,D*
G04 #@! TO.N,Net-(NPN1_5-D)*
X102000000Y-152540000D03*
G04 #@! TO.P,NPN1_5,3,S*
G04 #@! TO.N,GND_transformer*
X102000000Y-155080000D03*
G04 #@! TD*
D12*
G04 #@! TO.P,V-led1_4,1,Pin_1*
G04 #@! TO.N,Net-(NPN1_4-D)*
X93000000Y-135000000D03*
G04 #@! TD*
D10*
G04 #@! TO.P,NPN2_3,1,G*
G04 #@! TO.N,pwm2*
X69945000Y-113540000D03*
D11*
G04 #@! TO.P,NPN2_3,2,D*
G04 #@! TO.N,Net-(NPN2_3-D)*
X69945000Y-111000000D03*
G04 #@! TO.P,NPN2_3,3,S*
G04 #@! TO.N,GND_transformer*
X69945000Y-108460000D03*
G04 #@! TD*
D13*
G04 #@! TO.P,PullDown2_3,1*
G04 #@! TO.N,pwm2*
X62000000Y-114620000D03*
D14*
G04 #@! TO.P,PullDown2_3,2*
G04 #@! TO.N,GND_transformer*
X62000000Y-107000000D03*
G04 #@! TD*
D15*
G04 #@! TO.P,V+_transformer1,1,Pin_1*
G04 #@! TO.N,Net-(V+_transformer1-Pin_1)*
X45000000Y-51190000D03*
G04 #@! TD*
D13*
G04 #@! TO.P,PullDown1_3,1*
G04 #@! TO.N,pwm1*
X112000000Y-109000000D03*
D14*
G04 #@! TO.P,PullDown1_3,2*
G04 #@! TO.N,GND_transformer*
X112000000Y-116620000D03*
G04 #@! TD*
D13*
G04 #@! TO.P,R2,1*
G04 #@! TO.N,pwm1*
X60000000Y-178000000D03*
D14*
G04 #@! TO.P,R2,2*
G04 #@! TO.N,Net-(A1-D3)*
X60000000Y-185620000D03*
G04 #@! TD*
D16*
G04 #@! TO.P,V-led2_3,1,Pin_1*
G04 #@! TO.N,Net-(NPN2_3-D)*
X77000000Y-116000000D03*
G04 #@! TD*
D13*
G04 #@! TO.P,PullDown2_1,1*
G04 #@! TO.N,pwm2*
X62000000Y-77620000D03*
D14*
G04 #@! TO.P,PullDown2_1,2*
G04 #@! TO.N,GND_transformer*
X62000000Y-70000000D03*
G04 #@! TD*
D12*
G04 #@! TO.P,V-led1_3,1,Pin_1*
G04 #@! TO.N,Net-(NPN1_3-D)*
X93000000Y-116000000D03*
G04 #@! TD*
D16*
G04 #@! TO.P,V+led2_3,1,Pin_1*
G04 #@! TO.N,VCC*
X77000000Y-107000000D03*
G04 #@! TD*
G04 #@! TO.P,V+led2_1,1,Pin_1*
G04 #@! TO.N,VCC*
X77000000Y-70000000D03*
G04 #@! TD*
D10*
G04 #@! TO.P,NPN1_2,1,G*
G04 #@! TO.N,pwm1*
X102000000Y-88000000D03*
D11*
G04 #@! TO.P,NPN1_2,2,D*
G04 #@! TO.N,Net-(NPN1_2-D)*
X102000000Y-90540000D03*
G04 #@! TO.P,NPN1_2,3,S*
G04 #@! TO.N,GND_transformer*
X102000000Y-93080000D03*
G04 #@! TD*
D13*
G04 #@! TO.P,PullDown2_5,1*
G04 #@! TO.N,pwm2*
X62000000Y-156810000D03*
D14*
G04 #@! TO.P,PullDown2_5,2*
G04 #@! TO.N,GND_transformer*
X62000000Y-149190000D03*
G04 #@! TD*
D13*
G04 #@! TO.P,PullDown1_1,1*
G04 #@! TO.N,pwm1*
X112000000Y-71190000D03*
D14*
G04 #@! TO.P,PullDown1_1,2*
G04 #@! TO.N,GND_transformer*
X112000000Y-78810000D03*
G04 #@! TD*
D15*
G04 #@! TO.P,V-_transformer1,1,Pin_1*
G04 #@! TO.N,GND_transformer*
X62000000Y-51190000D03*
G04 #@! TD*
D10*
G04 #@! TO.P,NPN1_1,1,G*
G04 #@! TO.N,pwm1*
X102000000Y-71460000D03*
D11*
G04 #@! TO.P,NPN1_1,2,D*
G04 #@! TO.N,Net-(NPN1_1-D)*
X102000000Y-74000000D03*
G04 #@! TO.P,NPN1_1,3,S*
G04 #@! TO.N,GND_transformer*
X102000000Y-76540000D03*
G04 #@! TD*
D12*
G04 #@! TO.P,V+led1_2,1,Pin_1*
G04 #@! TO.N,VCC*
X93000000Y-87000000D03*
G04 #@! TD*
D10*
G04 #@! TO.P,NPN1_3,1,G*
G04 #@! TO.N,pwm1*
X102000000Y-109730000D03*
D11*
G04 #@! TO.P,NPN1_3,2,D*
G04 #@! TO.N,Net-(NPN1_3-D)*
X102000000Y-112270000D03*
G04 #@! TO.P,NPN1_3,3,S*
G04 #@! TO.N,GND_transformer*
X102000000Y-114810000D03*
G04 #@! TD*
D13*
G04 #@! TO.P,R3,1*
G04 #@! TO.N,pwm2*
X55000000Y-178000000D03*
D14*
G04 #@! TO.P,R3,2*
G04 #@! TO.N,Net-(A1-D5)*
X55000000Y-185620000D03*
G04 #@! TD*
D16*
G04 #@! TO.P,V-led2_1,1,Pin_1*
G04 #@! TO.N,Net-(NPN2_1-D)*
X77000000Y-78000000D03*
G04 #@! TD*
D13*
G04 #@! TO.P,PullDown1_5,1*
G04 #@! TO.N,pwm1*
X112000000Y-148270000D03*
D14*
G04 #@! TO.P,PullDown1_5,2*
G04 #@! TO.N,GND_transformer*
X112000000Y-155890000D03*
G04 #@! TD*
D12*
G04 #@! TO.P,V+led1_3,1,Pin_1*
G04 #@! TO.N,VCC*
X93000000Y-107000000D03*
G04 #@! TD*
D13*
G04 #@! TO.P,PullDown1_4,1*
G04 #@! TO.N,pwm1*
X112000000Y-127190000D03*
D14*
G04 #@! TO.P,PullDown1_4,2*
G04 #@! TO.N,GND_transformer*
X112000000Y-134810000D03*
G04 #@! TD*
D10*
G04 #@! TO.P,NPN2_4,1,G*
G04 #@! TO.N,pwm2*
X69945000Y-133540000D03*
D11*
G04 #@! TO.P,NPN2_4,2,D*
G04 #@! TO.N,Net-(NPN2_4-D)*
X69945000Y-131000000D03*
G04 #@! TO.P,NPN2_4,3,S*
G04 #@! TO.N,GND_transformer*
X69945000Y-128460000D03*
G04 #@! TD*
D12*
G04 #@! TO.P,V+led1_5,1,Pin_1*
G04 #@! TO.N,VCC*
X93000000Y-148000000D03*
G04 #@! TD*
D10*
G04 #@! TO.P,NPN1_4,1,G*
G04 #@! TO.N,pwm1*
X102000000Y-128460000D03*
D11*
G04 #@! TO.P,NPN1_4,2,D*
G04 #@! TO.N,Net-(NPN1_4-D)*
X102000000Y-131000000D03*
G04 #@! TO.P,NPN1_4,3,S*
G04 #@! TO.N,GND_transformer*
X102000000Y-133540000D03*
G04 #@! TD*
D15*
G04 #@! TO.P,V+_arduino1,1,Pin_1*
G04 #@! TO.N,Net-(A1-VIN)*
X30000000Y-183000000D03*
G04 #@! TD*
D16*
G04 #@! TO.P,V+led2_5,1,Pin_1*
G04 #@! TO.N,VCC*
X77000000Y-148000000D03*
G04 #@! TD*
G04 #@! TO.P,V-led2_5,1,Pin_1*
G04 #@! TO.N,Net-(NPN2_5-D)*
X77000000Y-157000000D03*
G04 #@! TD*
G04 #@! TO.P,V+led2_4,1,Pin_1*
G04 #@! TO.N,VCC*
X77000000Y-128000000D03*
G04 #@! TD*
D15*
G04 #@! TO.P,GND_arduino1,1,Pin_1*
G04 #@! TO.N,Net-(GND_arduino1-Pin_1)*
X40000000Y-183000000D03*
G04 #@! TD*
D12*
G04 #@! TO.P,V-led1_5,1,Pin_1*
G04 #@! TO.N,Net-(NPN1_5-D)*
X93000000Y-157000000D03*
G04 #@! TD*
G04 #@! TO.P,V+led1_1,1,Pin_1*
G04 #@! TO.N,VCC*
X93000000Y-69540000D03*
G04 #@! TD*
G04 #@! TO.P,V+led1_4,1,Pin_1*
G04 #@! TO.N,VCC*
X93000000Y-128000000D03*
G04 #@! TD*
D17*
G04 #@! TO.P,A1,1,D1/TX*
G04 #@! TO.N,unconnected-(A1-D1{slash}TX-Pad1)*
X43610000Y-149080000D03*
D14*
G04 #@! TO.P,A1,2,D0/RX*
G04 #@! TO.N,unconnected-(A1-D0{slash}RX-Pad2)*
X43610000Y-146540000D03*
G04 #@! TO.P,A1,3,~{RESET}*
G04 #@! TO.N,unconnected-(A1-~{RESET}-Pad3)*
X43610000Y-144000000D03*
G04 #@! TO.P,A1,4,GND*
G04 #@! TO.N,Net-(U1-GND)*
X43610000Y-141460000D03*
G04 #@! TO.P,A1,5,D2*
G04 #@! TO.N,unconnected-(A1-D2-Pad5)*
X43610000Y-138920000D03*
G04 #@! TO.P,A1,6,D3*
G04 #@! TO.N,Net-(A1-D3)*
X43610000Y-136380000D03*
G04 #@! TO.P,A1,7,D4*
G04 #@! TO.N,unconnected-(A1-D4-Pad7)*
X43610000Y-133840000D03*
G04 #@! TO.P,A1,8,D5*
G04 #@! TO.N,Net-(A1-D5)*
X43610000Y-131300000D03*
G04 #@! TO.P,A1,9,D6*
G04 #@! TO.N,unconnected-(A1-D6-Pad9)*
X43610000Y-128760000D03*
G04 #@! TO.P,A1,10,D7*
G04 #@! TO.N,Net-(A1-D7)*
X43610000Y-126220000D03*
G04 #@! TO.P,A1,11,D8*
G04 #@! TO.N,Net-(A1-D8)*
X43610000Y-123680000D03*
G04 #@! TO.P,A1,12,D9*
G04 #@! TO.N,unconnected-(A1-D9-Pad12)*
X43610000Y-121140000D03*
G04 #@! TO.P,A1,13,D10*
G04 #@! TO.N,unconnected-(A1-D10-Pad13)*
X43610000Y-118600000D03*
G04 #@! TO.P,A1,14,D11*
G04 #@! TO.N,Net-(A1-D11)*
X43610000Y-116060000D03*
G04 #@! TO.P,A1,15,D12*
G04 #@! TO.N,Net-(A1-D12)*
X43610000Y-113520000D03*
G04 #@! TO.P,A1,16,D13*
G04 #@! TO.N,Net-(A1-D13)*
X28370000Y-113520000D03*
G04 #@! TO.P,A1,17,3V3*
G04 #@! TO.N,Net-(A1-3V3)*
X28370000Y-116060000D03*
G04 #@! TO.P,A1,18,AREF*
G04 #@! TO.N,unconnected-(A1-AREF-Pad18)*
X28370000Y-118600000D03*
G04 #@! TO.P,A1,19,A0*
G04 #@! TO.N,unconnected-(A1-A0-Pad19)*
X28370000Y-121140000D03*
G04 #@! TO.P,A1,20,A1*
G04 #@! TO.N,unconnected-(A1-A1-Pad20)*
X28370000Y-123680000D03*
G04 #@! TO.P,A1,21,A2*
G04 #@! TO.N,unconnected-(A1-A2-Pad21)*
X28370000Y-126220000D03*
G04 #@! TO.P,A1,22,A3*
G04 #@! TO.N,unconnected-(A1-A3-Pad22)*
X28370000Y-128760000D03*
G04 #@! TO.P,A1,23,A4*
G04 #@! TO.N,unconnected-(A1-A4-Pad23)*
X28370000Y-131300000D03*
G04 #@! TO.P,A1,24,A5*
G04 #@! TO.N,unconnected-(A1-A5-Pad24)*
X28370000Y-133840000D03*
G04 #@! TO.P,A1,25,A6*
G04 #@! TO.N,unconnected-(A1-A6-Pad25)*
X28370000Y-136380000D03*
G04 #@! TO.P,A1,26,A7*
G04 #@! TO.N,unconnected-(A1-A7-Pad26)*
X28370000Y-138920000D03*
G04 #@! TO.P,A1,27,+5V*
G04 #@! TO.N,unconnected-(A1-+5V-Pad27)*
X28370000Y-141460000D03*
G04 #@! TO.P,A1,28,~{RESET}*
G04 #@! TO.N,unconnected-(A1-~{RESET}-Pad28)*
X28370000Y-144000000D03*
G04 #@! TO.P,A1,29,GND*
G04 #@! TO.N,Net-(GND_arduino1-Pin_1)*
X28370000Y-146540000D03*
G04 #@! TO.P,A1,30,VIN*
G04 #@! TO.N,Net-(A1-VIN)*
X28370000Y-149080000D03*
G04 #@! TD*
D16*
G04 #@! TO.P,V+led2_2,1,Pin_1*
G04 #@! TO.N,VCC*
X77000000Y-87000000D03*
G04 #@! TD*
G04 #@! TO.P,V-led2_4,1,Pin_1*
G04 #@! TO.N,Net-(NPN2_4-D)*
X77000000Y-135000000D03*
G04 #@! TD*
D12*
G04 #@! TO.P,V-led1_1,1,Pin_1*
G04 #@! TO.N,Net-(NPN1_1-D)*
X93000000Y-78000000D03*
G04 #@! TD*
D18*
G04 #@! TO.P,U1,1,GND*
G04 #@! TO.N,Net-(U1-GND)*
X127460000Y-185540000D03*
D19*
G04 #@! TO.P,U1,2,VCC*
G04 #@! TO.N,Net-(A1-3V3)*
X127460000Y-183000000D03*
G04 #@! TO.P,U1,3,CE*
G04 #@! TO.N,Net-(A1-D7)*
X130000000Y-185540000D03*
G04 #@! TO.P,U1,4,~{CSN}*
G04 #@! TO.N,Net-(A1-D8)*
X130000000Y-183000000D03*
G04 #@! TO.P,U1,5,SCK*
G04 #@! TO.N,Net-(A1-D13)*
X132540000Y-185540000D03*
G04 #@! TO.P,U1,6,MOSI*
G04 #@! TO.N,Net-(A1-D11)*
X132540000Y-183000000D03*
G04 #@! TO.P,U1,7,MISO*
G04 #@! TO.N,Net-(A1-D12)*
X135080000Y-185540000D03*
G04 #@! TO.P,U1,8,IRQ*
G04 #@! TO.N,unconnected-(U1-IRQ-Pad8)*
X135080000Y-183000000D03*
G04 #@! TD*
D13*
G04 #@! TO.P,PullDown1_2,1*
G04 #@! TO.N,pwm1*
X112000000Y-86730000D03*
D14*
G04 #@! TO.P,PullDown1_2,2*
G04 #@! TO.N,GND_transformer*
X112000000Y-94350000D03*
G04 #@! TD*
D10*
G04 #@! TO.P,NPN2_1,1,G*
G04 #@! TO.N,pwm2*
X69945000Y-76080000D03*
D11*
G04 #@! TO.P,NPN2_1,2,D*
G04 #@! TO.N,Net-(NPN2_1-D)*
X69945000Y-73540000D03*
G04 #@! TO.P,NPN2_1,3,S*
G04 #@! TO.N,GND_transformer*
X69945000Y-71000000D03*
G04 #@! TD*
D13*
G04 #@! TO.P,R1,1*
G04 #@! TO.N,Net-(V+_transformer1-Pin_1)*
X32000000Y-48190000D03*
D14*
G04 #@! TO.P,R1,2*
G04 #@! TO.N,VCC*
X32000000Y-55810000D03*
G04 #@! TD*
D10*
G04 #@! TO.P,NPN2_2,1,G*
G04 #@! TO.N,pwm2*
X69945000Y-93080000D03*
D11*
G04 #@! TO.P,NPN2_2,2,D*
G04 #@! TO.N,Net-(NPN2_2-D)*
X69945000Y-90540000D03*
G04 #@! TO.P,NPN2_2,3,S*
G04 #@! TO.N,GND_transformer*
X69945000Y-88000000D03*
G04 #@! TD*
D12*
G04 #@! TO.P,V-led1_2,1,Pin_1*
G04 #@! TO.N,Net-(NPN1_2-D)*
X93000000Y-95000000D03*
G04 #@! TD*
D10*
G04 #@! TO.P,NPN2_5,1,G*
G04 #@! TO.N,pwm2*
X69945000Y-156080000D03*
D11*
G04 #@! TO.P,NPN2_5,2,D*
G04 #@! TO.N,Net-(NPN2_5-D)*
X69945000Y-153540000D03*
G04 #@! TO.P,NPN2_5,3,S*
G04 #@! TO.N,GND_transformer*
X69945000Y-151000000D03*
G04 #@! TD*
D13*
G04 #@! TO.P,PullDown2_4,1*
G04 #@! TO.N,pwm2*
X62000000Y-135000000D03*
D14*
G04 #@! TO.P,PullDown2_4,2*
G04 #@! TO.N,GND_transformer*
X62000000Y-127380000D03*
G04 #@! TD*
D16*
G04 #@! TO.P,V-led2_2,1,Pin_1*
G04 #@! TO.N,Net-(NPN2_2-D)*
X77000000Y-95000000D03*
G04 #@! TD*
D13*
G04 #@! TO.P,PullDown2_2,1*
G04 #@! TO.N,pwm2*
X62000000Y-95620000D03*
D14*
G04 #@! TO.P,PullDown2_2,2*
G04 #@! TO.N,GND_transformer*
X62000000Y-88000000D03*
G04 #@! TD*
D20*
G04 #@! TO.N,Net-(A1-D12)*
X128688300Y-113551500D03*
G04 #@! TO.N,Net-(A1-3V3)*
X125614900Y-123784500D03*
G04 #@! TO.N,Net-(A1-D13)*
X129854100Y-123091200D03*
G04 #@! TO.N,Net-(A1-D11)*
X131668800Y-125413100D03*
G04 #@! TO.N,Net-(A1-D8)*
X125732400Y-124647900D03*
G04 #@! TO.N,pwm1*
X100638500Y-171634200D03*
G04 #@! TO.N,Net-(U1-GND)*
X120541900Y-143205500D03*
G04 #@! TO.N,Net-(A1-D7)*
X119746800Y-125687300D03*
G04 #@! TD*
D21*
G04 #@! TO.N,Net-(A1-D12)*
X133810000Y-118673200D02*
X133810000Y-184270000D01*
X133810000Y-184270000D02*
X135080000Y-185540000D01*
X128688300Y-113551500D02*
X133810000Y-118673200D01*
G04 #@! TO.N,Net-(A1-3V3)*
X125111900Y-124287500D02*
X125614900Y-123784500D01*
X127460000Y-183000000D02*
X125111900Y-180651900D01*
X125111900Y-180651900D02*
X125111900Y-124287500D01*
G04 #@! TO.N,pwm2*
X62000000Y-135000000D02*
X63151200Y-135000000D01*
X62000000Y-77620000D02*
X63101700Y-78721700D01*
X63151200Y-155658800D02*
X62000000Y-156810000D01*
X63101700Y-94518300D02*
X62000000Y-95620000D01*
X62000000Y-114620000D02*
X63151200Y-114620000D01*
X63151200Y-114620000D02*
X63151200Y-135000000D01*
X63151200Y-135000000D02*
X63151200Y-155658800D01*
X63151200Y-114620000D02*
X63151200Y-96771200D01*
X63101700Y-78721700D02*
X63101700Y-94518300D01*
X63151200Y-96771200D02*
X62000000Y-95620000D01*
X55000000Y-178000000D02*
X55000000Y-163810000D01*
X55000000Y-163810000D02*
X62000000Y-156810000D01*
G04 #@! TO.N,Net-(A1-D13)*
X132540000Y-185540000D02*
X131270000Y-184270000D01*
X131270000Y-184270000D02*
X131270000Y-126119100D01*
X129854100Y-124703200D02*
X129854100Y-123091200D01*
X131270000Y-126119100D02*
X129854100Y-124703200D01*
G04 #@! TO.N,Net-(A1-D11)*
X132540000Y-183000000D02*
X132540000Y-126284300D01*
X132540000Y-126284300D02*
X131668800Y-125413100D01*
G04 #@! TO.N,Net-(A1-D8)*
X130000000Y-128915500D02*
X125732400Y-124647900D01*
X130000000Y-183000000D02*
X130000000Y-128915500D01*
G04 #@! TO.N,Net-(A1-VIN)*
X28370000Y-149080000D02*
X28370000Y-150181700D01*
X30000000Y-151811700D02*
X28370000Y-150181700D01*
X30000000Y-183000000D02*
X30000000Y-151811700D01*
G04 #@! TO.N,pwm1*
X112000000Y-109000000D02*
X110898300Y-107898300D01*
X100638500Y-152067000D02*
X100638500Y-171634200D01*
X110886500Y-85616500D02*
X112000000Y-86730000D01*
X102000000Y-150000000D02*
X102000000Y-151254200D01*
X101451300Y-151254200D02*
X100638500Y-152067000D01*
X110898300Y-107898300D02*
X110898300Y-87831700D01*
X110898300Y-110101700D02*
X110898300Y-126088300D01*
X110898300Y-147168300D02*
X110898300Y-128291700D01*
X112000000Y-148270000D02*
X110898300Y-147168300D01*
X110898300Y-87831700D02*
X112000000Y-86730000D01*
X112000000Y-71190000D02*
X110886500Y-72303500D01*
X112000000Y-109000000D02*
X110898300Y-110101700D01*
X110898300Y-128291700D02*
X112000000Y-127190000D01*
X110886500Y-72303500D02*
X110886500Y-85616500D01*
X110898300Y-126088300D02*
X112000000Y-127190000D01*
X102000000Y-151254200D02*
X101451300Y-151254200D01*
G04 #@! TO.N,Net-(U1-GND)*
X120541900Y-141460000D02*
X120541900Y-143205500D01*
X127172100Y-184388300D02*
X127460000Y-184388300D01*
X127460000Y-185540000D02*
X127460000Y-184388300D01*
X120541900Y-177758100D02*
X127172100Y-184388300D01*
X120541900Y-143205500D02*
X120541900Y-141460000D01*
X120541900Y-143205500D02*
X120541900Y-177758100D01*
G04 #@! TO.N,Net-(GND_arduino1-Pin_1)*
X28370000Y-146540000D02*
X28370000Y-147641700D01*
X40000000Y-159134000D02*
X40000000Y-183000000D01*
X28507700Y-147641700D02*
X40000000Y-159134000D01*
X28370000Y-147641700D02*
X28507700Y-147641700D01*
G04 #@! TO.N,Net-(A1-D7)*
X126469900Y-186691700D02*
X119746800Y-179968600D01*
X130000000Y-185540000D02*
X128848300Y-186691700D01*
X128848300Y-186691700D02*
X126469900Y-186691700D01*
X119746800Y-179968600D02*
X119746800Y-125687300D01*
G04 #@! TO.N,GND_transformer*
X112000000Y-93799100D02*
X112000000Y-93248300D01*
X113121300Y-153667000D02*
X113121300Y-137033000D01*
X113113400Y-132594900D02*
X113113400Y-118835100D01*
X62000000Y-127380000D02*
X62000000Y-128481700D01*
X62000000Y-88000000D02*
X62000000Y-86898300D01*
X60829200Y-90272500D02*
X62000000Y-89101700D01*
X60873500Y-85771800D02*
X62000000Y-86898300D01*
X62000000Y-88000000D02*
X62000000Y-89101700D01*
X112000000Y-154788300D02*
X113121300Y-153667000D01*
X112000000Y-79911700D02*
X113118200Y-81029900D01*
X112000000Y-93799100D02*
X112000000Y-94350000D01*
X112000000Y-133708300D02*
X113113400Y-132594900D01*
X112000000Y-155890000D02*
X112000000Y-154788300D01*
X60873500Y-72228200D02*
X60873500Y-85771800D01*
X62000000Y-51190000D02*
X62000000Y-61800800D01*
X69945000Y-71000000D02*
X69945000Y-69745800D01*
X112000000Y-78810000D02*
X112000000Y-79911700D01*
X113118200Y-92130100D02*
X112000000Y-93248300D01*
X62000000Y-127380000D02*
X62000000Y-126278300D01*
X113121300Y-137033000D02*
X112000000Y-135911700D01*
X112000000Y-134810000D02*
X112000000Y-133708300D01*
X60860800Y-125139100D02*
X60860800Y-109240900D01*
X62000000Y-148088300D02*
X60891300Y-146979600D01*
X60891300Y-129590400D02*
X62000000Y-128481700D01*
X113123800Y-96575500D02*
X113123800Y-114394500D01*
X62000000Y-107550800D02*
X60829200Y-106380000D01*
X112000000Y-116620000D02*
X112000000Y-117721700D01*
X60891300Y-146979600D02*
X60891300Y-129590400D01*
X60860800Y-109240900D02*
X62000000Y-108101700D01*
X62000000Y-107000000D02*
X62000000Y-107550800D01*
X112000000Y-116620000D02*
X112000000Y-115518300D01*
X112000000Y-134810000D02*
X112000000Y-135911700D01*
X113118200Y-81029900D02*
X113118200Y-92130100D01*
X113113400Y-118835100D02*
X112000000Y-117721700D01*
X62000000Y-70000000D02*
X62000000Y-71101700D01*
X112000000Y-94350000D02*
X112000000Y-95451700D01*
X62000000Y-107550800D02*
X62000000Y-108101700D01*
X62000000Y-61800800D02*
X69945000Y-69745800D01*
X113123800Y-114394500D02*
X112000000Y-115518300D01*
X62000000Y-149190000D02*
X62000000Y-148088300D01*
X62000000Y-126278300D02*
X60860800Y-125139100D01*
X60829200Y-106380000D02*
X60829200Y-90272500D01*
X62000000Y-71101700D02*
X60873500Y-72228200D01*
X112000000Y-95451700D02*
X113123800Y-96575500D01*
G04 #@! TO.N,VCC*
X93000000Y-148000000D02*
X95300200Y-145699800D01*
X95251200Y-84748800D02*
X93000000Y-87000000D01*
X93000000Y-87000000D02*
X95259400Y-89259400D01*
X95261900Y-71801900D02*
X95261900Y-82394500D01*
X95252700Y-109252700D02*
X95252700Y-125747300D01*
X93000000Y-69540000D02*
X95261900Y-71801900D01*
X93000000Y-107000000D02*
X95252700Y-109252700D01*
X95300200Y-130300200D02*
X93000000Y-128000000D01*
X95259400Y-104740600D02*
X93000000Y-107000000D01*
X95252700Y-125747300D02*
X93000000Y-128000000D01*
X95261900Y-82394500D02*
X95251200Y-82405200D01*
X95300200Y-145699800D02*
X95300200Y-130300200D01*
X95251200Y-82405200D02*
X95251200Y-84748800D01*
X95259400Y-89259400D02*
X95259400Y-104740600D01*
G04 #@! TO.N,Net-(A1-D5)*
X43838300Y-132401700D02*
X43610000Y-132401700D01*
X55000000Y-185620000D02*
X55000000Y-184518300D01*
X53898300Y-183416600D02*
X53898300Y-142461700D01*
X55000000Y-184518300D02*
X53898300Y-183416600D01*
X53898300Y-142461700D02*
X43838300Y-132401700D01*
X43610000Y-131300000D02*
X43610000Y-132401700D01*
G04 #@! TO.N,Net-(A1-D3)*
X57762100Y-186756200D02*
X58898300Y-185620000D01*
X44711700Y-176906200D02*
X54561700Y-186756200D01*
X60000000Y-185620000D02*
X58898300Y-185620000D01*
X44711700Y-138445600D02*
X44711700Y-176906200D01*
X43747800Y-137481700D02*
X44711700Y-138445600D01*
X54561700Y-186756200D02*
X57762100Y-186756200D01*
X43610000Y-136380000D02*
X43610000Y-137481700D01*
X43610000Y-137481700D02*
X43747800Y-137481700D01*
G04 #@! TD*
M02*
