M48
; DRILL file {KiCad 9.0.1} date 2025-05-09T02:34:20+0200
; FORMAT={-:-/ absolute / metric / decimal}
; #@! TF.CreationDate,2025-05-09T02:34:20+02:00
; #@! TF.GenerationSoftware,Kicad,Pcbnew,9.0.1
; #@! TF.FileFunction,Plated,1,2,PTH
FMAT,2
METRIC
; #@! TA.AperFunction,Plated,PTH,ViaDrill
T1C0.300
; #@! TA.AperFunction,Plated,PTH,ComponentDrill
T2C0.800
; #@! TA.AperFunction,Plated,PTH,ComponentDrill
T3C1.000
; #@! TA.AperFunction,Plated,PTH,ComponentDrill
T4C1.100
; #@! TA.AperFunction,Plated,PTH,ComponentDrill
T5C2.150
%
G90
G05
T1
X100.638Y-171.634
X119.747Y-125.687
X120.542Y-143.206
X125.615Y-123.784
X125.732Y-124.648
X128.688Y-113.551
X129.854Y-123.091
X131.669Y-125.413
T2
X32.0Y-48.19
X32.0Y-55.81
X55.0Y-178.0
X55.0Y-185.62
X60.0Y-178.0
X60.0Y-185.62
X62.0Y-70.0
X62.0Y-77.62
X62.0Y-88.0
X62.0Y-95.62
X62.0Y-107.0
X62.0Y-114.62
X62.0Y-127.38
X62.0Y-135.0
X62.0Y-149.19
X62.0Y-156.81
X112.0Y-71.19
X112.0Y-78.81
X112.0Y-86.73
X112.0Y-94.35
X112.0Y-109.0
X112.0Y-116.62
X112.0Y-127.19
X112.0Y-134.81
X112.0Y-148.27
X112.0Y-155.89
T3
X28.37Y-113.52
X28.37Y-116.06
X28.37Y-118.6
X28.37Y-121.14
X28.37Y-123.68
X28.37Y-126.22
X28.37Y-128.76
X28.37Y-131.3
X28.37Y-133.84
X28.37Y-136.38
X28.37Y-138.92
X28.37Y-141.46
X28.37Y-144.0
X28.37Y-146.54
X28.37Y-149.08
X43.61Y-113.52
X43.61Y-116.06
X43.61Y-118.6
X43.61Y-121.14
X43.61Y-123.68
X43.61Y-126.22
X43.61Y-128.76
X43.61Y-131.3
X43.61Y-133.84
X43.61Y-136.38
X43.61Y-138.92
X43.61Y-141.46
X43.61Y-144.0
X43.61Y-146.54
X43.61Y-149.08
X127.46Y-183.0
X127.46Y-185.54
X130.0Y-183.0
X130.0Y-185.54
X132.54Y-183.0
X132.54Y-185.54
X135.08Y-183.0
X135.08Y-185.54
T4
X69.945Y-71.0
X69.945Y-73.54
X69.945Y-76.08
X69.945Y-88.0
X69.945Y-90.54
X69.945Y-93.08
X69.945Y-108.46
X69.945Y-111.0
X69.945Y-113.54
X69.945Y-128.46
X69.945Y-131.0
X69.945Y-133.54
X69.945Y-151.0
X69.945Y-153.54
X69.945Y-156.08
X102.0Y-71.46
X102.0Y-74.0
X102.0Y-76.54
X102.0Y-88.0
X102.0Y-90.54
X102.0Y-93.08
X102.0Y-109.73
X102.0Y-112.27
X102.0Y-114.81
X102.0Y-128.46
X102.0Y-131.0
X102.0Y-133.54
X102.0Y-150.0
X102.0Y-152.54
X102.0Y-155.08
T5
X30.0Y-183.0
X40.0Y-183.0
X45.0Y-51.19
X62.0Y-51.19
X77.0Y-70.0
X77.0Y-78.0
X77.0Y-87.0
X77.0Y-95.0
X77.0Y-107.0
X77.0Y-116.0
X77.0Y-128.0
X77.0Y-135.0
X77.0Y-148.0
X77.0Y-157.0
X93.0Y-69.54
X93.0Y-78.0
X93.0Y-87.0
X93.0Y-95.0
X93.0Y-107.0
X93.0Y-116.0
X93.0Y-128.0
X93.0Y-135.0
X93.0Y-148.0
X93.0Y-157.0
M30
