G04 #@! TF.GenerationSoftware,KiCad,Pcbnew,9.0.1*
G04 #@! TF.CreationDate,2025-05-09T02:34:20+02:00*
G04 #@! TF.ProjectId,receiver_battery,72656365-6976-4657-925f-626174746572,rev?*
G04 #@! TF.SameCoordinates,Original*
G04 #@! TF.FileFunction,Copper,L2,Bot*
G04 #@! TF.FilePolarity,Positive*
%FSLAX46Y46*%
G04 Gerber Fmt 4.6, Leading zero omitted, Abs format (unit mm)*
G04 Created by KiCad (PCBNEW 9.0.1) date 2025-05-09 02:34:20*
%MOMM*%
%LPD*%
G01*
G04 APERTURE LIST*
G04 Aperture macros list*
%AMRoundRect*
0 Rectangle with rounded corners*
0 $1 Rounding radius*
0 $2 $3 $4 $5 $6 $7 $8 $9 X,Y pos of 4 corners*
0 Add a 4 corners polygon primitive as box body*
4,1,4,$2,$3,$4,$5,$6,$7,$8,$9,$2,$3,0*
0 Add four circle primitives for the rounded corners*
1,1,$1+$1,$2,$3*
1,1,$1+$1,$4,$5*
1,1,$1+$1,$6,$7*
1,1,$1+$1,$8,$9*
0 Add four rect primitives between the rounded corners*
20,1,$1+$1,$2,$3,$4,$5,0*
20,1,$1+$1,$4,$5,$6,$7,0*
20,1,$1+$1,$6,$7,$8,$9,0*
20,1,$1+$1,$8,$9,$2,$3,0*%
G04 Aperture macros list end*
G04 #@! TA.AperFunction,ComponentPad*
%ADD10R,2.000000X1.905000*%
G04 #@! TD*
G04 #@! TA.AperFunction,ComponentPad*
%ADD11O,2.000000X1.905000*%
G04 #@! TD*
G04 #@! TA.AperFunction,ComponentPad*
%ADD12RoundRect,0.250002X-1.699998X1.699998X-1.699998X-1.699998X1.699998X-1.699998X1.699998X1.699998X0*%
G04 #@! TD*
G04 #@! TA.AperFunction,ComponentPad*
%ADD13C,1.600000*%
G04 #@! TD*
G04 #@! TA.AperFunction,ComponentPad*
%ADD14O,1.600000X1.600000*%
G04 #@! TD*
G04 #@! TA.AperFunction,ComponentPad*
%ADD15RoundRect,0.250002X-1.699998X-1.699998X1.699998X-1.699998X1.699998X1.699998X-1.699998X1.699998X0*%
G04 #@! TD*
G04 #@! TA.AperFunction,ComponentPad*
%ADD16RoundRect,0.250002X1.699998X-1.699998X1.699998X1.699998X-1.699998X1.699998X-1.699998X-1.699998X0*%
G04 #@! TD*
G04 #@! TA.AperFunction,ComponentPad*
%ADD17R,1.600000X1.600000*%
G04 #@! TD*
G04 #@! TA.AperFunction,ComponentPad*
%ADD18R,1.700000X1.700000*%
G04 #@! TD*
G04 #@! TA.AperFunction,ComponentPad*
%ADD19C,1.700000*%
G04 #@! TD*
G04 #@! TA.AperFunction,ViaPad*
%ADD20C,0.600000*%
G04 #@! TD*
G04 #@! TA.AperFunction,Conductor*
%ADD21C,0.200000*%
G04 #@! TD*
G04 APERTURE END LIST*
D10*
G04 #@! TO.P,NPN1_5,1,G*
G04 #@! TO.N,pwm1*
X102000000Y-150000000D03*
D11*
G04 #@! TO.P,NPN1_5,2,D*
G04 #@! TO.N,Net-(NPN1_5-D)*
X102000000Y-152540000D03*
G04 #@! TO.P,NPN1_5,3,S*
G04 #@! TO.N,GND_transformer*
X102000000Y-155080000D03*
G04 #@! TD*
D12*
G04 #@! TO.P,V-led1_4,1,Pin_1*
G04 #@! TO.N,Net-(NPN1_4-D)*
X93000000Y-135000000D03*
G04 #@! TD*
D10*
G04 #@! TO.P,NPN2_3,1,G*
G04 #@! TO.N,pwm2*
X69945000Y-113540000D03*
D11*
G04 #@! TO.P,NPN2_3,2,D*
G04 #@! TO.N,Net-(NPN2_3-D)*
X69945000Y-111000000D03*
G04 #@! TO.P,NPN2_3,3,S*
G04 #@! TO.N,GND_transformer*
X69945000Y-108460000D03*
G04 #@! TD*
D13*
G04 #@! TO.P,PullDown2_3,1*
G04 #@! TO.N,pwm2*
X62000000Y-114620000D03*
D14*
G04 #@! TO.P,PullDown2_3,2*
G04 #@! TO.N,GND_transformer*
X62000000Y-107000000D03*
G04 #@! TD*
D15*
G04 #@! TO.P,V+_transformer1,1,Pin_1*
G04 #@! TO.N,Net-(V+_transformer1-Pin_1)*
X45000000Y-51190000D03*
G04 #@! TD*
D13*
G04 #@! TO.P,PullDown1_3,1*
G04 #@! TO.N,pwm1*
X112000000Y-109000000D03*
D14*
G04 #@! TO.P,PullDown1_3,2*
G04 #@! TO.N,GND_transformer*
X112000000Y-116620000D03*
G04 #@! TD*
D13*
G04 #@! TO.P,R2,1*
G04 #@! TO.N,pwm1*
X60000000Y-178000000D03*
D14*
G04 #@! TO.P,R2,2*
G04 #@! TO.N,Net-(A1-D3)*
X60000000Y-185620000D03*
G04 #@! TD*
D16*
G04 #@! TO.P,V-led2_3,1,Pin_1*
G04 #@! TO.N,Net-(NPN2_3-D)*
X77000000Y-116000000D03*
G04 #@! TD*
D13*
G04 #@! TO.P,PullDown2_1,1*
G04 #@! TO.N,pwm2*
X62000000Y-77620000D03*
D14*
G04 #@! TO.P,PullDown2_1,2*
G04 #@! TO.N,GND_transformer*
X62000000Y-70000000D03*
G04 #@! TD*
D12*
G04 #@! TO.P,V-led1_3,1,Pin_1*
G04 #@! TO.N,Net-(NPN1_3-D)*
X93000000Y-116000000D03*
G04 #@! TD*
D16*
G04 #@! TO.P,V+led2_3,1,Pin_1*
G04 #@! TO.N,VCC*
X77000000Y-107000000D03*
G04 #@! TD*
G04 #@! TO.P,V+led2_1,1,Pin_1*
G04 #@! TO.N,VCC*
X77000000Y-70000000D03*
G04 #@! TD*
D10*
G04 #@! TO.P,NPN1_2,1,G*
G04 #@! TO.N,pwm1*
X102000000Y-88000000D03*
D11*
G04 #@! TO.P,NPN1_2,2,D*
G04 #@! TO.N,Net-(NPN1_2-D)*
X102000000Y-90540000D03*
G04 #@! TO.P,NPN1_2,3,S*
G04 #@! TO.N,GND_transformer*
X102000000Y-93080000D03*
G04 #@! TD*
D13*
G04 #@! TO.P,PullDown2_5,1*
G04 #@! TO.N,pwm2*
X62000000Y-156810000D03*
D14*
G04 #@! TO.P,PullDown2_5,2*
G04 #@! TO.N,GND_transformer*
X62000000Y-149190000D03*
G04 #@! TD*
D13*
G04 #@! TO.P,PullDown1_1,1*
G04 #@! TO.N,pwm1*
X112000000Y-71190000D03*
D14*
G04 #@! TO.P,PullDown1_1,2*
G04 #@! TO.N,GND_transformer*
X112000000Y-78810000D03*
G04 #@! TD*
D15*
G04 #@! TO.P,V-_transformer1,1,Pin_1*
G04 #@! TO.N,GND_transformer*
X62000000Y-51190000D03*
G04 #@! TD*
D10*
G04 #@! TO.P,NPN1_1,1,G*
G04 #@! TO.N,pwm1*
X102000000Y-71460000D03*
D11*
G04 #@! TO.P,NPN1_1,2,D*
G04 #@! TO.N,Net-(NPN1_1-D)*
X102000000Y-74000000D03*
G04 #@! TO.P,NPN1_1,3,S*
G04 #@! TO.N,GND_transformer*
X102000000Y-76540000D03*
G04 #@! TD*
D12*
G04 #@! TO.P,V+led1_2,1,Pin_1*
G04 #@! TO.N,VCC*
X93000000Y-87000000D03*
G04 #@! TD*
D10*
G04 #@! TO.P,NPN1_3,1,G*
G04 #@! TO.N,pwm1*
X102000000Y-109730000D03*
D11*
G04 #@! TO.P,NPN1_3,2,D*
G04 #@! TO.N,Net-(NPN1_3-D)*
X102000000Y-112270000D03*
G04 #@! TO.P,NPN1_3,3,S*
G04 #@! TO.N,GND_transformer*
X102000000Y-114810000D03*
G04 #@! TD*
D13*
G04 #@! TO.P,R3,1*
G04 #@! TO.N,pwm2*
X55000000Y-178000000D03*
D14*
G04 #@! TO.P,R3,2*
G04 #@! TO.N,Net-(A1-D5)*
X55000000Y-185620000D03*
G04 #@! TD*
D16*
G04 #@! TO.P,V-led2_1,1,Pin_1*
G04 #@! TO.N,Net-(NPN2_1-D)*
X77000000Y-78000000D03*
G04 #@! TD*
D13*
G04 #@! TO.P,PullDown1_5,1*
G04 #@! TO.N,pwm1*
X112000000Y-148270000D03*
D14*
G04 #@! TO.P,PullDown1_5,2*
G04 #@! TO.N,GND_transformer*
X112000000Y-155890000D03*
G04 #@! TD*
D12*
G04 #@! TO.P,V+led1_3,1,Pin_1*
G04 #@! TO.N,VCC*
X93000000Y-107000000D03*
G04 #@! TD*
D13*
G04 #@! TO.P,PullDown1_4,1*
G04 #@! TO.N,pwm1*
X112000000Y-127190000D03*
D14*
G04 #@! TO.P,PullDown1_4,2*
G04 #@! TO.N,GND_transformer*
X112000000Y-134810000D03*
G04 #@! TD*
D10*
G04 #@! TO.P,NPN2_4,1,G*
G04 #@! TO.N,pwm2*
X69945000Y-133540000D03*
D11*
G04 #@! TO.P,NPN2_4,2,D*
G04 #@! TO.N,Net-(NPN2_4-D)*
X69945000Y-131000000D03*
G04 #@! TO.P,NPN2_4,3,S*
G04 #@! TO.N,GND_transformer*
X69945000Y-128460000D03*
G04 #@! TD*
D12*
G04 #@! TO.P,V+led1_5,1,Pin_1*
G04 #@! TO.N,VCC*
X93000000Y-148000000D03*
G04 #@! TD*
D10*
G04 #@! TO.P,NPN1_4,1,G*
G04 #@! TO.N,pwm1*
X102000000Y-128460000D03*
D11*
G04 #@! TO.P,NPN1_4,2,D*
G04 #@! TO.N,Net-(NPN1_4-D)*
X102000000Y-131000000D03*
G04 #@! TO.P,NPN1_4,3,S*
G04 #@! TO.N,GND_transformer*
X102000000Y-133540000D03*
G04 #@! TD*
D15*
G04 #@! TO.P,V+_arduino1,1,Pin_1*
G04 #@! TO.N,Net-(A1-VIN)*
X30000000Y-183000000D03*
G04 #@! TD*
D16*
G04 #@! TO.P,V+led2_5,1,Pin_1*
G04 #@! TO.N,VCC*
X77000000Y-148000000D03*
G04 #@! TD*
G04 #@! TO.P,V-led2_5,1,Pin_1*
G04 #@! TO.N,Net-(NPN2_5-D)*
X77000000Y-157000000D03*
G04 #@! TD*
G04 #@! TO.P,V+led2_4,1,Pin_1*
G04 #@! TO.N,VCC*
X77000000Y-128000000D03*
G04 #@! TD*
D15*
G04 #@! TO.P,GND_arduino1,1,Pin_1*
G04 #@! TO.N,Net-(GND_arduino1-Pin_1)*
X40000000Y-183000000D03*
G04 #@! TD*
D12*
G04 #@! TO.P,V-led1_5,1,Pin_1*
G04 #@! TO.N,Net-(NPN1_5-D)*
X93000000Y-157000000D03*
G04 #@! TD*
G04 #@! TO.P,V+led1_1,1,Pin_1*
G04 #@! TO.N,VCC*
X93000000Y-69540000D03*
G04 #@! TD*
G04 #@! TO.P,V+led1_4,1,Pin_1*
G04 #@! TO.N,VCC*
X93000000Y-128000000D03*
G04 #@! TD*
D17*
G04 #@! TO.P,A1,1,D1/TX*
G04 #@! TO.N,unconnected-(A1-D1{slash}TX-Pad1)*
X43610000Y-149080000D03*
D14*
G04 #@! TO.P,A1,2,D0/RX*
G04 #@! TO.N,unconnected-(A1-D0{slash}RX-Pad2)*
X43610000Y-146540000D03*
G04 #@! TO.P,A1,3,~{RESET}*
G04 #@! TO.N,unconnected-(A1-~{RESET}-Pad3)*
X43610000Y-144000000D03*
G04 #@! TO.P,A1,4,GND*
G04 #@! TO.N,Net-(U1-GND)*
X43610000Y-141460000D03*
G04 #@! TO.P,A1,5,D2*
G04 #@! TO.N,unconnected-(A1-D2-Pad5)*
X43610000Y-138920000D03*
G04 #@! TO.P,A1,6,D3*
G04 #@! TO.N,Net-(A1-D3)*
X43610000Y-136380000D03*
G04 #@! TO.P,A1,7,D4*
G04 #@! TO.N,unconnected-(A1-D4-Pad7)*
X43610000Y-133840000D03*
G04 #@! TO.P,A1,8,D5*
G04 #@! TO.N,Net-(A1-D5)*
X43610000Y-131300000D03*
G04 #@! TO.P,A1,9,D6*
G04 #@! TO.N,unconnected-(A1-D6-Pad9)*
X43610000Y-128760000D03*
G04 #@! TO.P,A1,10,D7*
G04 #@! TO.N,Net-(A1-D7)*
X43610000Y-126220000D03*
G04 #@! TO.P,A1,11,D8*
G04 #@! TO.N,Net-(A1-D8)*
X43610000Y-123680000D03*
G04 #@! TO.P,A1,12,D9*
G04 #@! TO.N,unconnected-(A1-D9-Pad12)*
X43610000Y-121140000D03*
G04 #@! TO.P,A1,13,D10*
G04 #@! TO.N,unconnected-(A1-D10-Pad13)*
X43610000Y-118600000D03*
G04 #@! TO.P,A1,14,D11*
G04 #@! TO.N,Net-(A1-D11)*
X43610000Y-116060000D03*
G04 #@! TO.P,A1,15,D12*
G04 #@! TO.N,Net-(A1-D12)*
X43610000Y-113520000D03*
G04 #@! TO.P,A1,16,D13*
G04 #@! TO.N,Net-(A1-D13)*
X28370000Y-113520000D03*
G04 #@! TO.P,A1,17,3V3*
G04 #@! TO.N,Net-(A1-3V3)*
X28370000Y-116060000D03*
G04 #@! TO.P,A1,18,AREF*
G04 #@! TO.N,unconnected-(A1-AREF-Pad18)*
X28370000Y-118600000D03*
G04 #@! TO.P,A1,19,A0*
G04 #@! TO.N,unconnected-(A1-A0-Pad19)*
X28370000Y-121140000D03*
G04 #@! TO.P,A1,20,A1*
G04 #@! TO.N,unconnected-(A1-A1-Pad20)*
X28370000Y-123680000D03*
G04 #@! TO.P,A1,21,A2*
G04 #@! TO.N,unconnected-(A1-A2-Pad21)*
X28370000Y-126220000D03*
G04 #@! TO.P,A1,22,A3*
G04 #@! TO.N,unconnected-(A1-A3-Pad22)*
X28370000Y-128760000D03*
G04 #@! TO.P,A1,23,A4*
G04 #@! TO.N,unconnected-(A1-A4-Pad23)*
X28370000Y-131300000D03*
G04 #@! TO.P,A1,24,A5*
G04 #@! TO.N,unconnected-(A1-A5-Pad24)*
X28370000Y-133840000D03*
G04 #@! TO.P,A1,25,A6*
G04 #@! TO.N,unconnected-(A1-A6-Pad25)*
X28370000Y-136380000D03*
G04 #@! TO.P,A1,26,A7*
G04 #@! TO.N,unconnected-(A1-A7-Pad26)*
X28370000Y-138920000D03*
G04 #@! TO.P,A1,27,+5V*
G04 #@! TO.N,unconnected-(A1-+5V-Pad27)*
X28370000Y-141460000D03*
G04 #@! TO.P,A1,28,~{RESET}*
G04 #@! TO.N,unconnected-(A1-~{RESET}-Pad28)*
X28370000Y-144000000D03*
G04 #@! TO.P,A1,29,GND*
G04 #@! TO.N,Net-(GND_arduino1-Pin_1)*
X28370000Y-146540000D03*
G04 #@! TO.P,A1,30,VIN*
G04 #@! TO.N,Net-(A1-VIN)*
X28370000Y-149080000D03*
G04 #@! TD*
D16*
G04 #@! TO.P,V+led2_2,1,Pin_1*
G04 #@! TO.N,VCC*
X77000000Y-87000000D03*
G04 #@! TD*
G04 #@! TO.P,V-led2_4,1,Pin_1*
G04 #@! TO.N,Net-(NPN2_4-D)*
X77000000Y-135000000D03*
G04 #@! TD*
D12*
G04 #@! TO.P,V-led1_1,1,Pin_1*
G04 #@! TO.N,Net-(NPN1_1-D)*
X93000000Y-78000000D03*
G04 #@! TD*
D18*
G04 #@! TO.P,U1,1,GND*
G04 #@! TO.N,Net-(U1-GND)*
X127460000Y-185540000D03*
D19*
G04 #@! TO.P,U1,2,VCC*
G04 #@! TO.N,Net-(A1-3V3)*
X127460000Y-183000000D03*
G04 #@! TO.P,U1,3,CE*
G04 #@! TO.N,Net-(A1-D7)*
X130000000Y-185540000D03*
G04 #@! TO.P,U1,4,~{CSN}*
G04 #@! TO.N,Net-(A1-D8)*
X130000000Y-183000000D03*
G04 #@! TO.P,U1,5,SCK*
G04 #@! TO.N,Net-(A1-D13)*
X132540000Y-185540000D03*
G04 #@! TO.P,U1,6,MOSI*
G04 #@! TO.N,Net-(A1-D11)*
X132540000Y-183000000D03*
G04 #@! TO.P,U1,7,MISO*
G04 #@! TO.N,Net-(A1-D12)*
X135080000Y-185540000D03*
G04 #@! TO.P,U1,8,IRQ*
G04 #@! TO.N,unconnected-(U1-IRQ-Pad8)*
X135080000Y-183000000D03*
G04 #@! TD*
D13*
G04 #@! TO.P,PullDown1_2,1*
G04 #@! TO.N,pwm1*
X112000000Y-86730000D03*
D14*
G04 #@! TO.P,PullDown1_2,2*
G04 #@! TO.N,GND_transformer*
X112000000Y-94350000D03*
G04 #@! TD*
D10*
G04 #@! TO.P,NPN2_1,1,G*
G04 #@! TO.N,pwm2*
X69945000Y-76080000D03*
D11*
G04 #@! TO.P,NPN2_1,2,D*
G04 #@! TO.N,Net-(NPN2_1-D)*
X69945000Y-73540000D03*
G04 #@! TO.P,NPN2_1,3,S*
G04 #@! TO.N,GND_transformer*
X69945000Y-71000000D03*
G04 #@! TD*
D13*
G04 #@! TO.P,R1,1*
G04 #@! TO.N,Net-(V+_transformer1-Pin_1)*
X32000000Y-48190000D03*
D14*
G04 #@! TO.P,R1,2*
G04 #@! TO.N,VCC*
X32000000Y-55810000D03*
G04 #@! TD*
D10*
G04 #@! TO.P,NPN2_2,1,G*
G04 #@! TO.N,pwm2*
X69945000Y-93080000D03*
D11*
G04 #@! TO.P,NPN2_2,2,D*
G04 #@! TO.N,Net-(NPN2_2-D)*
X69945000Y-90540000D03*
G04 #@! TO.P,NPN2_2,3,S*
G04 #@! TO.N,GND_transformer*
X69945000Y-88000000D03*
G04 #@! TD*
D12*
G04 #@! TO.P,V-led1_2,1,Pin_1*
G04 #@! TO.N,Net-(NPN1_2-D)*
X93000000Y-95000000D03*
G04 #@! TD*
D10*
G04 #@! TO.P,NPN2_5,1,G*
G04 #@! TO.N,pwm2*
X69945000Y-156080000D03*
D11*
G04 #@! TO.P,NPN2_5,2,D*
G04 #@! TO.N,Net-(NPN2_5-D)*
X69945000Y-153540000D03*
G04 #@! TO.P,NPN2_5,3,S*
G04 #@! TO.N,GND_transformer*
X69945000Y-151000000D03*
G04 #@! TD*
D13*
G04 #@! TO.P,PullDown2_4,1*
G04 #@! TO.N,pwm2*
X62000000Y-135000000D03*
D14*
G04 #@! TO.P,PullDown2_4,2*
G04 #@! TO.N,GND_transformer*
X62000000Y-127380000D03*
G04 #@! TD*
D16*
G04 #@! TO.P,V-led2_2,1,Pin_1*
G04 #@! TO.N,Net-(NPN2_2-D)*
X77000000Y-95000000D03*
G04 #@! TD*
D13*
G04 #@! TO.P,PullDown2_2,1*
G04 #@! TO.N,pwm2*
X62000000Y-95620000D03*
D14*
G04 #@! TO.P,PullDown2_2,2*
G04 #@! TO.N,GND_transformer*
X62000000Y-88000000D03*
G04 #@! TD*
D20*
G04 #@! TO.N,Net-(A1-D12)*
X128688300Y-113551500D03*
G04 #@! TO.N,Net-(A1-3V3)*
X125614900Y-123784500D03*
G04 #@! TO.N,Net-(A1-D13)*
X129854100Y-123091200D03*
G04 #@! TO.N,Net-(A1-D11)*
X131668800Y-125413100D03*
G04 #@! TO.N,Net-(A1-D8)*
X125732400Y-124647900D03*
G04 #@! TO.N,pwm1*
X100638500Y-171634200D03*
G04 #@! TO.N,Net-(U1-GND)*
X120541900Y-143205500D03*
G04 #@! TO.N,Net-(A1-D7)*
X119746800Y-125687300D03*
G04 #@! TD*
D21*
G04 #@! TO.N,Net-(A1-D12)*
X72565800Y-110999900D02*
X126136700Y-110999900D01*
X44711700Y-113520000D02*
X48500200Y-109731500D01*
X71297400Y-109731500D02*
X72565800Y-110999900D01*
X126136700Y-110999900D02*
X128688300Y-113551500D01*
X43610000Y-113520000D02*
X44711700Y-113520000D01*
X48500200Y-109731500D02*
X71297400Y-109731500D01*
G04 #@! TO.N,Net-(A1-3V3)*
X28370000Y-116060000D02*
X29471700Y-116060000D01*
X29471700Y-116060000D02*
X30741700Y-117330000D01*
X74734400Y-123784500D02*
X125614900Y-123784500D01*
X68279900Y-117330000D02*
X74734400Y-123784500D01*
X30741700Y-117330000D02*
X68279900Y-117330000D01*
G04 #@! TO.N,pwm2*
X69945000Y-156080000D02*
X68643300Y-156080000D01*
X64540000Y-93080000D02*
X62000000Y-95620000D01*
X67563300Y-114620000D02*
X68643300Y-113540000D01*
X69945000Y-93080000D02*
X64540000Y-93080000D01*
X63540000Y-76080000D02*
X62000000Y-77620000D01*
X62000000Y-156810000D02*
X67913300Y-156810000D01*
X62000000Y-114620000D02*
X67563300Y-114620000D01*
X62000000Y-135000000D02*
X69739200Y-135000000D01*
X69739200Y-135000000D02*
X69945000Y-134794200D01*
X69945000Y-76080000D02*
X63540000Y-76080000D01*
X69945000Y-133540000D02*
X69945000Y-134794200D01*
X69945000Y-113540000D02*
X68643300Y-113540000D01*
X67913300Y-156810000D02*
X68643300Y-156080000D01*
G04 #@! TO.N,Net-(A1-D13)*
X125667600Y-118904700D02*
X75723100Y-118904700D01*
X72878400Y-116060000D02*
X61229300Y-116060000D01*
X59959300Y-114790000D02*
X30741700Y-114790000D01*
X28370000Y-113520000D02*
X29471700Y-113520000D01*
X30741700Y-114790000D02*
X29471700Y-113520000D01*
X61229300Y-116060000D02*
X59959300Y-114790000D01*
X129854100Y-123091200D02*
X125667600Y-118904700D01*
X75723100Y-118904700D02*
X72878400Y-116060000D01*
G04 #@! TO.N,Net-(A1-D11)*
X43610000Y-116060000D02*
X44711700Y-116060000D01*
X128827800Y-123140000D02*
X131100900Y-125413100D01*
X79390400Y-123140000D02*
X128827800Y-123140000D01*
X131100900Y-125413100D02*
X131668800Y-125413100D01*
X45113400Y-116461700D02*
X72712100Y-116461700D01*
X72712100Y-116461700D02*
X79390400Y-123140000D01*
X44711700Y-116060000D02*
X45113400Y-116461700D01*
G04 #@! TO.N,Net-(A1-D8)*
X44711700Y-123680000D02*
X45679600Y-124647900D01*
X45679600Y-124647900D02*
X125732400Y-124647900D01*
X43610000Y-123680000D02*
X44711700Y-123680000D01*
G04 #@! TO.N,pwm1*
X112000000Y-86730000D02*
X102015800Y-86730000D01*
X102000000Y-109730000D02*
X111270000Y-109730000D01*
X102000000Y-88000000D02*
X102000000Y-86745800D01*
X111270000Y-109730000D02*
X112000000Y-109000000D01*
X94272700Y-178000000D02*
X60000000Y-178000000D01*
X112000000Y-148270000D02*
X102475800Y-148270000D01*
X102015800Y-86730000D02*
X102000000Y-86745800D01*
X100638500Y-171634200D02*
X94272700Y-178000000D01*
X102000000Y-128460000D02*
X102000000Y-127205800D01*
X102000000Y-150000000D02*
X102000000Y-148745800D01*
X102000000Y-71460000D02*
X103301700Y-71460000D01*
X102015800Y-127190000D02*
X102000000Y-127205800D01*
X112000000Y-71190000D02*
X103571700Y-71190000D01*
X112000000Y-127190000D02*
X102015800Y-127190000D01*
X103571700Y-71190000D02*
X103301700Y-71460000D01*
X102475800Y-148270000D02*
X102000000Y-148745800D01*
G04 #@! TO.N,Net-(U1-GND)*
X120541900Y-143205500D02*
X120541900Y-141460000D01*
X118796400Y-141460000D02*
X120541900Y-143205500D01*
X43610000Y-141460000D02*
X118796400Y-141460000D01*
X120541900Y-141460000D02*
X120541900Y-143205500D01*
G04 #@! TO.N,Net-(A1-D7)*
X43610000Y-126220000D02*
X44711700Y-126220000D01*
X45244400Y-125687300D02*
X119746800Y-125687300D01*
X44711700Y-126220000D02*
X45244400Y-125687300D01*
G04 #@! TO.N,GND_transformer*
X69945000Y-88000000D02*
X69945000Y-86745800D01*
X102000000Y-155080000D02*
X103200900Y-155080000D01*
X62000000Y-70000000D02*
X63101700Y-70000000D01*
X64181700Y-128460000D02*
X63101700Y-127380000D01*
X102000000Y-114810000D02*
X102000000Y-116064200D01*
X69945000Y-151000000D02*
X64911700Y-151000000D01*
X69945000Y-108460000D02*
X64561700Y-108460000D01*
X102000000Y-76540000D02*
X102000000Y-77794200D01*
X102000000Y-133540000D02*
X109628300Y-133540000D01*
X112000000Y-94350000D02*
X110898300Y-94350000D01*
X109628300Y-133540000D02*
X110898300Y-134810000D01*
X69945000Y-88000000D02*
X62000000Y-88000000D01*
X72946300Y-83744500D02*
X69945000Y-86745800D01*
X104111700Y-155890000D02*
X103301700Y-155080000D01*
X96049700Y-83744500D02*
X72946300Y-83744500D01*
X110898300Y-94350000D02*
X109628300Y-93080000D01*
X62000000Y-107000000D02*
X63101700Y-107000000D01*
X108628300Y-76540000D02*
X110898300Y-78810000D01*
X103300200Y-155080000D02*
X103301700Y-155080000D01*
X112000000Y-134810000D02*
X110898300Y-134810000D01*
X64911700Y-151000000D02*
X63101700Y-149190000D01*
X102000000Y-77794200D02*
X96049700Y-83744500D01*
X62000000Y-127380000D02*
X63101700Y-127380000D01*
X109628300Y-93080000D02*
X102000000Y-93080000D01*
X64101700Y-71000000D02*
X63101700Y-70000000D01*
X112000000Y-155890000D02*
X104111700Y-155890000D01*
X103200900Y-155080000D02*
X103300200Y-155080000D01*
X112000000Y-78810000D02*
X110898300Y-78810000D01*
X102000000Y-76540000D02*
X108628300Y-76540000D01*
X69945000Y-71000000D02*
X64101700Y-71000000D01*
X64561700Y-108460000D02*
X63101700Y-107000000D01*
X112000000Y-116620000D02*
X102555800Y-116620000D01*
X62000000Y-149190000D02*
X63101700Y-149190000D01*
X69945000Y-128460000D02*
X64181700Y-128460000D01*
X102555800Y-116620000D02*
X102000000Y-116064200D01*
G04 #@! TO.N,VCC*
X93000000Y-148000000D02*
X77000000Y-148000000D01*
X77000000Y-87000000D02*
X93000000Y-87000000D01*
X77460000Y-69540000D02*
X77000000Y-70000000D01*
X77000000Y-107000000D02*
X93000000Y-107000000D01*
X32000000Y-55810000D02*
X62810000Y-55810000D01*
X93000000Y-69540000D02*
X77460000Y-69540000D01*
X62810000Y-55810000D02*
X77000000Y-70000000D01*
X77000000Y-128000000D02*
X93000000Y-128000000D01*
G04 #@! TO.N,Net-(NPN1_1-D)*
X102000000Y-74000000D02*
X102000000Y-75254200D01*
X95745800Y-75254200D02*
X93000000Y-78000000D01*
X102000000Y-75254200D02*
X95745800Y-75254200D01*
G04 #@! TO.N,Net-(V+_transformer1-Pin_1)*
X45000000Y-51190000D02*
X35000000Y-51190000D01*
X35000000Y-51190000D02*
X32000000Y-48190000D01*
G04 #@! TO.N,Net-(NPN1_2-D)*
X96205800Y-91794200D02*
X102000000Y-91794200D01*
X102000000Y-90540000D02*
X102000000Y-91794200D01*
X93000000Y-95000000D02*
X96205800Y-91794200D01*
G04 #@! TO.N,Net-(NPN1_3-D)*
X93000000Y-116000000D02*
X95475800Y-113524200D01*
X95475800Y-113524200D02*
X102000000Y-113524200D01*
X102000000Y-112270000D02*
X102000000Y-113524200D01*
G04 #@! TO.N,Net-(NPN1_4-D)*
X97000000Y-131000000D02*
X102000000Y-131000000D01*
X93000000Y-135000000D02*
X97000000Y-131000000D01*
G04 #@! TO.N,Net-(NPN1_5-D)*
X93000000Y-157000000D02*
X97460000Y-152540000D01*
X97460000Y-152540000D02*
X102000000Y-152540000D01*
G04 #@! TO.N,Net-(NPN2_1-D)*
X72540000Y-73540000D02*
X77000000Y-78000000D01*
X69945000Y-73540000D02*
X72540000Y-73540000D01*
G04 #@! TO.N,Net-(NPN2_2-D)*
X72540000Y-90540000D02*
X77000000Y-95000000D01*
X69945000Y-90540000D02*
X72540000Y-90540000D01*
G04 #@! TO.N,Net-(NPN2_3-D)*
X73254200Y-112254200D02*
X77000000Y-116000000D01*
X69945000Y-112254200D02*
X73254200Y-112254200D01*
X69945000Y-111000000D02*
X69945000Y-112254200D01*
G04 #@! TO.N,Net-(NPN2_4-D)*
X73000000Y-131000000D02*
X77000000Y-135000000D01*
X69945000Y-131000000D02*
X73000000Y-131000000D01*
G04 #@! TO.N,Net-(NPN2_5-D)*
X77000000Y-157000000D02*
X74794200Y-154794200D01*
X74794200Y-154794200D02*
X69945000Y-154794200D01*
X69945000Y-153540000D02*
X69945000Y-154794200D01*
G04 #@! TD*
M02*
